<?xml version="1.0" encoding="UTF-8" standalone="no"?>
<svg width="285px" height="284px" viewBox="0 0 285 284" version="1.1" xmlns="http://www.w3.org/2000/svg" xmlns:xlink="http://www.w3.org/1999/xlink" xmlns:sketch="http://www.bohemiancoding.com/sketch/ns">
    <!-- Generator: Sketch Beta 3.4.1 (15680) - http://www.bohemiancoding.com/sketch -->
    <title>amex</title>
    <desc>Created with Sketch Beta.</desc>
    <defs>
        <radialGradient cx="17.5409177%" cy="17.466056%" fx="17.5409177%" fy="17.466056%" r="93.2873442%" id="radialGradient-1">
            <stop stop-color="#9DD5F6" offset="0%"></stop>
            <stop stop-color="#98D3F5" offset="7.11%"></stop>
            <stop stop-color="#89CEF3" offset="15.75%"></stop>
            <stop stop-color="#70C6EF" offset="25.16%"></stop>
            <stop stop-color="#4EBBEA" offset="35.14%"></stop>
            <stop stop-color="#23ADE3" offset="45.46%"></stop>
            <stop stop-color="#0DA6E0" offset="50%"></stop>
            <stop stop-color="#2E77BC" offset="100%"></stop>
        </radialGradient>
    </defs>
    <g id="Page-1" stroke="none" stroke-width="1" fill="none" fill-rule="evenodd" sketch:type="MSPage">
        <g id="amex" sketch:type="MSLayerGroup">
            <g id="Layer_1" sketch:type="MSShapeGroup">
                <path d="M282.584,0.598 L0.639,0.598 L0.639,283.564 L282.584,283.564 L282.584,190.178 C283.704,188.559 284.257,186.488 284.257,183.956 C284.257,181.058 283.704,179.263 282.584,177.751" id="Shape" fill="url(#radialGradient-1)"></path>
                <path d="M26.053,123.042 L20.629,109.825 L15.236,123.042 L26.053,123.042 Z M145.543,117.779 C144.454,118.44 143.166,118.462 141.623,118.462 L131.996,118.462 L131.996,111.098 L141.754,111.098 C143.135,111.098 144.576,111.16 145.512,111.696 C146.54,112.179 147.176,113.207 147.176,114.627 C147.176,116.076 146.571,117.242 145.543,117.779 L145.543,117.779 Z M214.221,123.042 L208.737,109.825 L203.283,123.042 L214.221,123.042 L214.221,123.042 Z M86.201,137.348 L78.077,137.348 L78.047,111.382 L66.556,137.348 L59.598,137.348 L48.077,111.359 L48.077,137.348 L31.959,137.348 L28.914,129.953 L12.414,129.953 L9.338,137.348 L0.731,137.348 L14.922,104.194 L26.696,104.194 L40.174,135.584 L40.174,104.194 L53.108,104.194 L63.479,126.685 L73.006,104.194 L86.2,104.194 L86.2,137.348 L86.201,137.348 Z M118.58,137.348 L92.107,137.348 L92.107,104.194 L118.58,104.194 L118.58,111.098 L100.032,111.098 L100.032,117.074 L118.135,117.074 L118.135,123.87 L100.032,123.87 L100.032,130.491 L118.58,130.491 L118.58,137.348 L118.58,137.348 Z M155.906,113.123 C155.906,118.409 152.378,121.14 150.322,121.96 C152.056,122.62 153.537,123.786 154.242,124.752 C155.361,126.401 155.554,127.874 155.554,130.835 L155.554,137.348 L147.561,137.348 L147.531,133.167 C147.531,131.172 147.722,128.303 146.28,126.708 C145.122,125.542 143.357,125.289 140.504,125.289 L131.997,125.289 L131.997,137.348 L124.073,137.348 L124.073,104.194 L142.3,104.194 C146.35,104.194 149.334,104.301 151.896,105.782 C154.403,107.263 155.906,109.425 155.906,113.123 L155.906,113.123 Z M168.588,137.348 L160.502,137.348 L160.502,104.194 L168.588,104.194 L168.588,137.348 L168.588,137.348 Z M262.396,137.348 L251.166,137.348 L236.145,112.464 L236.145,137.348 L220.006,137.348 L216.922,129.953 L200.46,129.953 L197.468,137.348 L188.195,137.348 C184.343,137.348 179.466,136.496 176.704,133.681 C173.919,130.866 172.47,127.053 172.47,121.024 C172.47,116.107 173.336,111.612 176.742,108.06 C179.304,105.414 183.316,104.194 188.777,104.194 L196.449,104.194 L196.449,111.298 L188.938,111.298 C186.046,111.298 184.413,111.728 182.84,113.262 C181.489,114.658 180.562,117.297 180.562,120.772 C180.562,124.324 181.268,126.885 182.741,128.558 C183.961,129.87 186.178,130.268 188.264,130.268 L191.823,130.268 L202.992,104.195 L214.866,104.195 L228.283,135.554 L228.283,104.195 L240.349,104.195 L254.279,127.285 L254.279,104.195 L262.396,104.195 L262.396,137.348 L262.396,137.348 Z M0.639,143.86 L14.179,143.86 L17.232,136.496 L24.067,136.496 L27.112,143.86 L53.753,143.86 L53.753,138.23 L56.131,143.884 L69.961,143.884 L72.339,138.146 L72.339,143.86 L138.547,143.86 L138.516,131.772 L139.797,131.772 C140.694,131.803 140.956,131.886 140.956,133.367 L140.956,143.86 L175.199,143.86 L175.199,141.046 C177.961,142.526 182.257,143.86 187.91,143.86 L202.316,143.86 L205.399,136.496 L212.234,136.496 L215.249,143.86 L243.01,143.86 L243.01,136.865 L247.214,143.86 L269.46,143.86 L269.46,97.62 L247.444,97.62 L247.444,103.081 L244.361,97.62 L221.77,97.62 L221.77,103.081 L218.939,97.62 L188.424,97.62 C183.316,97.62 178.826,98.333 175.199,100.32 L175.199,97.62 L154.141,97.62 L154.141,100.32 C151.833,98.272 148.688,97.62 145.191,97.62 L68.258,97.62 L63.096,109.563 L57.795,97.62 L33.563,97.62 L33.563,103.081 L30.901,97.62 L10.235,97.62 L0.638,119.605 L0.638,143.86 L0.639,143.86 Z" id="Shape" fill="#FFFFFF"></path>
                <path d="M282.584,168.315 L268.141,168.315 C266.699,168.315 265.741,168.369 264.934,168.914 C264.098,169.451 263.776,170.248 263.776,171.3 C263.776,172.551 264.482,173.402 265.509,173.77 C266.345,174.061 267.243,174.146 268.563,174.146 L272.858,174.261 C277.192,174.368 280.085,175.113 281.849,176.93 C282.17,177.183 282.363,177.467 282.584,177.751 L282.584,168.315 Z M282.584,190.178 C280.659,192.993 276.908,194.42 271.83,194.42 L256.526,194.42 L256.526,187.309 L271.768,187.309 C273.28,187.309 274.338,187.11 274.975,186.488 C275.527,185.975 275.912,185.23 275.912,184.325 C275.912,183.359 275.527,182.592 274.944,182.132 C274.369,181.626 273.532,181.396 272.152,181.396 C264.711,181.143 255.428,181.626 255.428,171.132 C255.428,166.322 258.482,161.259 266.798,161.259 L282.583,161.259 L282.583,154.661 L267.917,154.661 C263.491,154.661 260.276,155.721 257.999,157.369 L257.999,154.661 L236.306,154.661 C232.837,154.661 228.765,155.521 226.839,157.369 L226.839,154.661 L188.101,154.661 L188.101,157.369 C185.018,155.145 179.816,154.661 177.415,154.661 L151.863,154.661 L151.863,157.369 C149.424,155.007 144,154.661 140.694,154.661 L112.097,154.661 L105.553,161.743 L99.424,154.661 L56.706,154.661 L56.706,200.933 L98.62,200.933 L105.363,193.739 L111.715,200.933 L137.551,200.956 L137.551,190.071 L140.091,190.071 C143.519,190.124 147.562,189.986 151.129,188.444 L151.129,200.932 L172.439,200.932 L172.439,188.872 L173.467,188.872 C174.779,188.872 174.908,188.926 174.908,190.237 L174.908,200.931 L239.644,200.931 C243.754,200.931 248.05,199.879 250.429,197.97 L250.429,200.931 L270.963,200.931 C275.236,200.931 279.409,200.332 282.584,198.798 L282.584,190.178 L282.584,190.178 Z M250.973,176.93 C252.516,178.527 253.343,180.543 253.343,183.956 C253.343,191.09 248.886,194.42 240.894,194.42 L225.459,194.42 L225.459,187.309 L240.832,187.309 C242.335,187.309 243.401,187.11 244.069,186.488 C244.614,185.975 245.005,185.23 245.005,184.325 C245.005,183.359 244.582,182.592 244.038,182.132 C243.432,181.626 242.596,181.396 241.216,181.396 C233.805,181.143 224.524,181.626 224.524,171.132 C224.524,166.322 227.546,161.259 235.854,161.259 L251.741,161.259 L251.741,168.317 L237.204,168.317 C235.763,168.317 234.826,168.371 234.029,168.916 C233.161,169.453 232.839,170.25 232.839,171.302 C232.839,172.553 233.576,173.404 234.573,173.772 C235.409,174.063 236.307,174.148 237.657,174.148 L241.923,174.263 C246.225,174.368 249.178,175.112 250.973,176.93 L250.973,176.93 Z M179.465,174.882 C178.405,175.511 177.094,175.565 175.552,175.565 L165.925,175.565 L165.925,168.117 L175.683,168.117 C177.094,168.117 178.506,168.147 179.465,168.716 C180.492,169.253 181.106,170.28 181.106,171.699 C181.106,173.118 180.492,174.261 179.465,174.882 L179.465,174.882 Z M184.251,179.009 C186.015,179.66 187.457,180.827 188.133,181.793 C189.252,183.412 189.414,184.923 189.446,187.846 L189.446,194.42 L181.49,194.42 L181.49,190.271 C181.49,188.276 181.682,185.322 180.209,183.78 C179.051,182.592 177.286,182.308 174.395,182.308 L165.926,182.308 L165.926,194.42 L157.963,194.42 L157.963,161.258 L176.259,161.258 C180.271,161.258 183.193,161.435 185.794,162.823 C188.295,164.334 189.868,166.404 189.868,170.187 C189.867,175.48 186.337,178.181 184.251,179.009 L184.251,179.009 Z M194.262,161.258 L220.711,161.258 L220.711,168.116 L202.154,168.116 L202.154,174.145 L220.258,174.145 L220.258,180.911 L202.154,180.911 L202.154,187.509 L220.711,187.539 L220.711,194.42 L194.262,194.42 L194.262,161.258 L194.262,161.258 Z M140.795,176.562 L130.554,176.562 L130.554,168.117 L140.887,168.117 C143.748,168.117 145.734,169.283 145.734,172.183 C145.734,175.051 143.84,176.562 140.795,176.562 L140.795,176.562 Z M122.661,191.404 L110.494,177.896 L122.661,164.817 L122.661,191.404 L122.661,191.404 Z M91.24,187.509 L71.756,187.509 L71.756,180.911 L89.154,180.911 L89.154,174.145 L71.756,174.145 L71.756,168.116 L91.624,168.116 L100.292,177.78 L91.24,187.509 L91.24,187.509 Z M154.242,172.183 C154.242,181.395 147.369,183.297 140.442,183.297 L130.554,183.297 L130.554,194.42 L115.151,194.42 L105.393,183.442 L95.252,194.42 L63.862,194.42 L63.862,161.258 L95.735,161.258 L105.485,172.128 L115.565,161.258 L140.887,161.258 C147.176,161.258 154.242,162.999 154.242,172.183 L154.242,172.183 Z" id="Shape" fill="#FFFFFF"></path>
            </g>
        </g>
    </g>
</svg>