<?xml version="1.0" encoding="UTF-8" standalone="no"?>
<svg width="124px" height="78px" viewBox="0 0 124 78" version="1.1" xmlns="http://www.w3.org/2000/svg" xmlns:xlink="http://www.w3.org/1999/xlink" xmlns:sketch="http://www.bohemiancoding.com/sketch/ns">
    <!-- Generator: Sketch Beta 3.4.1 (15680) - http://www.bohemiancoding.com/sketch -->
    <title>diners</title>
    <desc>Created with Sketch Beta.</desc>
    <defs></defs>
    <g id="Page-1" stroke="none" stroke-width="1" fill="none" fill-rule="evenodd" sketch:type="MSPage">
        <g id="diners" sketch:type="MSLayerGroup" transform="translate(-0.476156, 0.500000)">
            <g id="Shape" transform="translate(21.000000, 0.000000)" sketch:type="MSShapeGroup">
                <path d="M58.8827461,0.0751734104 C72.5972326,0.0751734104 82.052128,11.727052 82.052128,25.1886609 C82.052128,38.6920328 72.1363588,50.1629383 58.8827461,50.1768593 L26.1607075,50.1768593 C13.2562416,50.1768593 0.868512946,38.6920328 0.854547074,25.1747399 C0.868512946,11.9637091 13.2562416,0.0751734104 26.1607075,0.0751734104 L58.8827461,0.0751734104" fill="#1B458E"></path>
                <path d="M58.8827461,0.0751734104 C72.5972326,0.0751734104 82.052128,11.727052 82.052128,25.1886609 C82.052128,38.6920328 72.1363588,50.1629383 58.8827461,50.1768593 L26.1607075,50.1768593 C13.2562416,50.1768593 0.868512946,38.6920328 0.854547074,25.1747399 C0.868512946,11.9637091 13.2562416,0.0751734104 26.1607075,0.0751734104 L58.8827461,0.0751734104 L58.8827461,0.0751734104 L58.8827461,0.0751734104 Z"></path>
                <path d="M50.6009838,25.1329769 C50.6009838,37.7314836 38.5903338,49.4668882 26.1607075,49.4668882 C13.5076273,49.4251252 1.5947383,37.6757996 1.58077243,25.1886609 C1.5947383,12.8268112 13.5076273,0.729460501 26.1607075,0.715539499 C38.5903338,0.729460501 50.6009838,12.4927071 50.6009838,25.1329769" fill="#EEEEEE"></path>
                <path d="M50.6009838,25.1329769 C50.6009838,37.7314836 38.5903338,49.4668882 26.1607075,49.4668882 C13.5076273,49.4251252 1.5947383,37.6757996 1.58077243,25.1886609 C1.5947383,12.8268112 13.5076273,0.729460501 26.1607075,0.715539499 C38.5903338,0.729460501 50.6009838,12.4927071 50.6009838,25.1329769 L50.6009838,25.1329769 L50.6009838,25.1329769 Z"></path>
                <path d="M41.0902249,25.1190559 C41.1041908,32.1073988 36.0625109,38.2883237 30.9789334,39.2906358 L30.9789334,10.9057129 C36.0625109,12.2699711 41.1041908,18.0054239 41.0902249,25.1190559" fill="#1B458E"></path>
                <path d="M41.0902249,25.1190559 C41.1041908,32.1073988 36.0625109,38.2883237 30.9789334,39.2906358 L30.9789334,10.9057129 C36.0625109,12.2699711 41.1041908,18.0054239 41.0902249,25.1190559 L41.0902249,25.1190559 L41.0902249,25.1190559 Z"></path>
                <path d="M11.133429,25.1051349 C11.1194631,18.1167919 16.161143,11.9358671 21.2447205,10.9335549 L21.2447205,39.3323988 C16.161143,37.9542197 11.1194631,32.2187669 11.133429,25.1051349" fill="#1B458E"></path>
                <path d="M11.133429,25.1051349 C11.1194631,18.1167919 16.161143,11.9358671 21.2447205,10.9335549 L21.2447205,39.3323988 C16.161143,37.9542197 11.1194631,32.2187669 11.133429,25.1051349 L11.133429,25.1051349 L11.133429,25.1051349 Z"></path>
            </g>
            <path d="M0.665448131,75.7627426 C2.84737565,75.6512572 3.10219931,74.2656536 3.30924352,73.5171092 L7.02011296,60.2344263 C7.13159831,59.8521908 7.2112307,59.5336612 7.2112307,59.2310581 C7.2112307,58.4347342 6.63787748,57.9728664 4.63114122,57.9728664 L4.75855305,57.526925 L13.1199541,57.526925 C17.1015737,57.526925 21.2583845,59.8999702 21.2583845,65.187561 C21.2583845,70.8096078 16.1300585,76.2246105 9.186114,76.2246105 L0.522109827,76.2246105 L0.665448131,75.7627426 L0.665448131,75.7627426 L0.665448131,75.7627426 Z M6.09637722,73.5330356 C6.01674483,73.8037858 5.98489187,74.0267565 5.98489187,74.2178742 C5.98489187,75.0619775 6.59009805,75.3327277 7.81643687,75.3327277 L8.91536387,75.3327277 C14.8400138,75.3327277 18.1208683,70.2681076 18.1208683,64.7575461 C18.1208683,60.7440736 16.2574704,58.4188078 12.084733,58.4188078 C10.3965264,58.4188078 10.1417027,58.960308 9.63205539,60.8555589 L6.09637722,73.5330356 L6.09637722,73.5330356 L6.09637722,73.5330356 Z M27.4219316,73.1985796 C26.2911517,74.6319626 24.7622097,76.4953606 22.8510324,76.4953606 C21.8635907,76.4953606 21.5291347,75.6671837 21.5291347,75.0141981 C21.5291347,74.711595 21.5769141,74.2656536 21.6883994,73.8515652 L23.9181064,65.952032 C24.0295917,65.585723 24.1251506,65.3627523 24.1251506,65.1716345 C24.1251506,64.6938402 23.7747681,64.4071636 22.2617527,64.4071636 L22.405091,63.9452957 C24.8259157,63.7063985 26.4663429,63.2126777 26.7211666,63.2126777 C26.9122843,63.2126777 27.0237697,63.2604572 27.0237697,63.4037955 C27.0237697,63.4993543 26.9122843,63.8338104 26.8804314,63.9452957 L24.0932977,73.278212 C24.0614447,73.4215503 23.9181064,74.01083 23.9181064,74.2975066 C23.9181064,74.711595 24.0614447,74.9664187 24.4914596,74.9664187 C25.1922247,74.9664187 26.2911517,73.7082269 26.9919167,72.8163441 L27.4219316,73.1985796 L27.4219316,73.1985796 L27.4219316,73.1985796 Z M28.0430643,59.3903229 C28.0430643,60.1707204 27.3582257,60.8714854 26.5619018,60.8714854 C25.7815044,60.8714854 25.1285187,60.2025733 25.1285187,59.4062494 C25.1285187,58.625852 25.8452103,57.9887928 26.5937547,57.9887928 C27.3582257,57.9887928 28.0430643,58.593999 28.0430643,59.3903229 L28.0430643,59.3903229 L28.0430643,59.3903229 Z M29.8109034,66.0635173 C29.8905357,65.8086937 29.9542417,65.5697965 29.9542417,65.3308993 C29.9542417,64.4390165 29.2534766,64.4071636 28.0589907,64.4071636 L28.2023291,63.9452957 C29.4445944,63.8338104 30.463889,63.6586191 31.196507,63.4993543 C31.9609779,63.3241631 32.4387723,63.2126777 32.5502576,63.2126777 C32.7413754,63.2126777 32.8528607,63.2604572 32.8528607,63.4037955 C32.8528607,63.5152808 32.661743,63.9930752 32.5821106,64.3116047 L31.2442864,69.0099158 L31.3079923,69.0576952 C32.0406103,67.9109888 33.1076844,66.4776058 34.3818026,65.3627523 C35.7355533,64.1841929 37.2485687,63.2126777 38.490834,63.2126777 C39.7330993,63.2126777 40.2108937,63.7382515 40.2108937,64.9486638 C40.2108937,65.6653554 39.5101286,68.1021065 39.3190109,68.8028716 L38.0767456,73.278212 C37.9334073,73.7878593 37.9015543,74.0426829 37.9015543,74.2975066 C37.9015543,74.6001097 38.0448926,74.9664187 38.3793487,74.9664187 C39.0641872,74.9664187 40.0197759,73.5967415 40.6727615,72.5615205 L41.1187029,72.9756089 C40.1312613,74.4886243 38.7775106,76.4953606 36.8663332,76.4953606 C35.8788916,76.4953606 35.5125826,75.6671837 35.5125826,75.0141981 C35.5125826,74.711595 35.592215,74.2656536 35.7037003,73.8515652 L37.2007893,68.3887832 C37.3441276,67.8791358 37.8378484,66.0157379 37.8378484,65.5060906 C37.8378484,64.9805168 37.3441276,64.7575461 37.0893039,64.7575461 C35.6718474,64.7575461 33.1395373,67.3217091 31.6424484,69.949578 C31.0213157,71.048505 30.1453594,72.8641235 29.2853296,76.2246105 L26.8167254,76.2246105 L29.8109034,66.0635173 L29.8109034,66.0635173 L29.8109034,66.0635173 Z M51.0408989,73.3737709 C49.5438099,75.109757 47.4574413,76.4953606 45.0684695,76.4953606 C42.2654094,76.4953606 41.1187029,74.5364038 41.1187029,72.0200202 C41.1187029,67.9906212 45.1958814,63.2126777 49.3845451,63.2126777 C50.7860752,63.2126777 52.1079729,63.6267662 52.1079729,65.2512669 C52.1079729,68.6913862 46.5337055,70.1566222 43.8262042,70.4910783 C43.6828659,71.080358 43.651013,71.7174171 43.651013,72.3704027 C43.651013,74.0745359 44.4473369,75.2371688 46.2470289,75.2371688 C47.9670886,75.2371688 49.4641775,74.0745359 50.6427369,72.9756089 L51.0408989,73.3737709 L51.0408989,73.3737709 L51.0408989,73.3737709 Z M43.9536161,69.7903132 C46.4699996,69.4877102 49.8623395,67.9109888 49.8623395,64.9964433 C49.8623395,64.2478988 49.4641775,63.9134428 48.7634125,63.9134428 C46.5018526,63.9134428 44.3039986,67.8632094 43.9536161,69.7903132 L43.9536161,69.7903132 L43.9536161,69.7903132 Z M54.2261945,67.2420767 C54.3536064,66.7165029 54.4969447,66.0635173 54.4969447,65.5379435 C54.4969447,64.4071636 53.6846943,64.4071636 52.6972526,64.4071636 L52.8405909,63.9452957 C54.1943416,63.8338104 55.5162393,63.5789867 56.838137,63.2923101 C56.9814753,63.2604572 57.1248136,63.2126777 57.204446,63.2126777 C57.3477843,63.2126777 57.3796372,63.3241631 57.3796372,63.4675014 C57.3796372,63.6586191 57.1248136,64.6938402 57.0451812,64.9964433 L55.8506953,68.9780628 L55.9144012,68.9780628 C56.9814753,67.0668855 59.2430352,63.2126777 61.0745802,63.2126777 C61.7116393,63.2126777 62.0301689,63.7382515 62.0301689,64.3275312 C62.0301689,65.3946052 61.5523745,66.318341 60.7082712,66.318341 C60.1667709,66.318341 59.7208295,65.7609142 59.3863735,65.3946052 C56.806284,67.7995035 55.2136362,71.7174171 54.3058269,75.0460511 L53.9713709,76.2246105 L51.7416639,76.2246105 L54.2261945,67.2420767 L54.2261945,67.2420767 L54.2261945,67.2420767 Z M69.4678342,67.417268 L68.9900399,67.417268 C68.926334,65.8086937 68.1777895,63.9134428 66.2825386,63.9134428 C65.3269499,63.9134428 64.5146995,64.4071636 64.5146995,65.4742376 C64.5146995,66.5413117 65.4702882,67.5765328 66.3940239,68.7232392 C67.3177597,69.8380927 68.2574219,71.080358 68.2574219,72.5615205 C68.2574219,75.1575364 66.0914208,76.4953606 63.8617139,76.4953606 C62.4283308,76.4953606 60.9790213,75.9697868 60.7241977,75.9697868 C60.469374,75.9697868 60.2464033,76.2246105 60.2304768,76.4953606 L59.7526825,76.4953606 L60.2782563,71.9085348 L60.7560506,71.9085348 C60.9312419,73.7082269 61.5205216,75.810522 63.7183756,75.810522 C65.2950969,75.810522 65.995862,74.8230804 65.995862,73.6285945 C65.995862,72.3385498 65.4862147,71.7174171 64.2280229,70.1247693 C63.3202136,68.9780628 62.2531396,67.7676505 62.2531396,66.318341 C62.2531396,64.3912371 64.1483905,63.2126777 65.9480825,63.2126777 C66.5692152,63.2126777 67.1584949,63.356016 67.6362892,63.4993543 C68.1459365,63.6586191 68.5440985,63.8019574 68.7989222,63.8019574 C69.1015252,63.8019574 69.4359813,63.6267662 69.5315402,63.3241631 C69.5315402,63.2923101 69.5474666,63.2445307 69.6111725,63.2126777 L70.0889669,63.2126777 L69.4678342,67.417268 L69.4678342,67.417268 L69.4678342,67.417268 Z M92.0993599,62.7189569 L91.637492,62.7189569 L91.637492,62.0659713 C91.637492,59.5495877 90.506712,58.0365723 87.3214164,58.0365723 C82.0975315,58.0365723 78.3229562,64.486796 78.3229562,69.1214012 C78.3229562,72.513741 80.0748688,75.3805071 83.8812971,75.3805071 C86.5728719,75.3805071 88.7866524,73.978977 90.5704179,72.0837261 L91.0800652,72.4818881 C88.9459172,75.0301246 86.3339747,76.6068459 82.9416349,76.6068459 C78.3866621,76.6068459 75.1854399,73.5967415 75.1854399,69.0417688 C75.1854399,62.6711775 81.1419428,57.1446895 87.4806812,57.1446895 C88.5955346,57.1446895 89.4714909,57.3358072 90.1563295,57.5428515 C90.8411681,57.7339692 91.3348889,57.9250869 91.6534185,57.9250869 C92.2904776,57.9250869 92.4975218,57.7976751 92.7523455,57.2721013 L93.2142133,57.2721013 L92.0993599,62.7189569 L92.0993599,62.7189569 L92.0993599,62.7189569 Z M97.4825095,73.278212 C96.4632149,74.5204773 94.9183465,76.4953606 93.1345809,76.4953606 C92.2108452,76.4953606 91.7808303,75.9697868 91.7808303,75.0460511 C91.7808303,74.6001097 91.8126832,74.0426829 92.0993599,73.1189472 L95.6987439,60.0433085 C95.8739352,59.4381024 96.0650529,58.4506607 96.0650529,58.1799106 C96.0650529,57.6224838 95.9057882,57.4472926 94.2653609,57.3995131 L94.3449933,56.9217188 C95.5713321,56.8580129 96.7498915,56.6668951 97.4506566,56.4917039 C97.9921568,56.3483656 98.4699512,56.2209538 98.7247748,56.2209538 C98.9477455,56.2209538 99.0273779,56.3483656 99.0273779,56.5554098 C99.0273779,56.6350422 98.9477455,56.9217188 98.8362602,57.3039543 L94.4564786,72.7207852 C94.2972139,73.278212 94.1857285,73.6285945 94.1857285,74.1860212 C94.1857285,74.7753009 94.4405522,74.9664187 94.8068612,74.9664187 C95.3961409,74.9664187 96.6861856,73.3419179 97.0365681,72.8959765 L97.4825095,73.278212 L97.4825095,73.278212 L97.4825095,73.278212 Z M108.328441,73.278212 C108.232882,73.6285945 108.15325,74.0426829 108.15325,74.2975066 C108.15325,74.5682567 108.296588,74.9664187 108.74253,74.9664187 C109.443295,74.9664187 110.494442,73.7082269 111.195207,72.8163441 L111.625222,73.1985796 C110.542222,74.6319626 109.029206,76.4953606 107.102102,76.4953606 C106.114661,76.4953606 105.748352,75.6671837 105.748352,75.0141981 C105.748352,74.711595 105.843911,74.2656536 105.955396,73.8515652 L107.102102,69.9017986 L107.054323,69.9017986 C105.748352,72.0837261 102.674541,76.4953606 99.8077753,76.4953606 C98.6292159,76.4953606 98.0080833,75.7149632 98.0080833,74.6001097 C98.0080833,74.2019477 98.0558627,73.5967415 98.2629069,72.8163441 L99.9988931,66.318341 C100.094452,65.9838849 100.28557,65.3946052 100.28557,65.1716345 C100.28557,64.6460608 99.9511136,64.4390165 98.3743923,64.4071636 L98.5018041,63.9452957 C100.986335,63.7063985 102.626762,63.2126777 102.881586,63.2126777 C103.072703,63.2126777 103.184189,63.2604572 103.184189,63.4037955 C103.184189,63.5471338 102.961218,64.2797518 102.881586,64.5505019 L100.651879,72.8641235 C100.588173,73.0870942 100.397055,73.8197122 100.397055,74.1541683 C100.397055,74.4408449 100.50854,74.9664187 101.209305,74.9664187 C103.757542,74.9664187 107.643603,68.6754598 108.774383,63.4993543 L111.020016,63.4993543 L108.328441,73.278212 L108.328441,73.278212 L108.328441,73.278212 Z M115.399798,59.1195728 C115.447577,58.8806756 115.47943,58.6736314 115.47943,58.5143666 C115.47943,57.6702633 114.778665,57.5906309 113.791223,57.3995131 L113.870856,56.9217188 C115.224606,56.8261599 116.785401,56.6668951 117.74099,56.3483656 C117.900255,56.3005861 118.075446,56.2209538 118.186931,56.2209538 C118.33027,56.2209538 118.441755,56.2687332 118.441755,56.4917039 C118.441755,56.6350422 118.298417,57.0809836 118.266564,57.2561748 L115.909445,65.8723996 L115.877592,65.8723996 L115.925371,65.8723996 C117.167637,64.1841929 118.473608,63.2126777 120.607756,63.2126777 C123.12414,63.2126777 124.47789,65.0282962 124.47789,67.385415 C124.47789,72.0837261 119.906991,76.4953606 115.20868,76.4953606 C113.456767,76.4953606 111.450031,76.0016398 111.450031,74.9345657 C111.450031,74.7753009 111.529663,74.4567714 111.641149,74.0426829 L115.399798,59.1195728 L115.399798,59.1195728 L115.399798,59.1195728 Z M113.647885,74.4408449 C113.616032,74.5682567 113.568253,74.7753009 113.568253,74.9027128 C113.568253,75.6353308 115.367945,75.810522 115.702401,75.810522 C119.206226,75.810522 121.929654,71.1281374 121.929654,67.7676505 C121.929654,66.0635173 121.324447,64.4708695 119.365491,64.4708695 C117.645431,64.4708695 115.654621,66.3979734 115.081268,68.6754598 L113.647885,74.4408449 L113.647885,74.4408449 L113.647885,74.4408449 Z" id="Shape" fill="#000000" sketch:type="MSShapeGroup"></path>
        </g>
    </g>
</svg>