<?xml version="1.0" encoding="UTF-8" standalone="no"?>
<svg width="160px" height="100px" viewBox="0 0 160 100" version="1.1" xmlns="http://www.w3.org/2000/svg" xmlns:xlink="http://www.w3.org/1999/xlink" xmlns:sketch="http://www.bohemiancoding.com/sketch/ns">
    <!-- Generator: Sketch 3.3.3 (12081) - http://www.bohemiancoding.com/sketch -->
    <title>EPS_white</title>
    <desc>Created with Sketch.</desc>
    <defs></defs>
    <g id="WhiteBG" stroke="none" stroke-width="1" fill="none" fill-rule="evenodd" sketch:type="MSPage">
        <g id="EPS" sketch:type="MSArtboardGroup" transform="translate(-20.000000, -50.000000)">
            <g id="EPS_white" sketch:type="MSLayerGroup" transform="translate(20.000000, 50.000000)">
                <rect id="Rectangle-1" fill-opacity="0.01" fill="#EDEDED" sketch:type="MSShapeGroup" x="0" y="0" width="160" height="100" rx="10"></rect>
                <g id="Group-Copy" transform="translate(80.000000, 50.000000) scale(1, -1) translate(-80.000000, -50.000000) translate(24.225352, 6.000000)" sketch:type="MSShapeGroup">
                    <path d="M52.6204954,81.7771734 L48.5944633,75.6740165 L56.6208839,75.6547839 C61.0315687,75.648373 64.6537154,75.6547839 64.6665372,75.6676056 C64.6921807,75.6932492 64.1216124,76.5651287 61.0315687,81.2514813 C60.5571637,81.9759106 59.3775619,83.7645459 58.4095192,85.2262263 C57.4478873,86.6879068 56.6529383,87.8867411 56.6465274,87.8867411 C56.6465274,87.8867411 54.8322487,85.136474 52.6204954,81.7771734 L52.6204954,81.7771734 Z" id="Shape" fill="#3C2181"></path>
                    <path d="M26.5802169,66.8141816 C23.6889105,66.6667314 20.9514651,65.6217581 18.6627813,63.7946576 C15.5919702,61.3457018 13.7969241,58.0248664 13.3032864,53.8834386 C13.1814797,52.8641088 13.1686579,50.6651773 13.2776429,49.5817387 C13.5853651,46.4596406 14.5726404,43.8568237 16.2010037,41.8502186 C16.7331067,41.1963089 17.9255302,40.0808159 18.5986725,39.5935891 C20.2655011,38.4075765 22.6054719,37.5613405 25.1057147,37.2343856 C26.0673466,37.106168 29.2150882,37.1254007 30.4267444,37.26644 C33.4847337,37.6190384 35.7798284,38.4139874 37.5941072,39.7474502 L38.0300469,40.0679942 L37.4594787,41.1706654 C37.1453456,41.7796989 36.5491339,42.940068 36.1260159,43.7606605 C35.5490367,44.8889752 35.3374777,45.2543953 35.2349037,45.2672171 C35.1579731,45.2800389 34.9784685,45.1838757 34.7540877,44.9915493 C33.6578274,44.0683827 32.3371863,43.4785818 30.7152339,43.1965032 C29.7664238,43.0298203 28.0867735,42.9657115 27.1379634,43.0682856 C23.9325239,43.4016513 21.6630727,45.1005342 20.8232475,47.7866926 C20.6757973,48.2610976 20.4578274,49.3573579 20.4578274,49.6266149 C20.4578274,49.7355998 20.8232475,49.7420107 30.5164967,49.7420107 C36.0554962,49.7420107 40.5943986,49.7612433 40.6136312,49.7932977 C40.6585074,49.8702283 40.9598187,51.3319087 41.0752145,52.0819815 C41.2034321,52.8961632 41.2162538,54.5758135 41.1072689,55.4797475 C40.8059576,57.8774162 39.9789542,59.9930063 38.6839566,61.6790675 C36.2478226,64.8524526 32.9718634,66.5128703 28.593233,66.7885381 C27.5803141,66.8590578 27.4136312,66.8590578 26.5802169,66.8141816 L26.5802169,66.8141816 Z M28.5419459,60.8969403 C31.2729804,60.6212725 33.042383,59.2557552 33.8116885,56.8196212 C33.9527279,56.3772705 34.1771086,55.3643516 34.1771086,55.184847 C34.1771086,55.1527926 31.3370892,55.1271491 27.4520965,55.1271491 L20.7270843,55.1271491 L20.906589,55.7233609 C21.3681723,57.3004371 22.0092602,58.4223409 22.9324267,59.3006314 C23.9453456,60.2494415 25.0544277,60.7110248 26.8366521,60.9225838 C27.2533592,60.9674599 27.9136798,60.9610491 28.5419459,60.8969403 L28.5419459,60.8969403 Z" id="Shape-Copy" fill="#A7A8A8"></path>
                    <path d="M25.5473531,66.8141816 C22.6560466,66.6667314 19.9186013,65.6217581 17.6299174,63.7946576 C14.5591064,61.3457018 12.7640602,58.0248664 12.2704225,53.8834386 C12.1486158,52.8641088 12.1357941,50.6651773 12.244779,49.5817387 C12.5525012,46.4596406 13.5397766,43.8568237 15.1681399,41.8502186 C15.7002428,41.1963089 16.8926663,40.0808159 17.5658086,39.5935891 C19.2326372,38.4075765 21.5726081,37.5613405 24.0728509,37.2343856 C25.0344828,37.106168 28.1822244,37.1254007 29.3938805,37.26644 C32.4518698,37.6190384 34.7469645,38.4139874 36.5612433,39.7474502 L36.9971831,40.0679942 L36.4266149,41.1706654 C36.1124818,41.7796989 35.51627,42.940068 35.093152,43.7606605 C34.5161729,44.8889752 34.3046139,45.2543953 34.2020398,45.2672171 C34.1251093,45.2800389 33.9456047,45.1838757 33.7212239,44.9915493 C32.6249636,44.0683827 31.3043225,43.4785818 29.6823701,43.1965032 C28.73356,43.0298203 27.0539097,42.9657115 26.1050996,43.0682856 C22.89966,43.4016513 20.6302088,45.1005342 19.7903837,47.7866926 C19.6429335,48.2610976 19.4249636,49.3573579 19.4249636,49.6266149 C19.4249636,49.7355998 19.7903837,49.7420107 29.4836328,49.7420107 C35.0226323,49.7420107 39.5615347,49.7612433 39.5807674,49.7932977 C39.6256435,49.8702283 39.9269548,51.3319087 40.0423507,52.0819815 C40.1705682,52.8961632 40.18339,54.5758135 40.0744051,55.4797475 C39.7730937,57.8774162 38.9460903,59.9930063 37.6510928,61.6790675 C35.2149587,64.8524526 31.9389995,66.5128703 27.5603691,66.7885381 C26.5474502,66.8590578 26.3807674,66.8590578 25.5473531,66.8141816 L25.5473531,66.8141816 Z M27.5090821,60.8969403 C30.2401166,60.6212725 32.0095192,59.2557552 32.7788247,56.8196212 C32.919864,56.3772705 33.1442448,55.3643516 33.1442448,55.184847 C33.1442448,55.1527926 30.3042254,55.1271491 26.4192326,55.1271491 L19.6942205,55.1271491 L19.8737251,55.7233609 C20.3353084,57.3004371 20.9763963,58.4223409 21.8995629,59.3006314 C22.9124818,60.2494415 24.0215639,60.7110248 25.8037882,60.9225838 C26.2204954,60.9674599 26.8808159,60.9610491 27.5090821,60.8969403 L27.5090821,60.8969403 Z" id="Shape" fill="#D00A7E"></path>
                    <path d="M58.9807997,66.7885381 C58.2114943,66.7180185 57.0767687,66.4295289 56.3395176,66.1218067 C55.7176623,65.8589607 54.8393719,65.3268577 54.3649668,64.9293832 L54.0508337,64.6665372 L54.0508337,65.3973774 C54.0508337,65.8781933 54.0251902,66.1538611 53.9739032,66.2051481 C53.8649182,66.3141331 47.248891,66.3141331 47.1399061,66.2051481 C47.0822082,66.1474502 47.0629756,61.6662458 47.0629756,46.440408 C47.0629756,27.4449733 47.0693864,26.7461875 47.1783714,26.6436134 C47.2873563,26.5474502 47.6143112,26.5346285 50.5697264,26.5346285 C53.6533592,26.5346285 53.8456856,26.5410393 53.9418488,26.6500243 C54.0444229,26.7590092 54.0508337,27.2590578 54.0508337,32.4839242 C54.0508337,35.6316659 54.0572446,38.2024284 54.0700664,38.2024284 C54.0828881,38.2024284 54.3970212,38.0870325 54.7752631,37.9459932 C55.5573903,37.6510928 56.474146,37.4138902 57.480654,37.2600291 C58.4422859,37.106168 60.9232961,37.106168 62.0644326,37.26644 C66.8341266,37.9139388 70.3216448,40.3180185 72.1936215,44.2350656 C73.3668124,46.6968431 73.8604501,50.0112676 73.6040149,53.7167557 C73.1873078,59.6788732 70.9883762,63.5574551 66.9367007,65.467897 C65.2698721,66.2564352 63.5197021,66.6603205 61.1861421,66.794949 C59.9808969,66.8654687 59.8526793,66.8654687 58.9807997,66.7885381 L58.9807997,66.7885381 Z M59.9167881,60.7623118 C62.2118828,60.5315202 63.9812854,59.6852841 64.9108629,58.3774648 C65.8853165,56.9991258 66.334078,55.2681884 66.4045977,52.5563866 C66.545637,47.2994658 65.0454913,44.478679 61.5836166,43.4914036 C60.6604501,43.2285576 59.9360207,43.1323944 58.6025579,43.0939291 C57.5191193,43.0682856 57.269095,43.0811073 56.7434029,43.1900923 C55.9163995,43.363186 55.1663267,43.6644973 54.5765258,44.0619718 L54.0828881,44.3889267 L54.0636555,51.7742593 L54.0508337,59.1660029 L54.5765258,59.5891209 C55.1727376,60.0571151 56.051028,60.5122875 56.6792942,60.6725595 C57.5062976,60.8905294 58.4230533,60.9161729 59.9167881,60.7623118 L59.9167881,60.7623118 Z" id="Shape" fill="#A7A8A8"></path>
                    <path d="M57.9479359,66.7885381 C57.1786304,66.7180185 56.0439048,66.4295289 55.3066537,66.1218067 C54.6847984,65.8589607 53.806508,65.3268577 53.332103,64.9293832 L53.0179699,64.6665372 L53.0179699,65.3973774 C53.0179699,65.8781933 52.9923264,66.1538611 52.9410393,66.2051481 C52.8320544,66.3141331 46.2160272,66.3141331 46.1070423,66.2051481 C46.0493443,66.1474502 46.0301117,61.6662458 46.0301117,46.440408 C46.0301117,27.4449733 46.0365226,26.7461875 46.1455075,26.6436134 C46.2544925,26.5474502 46.5814473,26.5346285 49.5368626,26.5346285 C52.6204954,26.5346285 52.8128218,26.5410393 52.9089849,26.6500243 C53.011559,26.7590092 53.0179699,27.2590578 53.0179699,32.4839242 C53.0179699,35.6316659 53.0243808,38.2024284 53.0372025,38.2024284 C53.0500243,38.2024284 53.3641574,38.0870325 53.7423992,37.9459932 C54.5245265,37.6510928 55.4412822,37.4138902 56.4477902,37.2600291 C57.409422,37.106168 59.8904322,37.106168 61.0315687,37.26644 C65.8012627,37.9139388 69.288781,40.3180185 71.1607576,44.2350656 C72.3339485,46.6968431 72.8275862,50.0112676 72.571151,53.7167557 C72.1544439,59.6788732 69.9555124,63.5574551 65.9038368,65.467897 C64.2370083,66.2564352 62.4868383,66.6603205 60.1532783,66.794949 C58.948033,66.8654687 58.8198154,66.8654687 57.9479359,66.7885381 L57.9479359,66.7885381 Z M58.8839242,60.7623118 C61.1790189,60.5315202 62.9484216,59.6852841 63.877999,58.3774648 C64.8524526,56.9991258 65.3012142,55.2681884 65.3717339,52.5563866 C65.5127732,47.2994658 64.0126275,44.478679 60.5507528,43.4914036 C59.6275862,43.2285576 58.9031569,43.1323944 57.569694,43.0939291 C56.4862555,43.0682856 56.2362312,43.0811073 55.7105391,43.1900923 C54.8835357,43.363186 54.1334628,43.6644973 53.543662,44.0619718 L53.0500243,44.3889267 L53.0307916,51.7742593 L53.0179699,59.1660029 L53.543662,59.5891209 C54.1398737,60.0571151 55.0181642,60.5122875 55.6464303,60.6725595 C56.4734337,60.8905294 57.3901894,60.9161729 58.8839242,60.7623118 L58.8839242,60.7623118 Z" id="Shape-Copy-2" fill="#D00A7E"></path>
                    <path d="M87.6310183,66.794949 C84.3422373,66.5513356 81.5535049,65.2499271 80.0341266,63.243322 C78.6237332,61.3777562 78.3031893,58.3454104 79.2648211,56.0246722 C79.7071718,54.9476445 80.2841509,54.1526955 81.3419459,53.1397766 C82.5279586,52.005051 83.9319411,51.158815 86.3296098,50.1266634 C87.8618099,49.4663429 89.1439858,48.8188441 89.8684151,48.3380282 C91.2082888,47.4533269 91.7468027,46.491695 91.6698721,45.113356 C91.6121742,43.9529869 90.9967298,43.2670228 89.6889105,42.9016027 C89.0926987,42.7349199 87.0348065,42.7349199 86.1372835,42.9080136 C84.7140683,43.1708596 83.1049377,43.8568237 81.9445686,44.6838271 C81.5470941,44.9723167 81.393233,45.0492472 81.2906589,45.0107819 C81.1944957,44.9723167 80.8483082,44.2607091 79.957196,42.2733366 L78.7519508,39.5807674 L79.2391776,39.3115104 C80.4059576,38.6640117 82.3356322,37.84983 83.3806055,37.5741622 C84.6307269,37.2407965 86.5219362,37.0741136 88.4451999,37.1318116 C90.8877449,37.2087421 92.5866278,37.5741622 94.2790999,38.3947547 C97.3370892,39.8692569 98.9269872,42.407965 98.9269872,45.7864983 C98.9269872,48.0110733 98.2025579,49.9471588 96.8113971,51.4344828 C95.6574389,52.6653715 94.0739518,53.6141816 91.304452,54.7424964 C88.4003238,55.9156872 87.2720091,56.5183099 86.5796341,57.255561 C86.0090659,57.8517727 85.8552048,58.3389995 85.9706006,59.1018941 C86.1372835,60.1661 86.6886191,60.7430792 87.8425773,61.070034 C88.387502,61.2174842 90.3364093,61.2238951 91.2339323,61.070034 C92.6956128,60.8200097 93.8880363,60.3391938 94.8689008,59.6019427 C95.3368949,59.2557552 95.2984297,59.1980573 96.3690465,62.0573094 C96.8947385,63.4484701 97.3178566,64.6280719 97.3242674,64.6857698 C97.3242674,64.884507 95.4138255,65.7050996 93.9649668,66.1282176 C92.0737575,66.6795532 89.5991582,66.9359883 87.6310183,66.794949 L87.6310183,66.794949 Z" id="Shape-Copy-3" fill="#A7A8A8"></path>
                    <path d="M86.5981544,66.794949 C83.3093735,66.5513356 80.5206411,65.2499271 79.0012627,63.243322 C77.5908694,61.3777562 77.2703254,58.3454104 78.2319573,56.0246722 C78.6743079,54.9476445 79.251287,54.1526955 80.3090821,53.1397766 C81.4950947,52.005051 82.8990772,51.158815 85.296746,50.1266634 C86.8289461,49.4663429 88.1111219,48.8188441 88.8355512,48.3380282 C90.175425,47.4533269 90.7139388,46.491695 90.6370083,45.113356 C90.5793103,43.9529869 89.963866,43.2670228 88.6560466,42.9016027 C88.0598349,42.7349199 86.0019427,42.7349199 85.1044196,42.9080136 C83.6812045,43.1708596 82.0720738,43.8568237 80.9117047,44.6838271 C80.5142302,44.9723167 80.3603691,45.0492472 80.257795,45.0107819 C80.1616319,44.9723167 79.8154444,44.2607091 78.9243322,42.2733366 L77.7190869,39.5807674 L78.2063137,39.3115104 C79.3730937,38.6640117 81.3027683,37.84983 82.3477416,37.5741622 C83.597863,37.2407965 85.4890724,37.0741136 87.4123361,37.1318116 C89.854881,37.2087421 91.553764,37.5741622 93.246236,38.3947547 C96.3042254,39.8692569 97.8941234,42.407965 97.8941234,45.7864983 C97.8941234,48.0110733 97.169694,49.9471588 95.7785333,51.4344828 C94.624575,52.6653715 93.0410879,53.6141816 90.2715881,54.7424964 C87.3674599,55.9156872 86.2391452,56.5183099 85.5467703,57.255561 C84.976202,57.8517727 84.8223409,58.3389995 84.9377368,59.1018941 C85.1044196,60.1661 85.6557552,60.7430792 86.8097135,61.070034 C87.3546382,61.2174842 89.3035454,61.2238951 90.2010685,61.070034 C91.6627489,60.8200097 92.8551724,60.3391938 93.8360369,59.6019427 C94.3040311,59.2557552 94.2655658,59.1980573 95.3361826,62.0573094 C95.8618747,63.4484701 96.2849927,64.6280719 96.2914036,64.6857698 C96.2914036,64.884507 94.3809616,65.7050996 92.932103,66.1282176 C91.0408936,66.6795532 88.5662943,66.9359883 86.5981544,66.794949 L86.5981544,66.794949 Z" id="Shape" fill="#D00A7E"></path>
                    <path d="M84.4184556,19.3159786 C84.0979116,19.1492958 84.0466246,18.9441476 84.0466246,17.9119961 L84.0466246,16.9824186 L83.7773677,17.1170471 C83.3991258,17.3157844 82.6426421,17.3542496 82.2002914,17.2132103 C81.2322487,16.8926663 80.6424478,15.9118018 80.6232152,14.6103934 C80.6168043,13.6295289 80.9629917,12.8538125 81.6617776,12.3217096 C82.3028655,11.8344828 83.3093735,11.7767848 83.8863526,12.2063137 L84.0850898,12.353764 L84.290238,12.1678485 C84.4633317,12.0139874 84.553084,11.981933 84.8223409,11.981933 C85.1108305,11.981933 85.1749393,12.0075765 85.3672657,12.1999029 L85.5852356,12.4178728 L85.5852356,15.6297232 C85.5852356,19.1621175 85.5916464,19.1236523 85.2005828,19.3223895 C84.9697912,19.4441962 84.6428363,19.4441962 84.4184556,19.3159786 L84.4184556,19.3159786 Z M83.597863,15.6617776 C83.9055852,15.3989315 84.0081593,15.1489072 84.0081593,14.6424478 C84.0081593,13.8923749 83.706848,13.462846 83.1491015,13.4051481 C82.8477902,13.3795046 82.8157358,13.3859155 82.5785333,13.623118 C82.0592521,14.1488101 82.0528412,15.0655658 82.5721224,15.584847 C82.7772705,15.796406 82.8542011,15.8284604 83.1042254,15.8284604 C83.3221952,15.8284604 83.4440019,15.7899951 83.597863,15.6617776 L83.597863,15.6617776 Z" id="Shape" fill="#3B2180"></path>
                    <path d="M99.7019913,19.3288004 C99.3622147,19.1428849 99.3045168,18.9505585 99.3045168,17.9248179 L99.3045168,16.9824186 L99.0352598,17.1170471 C98.657018,17.3093735 97.8941234,17.3606605 97.4710053,17.2132103 C96.586304,16.911899 96.0157358,16.0784847 95.8811073,14.898883 C95.7528898,13.78339 96.3426906,12.5717339 97.2273919,12.1357941 C97.8556581,11.8280719 98.7147159,11.8601263 99.1506557,12.2063137 L99.3365712,12.353764 L99.5481302,12.1678485 C99.7212239,12.0139874 99.8173871,11.981933 100.080233,11.981933 C100.368723,11.981933 100.432831,12.0075765 100.625158,12.1999029 L100.843128,12.4178728 L100.843128,15.6297232 C100.843128,19.1621175 100.849539,19.1236523 100.458475,19.3223895 C100.234094,19.4377853 99.9007285,19.4441962 99.7019913,19.3288004 L99.7019913,19.3288004 Z M98.919864,15.584847 C99.3301603,15.1809616 99.4070908,14.4821758 99.1186013,13.9116076 C98.9390966,13.5654201 98.7660029,13.4436134 98.4069937,13.4051481 C98.1056824,13.3795046 98.073628,13.3859155 97.8364254,13.623118 C97.4517727,14.0077708 97.3491986,14.5591064 97.5479359,15.1424964 C97.6953861,15.5720253 98.0095192,15.8284604 98.387761,15.8284604 C98.6377853,15.8284604 98.708305,15.796406 98.919864,15.584847 L98.919864,15.584847 Z" id="Shape" fill="#3B2180"></path>
                    <path d="M56.9478388,18.6877125 C56.6208839,18.5402623 56.4798446,18.2453618 56.4798446,17.7132589 L56.4798446,17.2516756 L56.2490529,17.2067994 C55.6528412,17.0978145 55.4092278,16.591355 55.7105391,16.1041282 C55.8323458,15.905391 55.928509,15.8541039 56.2875182,15.8156387 L56.4477902,15.796406 L56.4798446,14.1295775 C56.511899,12.3152987 56.5311316,12.2255464 56.9029626,12.0588635 C57.358135,11.8473045 57.8838271,12.0780962 58.0184556,12.5460903 C58.05051,12.6743079 58.0825644,13.462846 58.0825644,14.3090821 L58.0825644,15.8284604 L58.3389995,15.8284604 C58.7685284,15.8284604 58.9416221,15.956678 59.0698397,16.3669743 C59.1339485,16.5528898 58.9929092,16.9567751 58.8326372,17.0657601 C58.7492958,17.1170471 58.5441476,17.1811559 58.3838757,17.2067994 L58.0825644,17.2516756 L58.0825644,17.6299174 C58.0825644,18.0722681 57.941525,18.4761535 57.7363769,18.6107819 C57.5119961,18.7582322 57.1786304,18.7902865 56.9478388,18.6877125 L56.9478388,18.6877125 Z" id="Shape" fill="#3B2180"></path>
                    <path d="M67.3975716,18.7069451 C67.057795,18.6043711 66.9039339,18.3094706 66.8718796,17.7389024 L66.8526469,17.2452647 L66.6090335,17.2067994 C66.1474502,17.1298689 65.9102477,16.7259835 66.0384653,16.2579893 C66.1089849,15.9887324 66.3333657,15.8284604 66.6410879,15.8284604 L66.8654687,15.8284604 L66.8654687,14.257795 C66.8654687,12.5460903 66.8911122,12.3794075 67.218067,12.1229723 C67.4360369,11.9498786 67.8271005,11.9370568 68.0899466,12.0909179 C68.4297232,12.2896552 68.4681884,12.5204468 68.4681884,14.257795 L68.4681884,15.8284604 L68.7759106,15.8284604 C69.3593006,15.8348713 69.6670228,16.3413307 69.3977659,16.8542011 C69.2759592,17.0849927 69.1669743,17.1491015 68.7759106,17.2067994 L68.4681884,17.2516756 L68.4681884,17.6619718 C68.4681884,17.8927635 68.4297232,18.1748422 68.3784361,18.2966489 C68.224575,18.662069 67.8142788,18.8351627 67.3975716,18.7069451 L67.3975716,18.7069451 Z" id="Shape" fill="#3B2180"></path>
                    <path d="M12.0716853,17.2132103 C11.3857212,16.9888295 10.8856727,16.5336571 10.5651287,15.8541039 C9.82146673,14.2642059 10.5715396,12.4242836 12.1293832,12.0075765 C13.1743565,11.7319087 14.629626,12.1293832 15.0783876,12.8025255 C15.3668771,13.2448762 15.0463332,13.8410879 14.5206411,13.8410879 C14.4372997,13.8410879 14.1295775,13.7256921 13.8410879,13.5846527 C13.2576979,13.3025741 12.8666343,13.2576979 12.4819815,13.4179699 C12.2768334,13.5013113 11.9242351,13.8539097 11.9242351,13.9757164 C11.9242351,14.0077708 12.5268577,14.0334143 13.3666829,14.0334143 C14.9437591,14.0334143 15.0976202,14.0654687 15.2450704,14.3860126 C15.4950947,14.9309373 15.0783876,16.0913065 14.4244779,16.6811073 C13.9693055,17.0849927 13.5269548,17.2580864 12.8858669,17.28373 C12.5460903,17.2965517 12.2383681,17.2709082 12.0716853,17.2132103 L12.0716853,17.2132103 Z M13.1935891,15.8669257 C13.411559,15.7515299 13.5654201,15.584847 13.6487615,15.3604662 L13.7192812,15.1873725 L12.7832929,15.1873725 L11.8537154,15.1873725 L12.0011656,15.4630403 C12.2383681,15.8989801 12.776882,16.0848956 13.1935891,15.8669257 L13.1935891,15.8669257 Z" id="Shape" fill="#3B2180"></path>
                    <path d="M22.053424,17.174745 C21.8995629,17.0978145 21.7136474,16.9952404 21.6559495,16.9375425 C21.5533754,16.8477902 21.5405537,16.8477902 21.5020884,16.9439534 C21.3995143,17.2132103 20.6879068,17.3414279 20.3994172,17.1362797 C20.0660515,16.9054881 20.0660515,16.8990772 20.0660515,13.6167071 C20.0660515,10.8472074 20.0788732,10.5394852 20.1750364,10.3728023 C20.3801846,10.0330257 20.8545896,9.90480816 21.2200097,10.0907237 C21.5405537,10.2574065 21.6046625,10.4689655 21.6046625,11.3921321 L21.6046625,12.2255464 L21.9764934,12.0716853 C23.220204,11.558815 24.5857212,12.353764 24.970374,13.8090335 C25.2203983,14.7706654 24.9511413,15.9694998 24.3292861,16.6490529 C24.2074794,16.7836814 23.9574551,16.9760078 23.7715396,17.0785818 C23.4894609,17.2324429 23.3420107,17.2709082 22.8868383,17.28373 C22.4380767,17.3029626 22.2906265,17.28373 22.053424,17.174745 L22.053424,17.174745 Z M22.9445362,15.7322972 C23.3868868,15.5079165 23.6048567,14.5655172 23.3420107,14.0013599 C22.8611948,12.9307431 21.6623604,13.360272 21.6495386,14.6039825 C21.6495386,15.0912093 21.7585236,15.3989315 22.0277805,15.636134 C22.2842156,15.8541039 22.636814,15.8925692 22.9445362,15.7322972 L22.9445362,15.7322972 Z" id="Shape" fill="#3B2180"></path>
                    <path d="M27.3744536,17.2452647 C26.5987373,17.0080622 25.9704711,16.328509 25.7396795,15.4822729 C25.6499271,15.161729 25.6306945,14.9117047 25.656338,14.3924235 C25.6819815,13.7705682 25.7076251,13.6744051 25.9255949,13.2384653 C26.1820301,12.7127732 26.5474502,12.3409422 27.0410879,12.0973288 C27.2911122,11.9755221 27.4449733,11.9498786 27.9257892,11.9498786 C28.4707139,11.9498786 28.5284119,11.9627003 28.836134,12.1550267 L29.1694998,12.3601748 L29.3554153,12.1678485 C29.5156872,12.0139874 29.5990287,11.981933 29.8618747,11.981933 C30.2529383,11.981933 30.48373,12.142205 30.5798932,12.4819815 C30.6632346,12.7961146 30.6632346,16.4246722 30.5798932,16.7388052 C30.48373,17.072171 30.2529383,17.2388538 29.8682856,17.2388538 C29.6118504,17.2388538 29.5156872,17.2067994 29.3490044,17.0529383 L29.1438562,16.8670228 L28.945119,17.014473 C28.8425449,17.0914036 28.6566294,17.1875668 28.5348227,17.2324429 C28.2912093,17.3093735 27.6244779,17.3157844 27.3744536,17.2452647 L27.3744536,17.2452647 Z M28.5155901,15.7387081 C28.9066537,15.5399709 29.1374454,14.7514327 28.9771734,14.1616319 C28.9322972,13.9821272 28.8104905,13.78339 28.6502186,13.6295289 C28.413016,13.3859155 28.3809616,13.3795046 28.0796503,13.4051481 C27.8873239,13.4243808 27.7014085,13.4884896 27.6244779,13.5590092 C27.0667314,14.0654687 27.0923749,15.2386595 27.6693541,15.693832 C27.8680913,15.8541039 28.2591549,15.8733366 28.5155901,15.7387081 L28.5155901,15.7387081 Z" id="Shape" fill="#3B2180"></path>
                    <path d="M38.9460903,17.1170471 L38.5678485,16.9247207 L38.381933,17.0849927 C38.1062652,17.3157844 37.6446819,17.3029626 37.3626032,17.0529383 L37.1510442,16.8670228 L37.1318116,14.7129675 C37.1189898,12.8666343 37.1254007,12.5332686 37.215153,12.3665857 C37.477999,11.8601263 38.2985915,11.8601263 38.5614376,12.3665857 C38.6383681,12.5140359 38.6576008,12.8217581 38.6576008,13.9372511 C38.6576008,15.424575 38.6960661,15.6489558 38.9845556,15.8541039 C39.2217581,16.0143759 39.5230695,15.9823215 39.760272,15.7707625 L39.971831,15.584847 L40.0038854,14.0205925 C40.0359398,12.3473531 40.0487615,12.2896552 40.394949,12.084507 C40.76678,11.8665372 41.2732394,12.0011656 41.4976202,12.3858184 C41.5489072,12.4819815 41.5873725,13.0076736 41.6066051,14.0526469 L41.6386595,15.584847 L41.8502186,15.7707625 C42.2476931,16.1233609 42.7669743,15.9438562 42.888781,15.4117533 C42.9208354,15.2707139 42.9528898,14.5719281 42.9528898,13.8539097 C42.9528898,12.4178728 42.9849441,12.2576008 43.3375425,12.0780962 C43.7221952,11.8793589 44.2158329,12.0139874 44.3953375,12.3665857 C44.5363769,12.6358426 44.5363769,15.6553667 44.3953375,16.1233609 C44.1837785,16.8285576 43.5939777,17.2388538 42.7220981,17.2901408 C42.2605148,17.3157844 42.1515299,17.2965517 41.8309859,17.1555124 C41.6322487,17.0593492 41.401457,16.9311316 41.3117047,16.8606119 L41.1514327,16.7323944 L40.8629432,16.9503643 C40.3180185,17.3670714 39.5679456,17.4311802 38.9460903,17.1170471 L38.9460903,17.1170471 Z" id="Shape" fill="#3B2180"></path>
                    <path d="M46.5109276,17.1939777 C44.6710053,16.5272462 44.158135,13.8987858 45.6134046,12.565323 C46.068577,12.1550267 46.5365712,11.9691112 47.2481787,11.9370568 C48.4341914,11.872948 49.6843128,12.4819815 49.6843128,13.1294803 C49.6843128,13.5269548 49.4150559,13.834677 49.0624575,13.8410879 C48.9534726,13.8410879 48.6201068,13.7256921 48.3316173,13.5846527 C47.9469645,13.3987373 47.7225838,13.3282176 47.5110248,13.3282176 C47.0430306,13.3346285 46.5750364,13.5974745 46.4596406,13.9180185 C46.4211753,14.0205925 46.542982,14.0270034 47.9533754,14.046236 C49.4535211,14.0654687 49.4919864,14.0718796 49.6330257,14.2129189 C49.7612433,14.3411365 49.780476,14.4244779 49.780476,14.8540068 C49.7740651,15.2707139 49.7420107,15.4181642 49.5753278,15.7771734 C49.3060709,16.3477416 48.8701311,16.802914 48.3508499,17.0593492 C48.0046625,17.2324429 47.8508014,17.2644973 47.3828072,17.28373 C46.9725109,17.3029626 46.7481302,17.2773191 46.5109276,17.1939777 L46.5109276,17.1939777 Z M47.7674599,15.8092278 C47.8892666,15.7322972 48.0367169,15.5656144 48.0944148,15.4438077 L48.2098106,15.2194269 L47.337931,15.2001943 C46.8571151,15.1937834 46.4468188,15.2001943 46.4211753,15.2194269 C46.4019427,15.2450704 46.4468188,15.3668771 46.5173385,15.4950947 C46.7801846,15.9438562 47.3507528,16.0848956 47.7674599,15.8092278 L47.7674599,15.8092278 Z" id="Shape" fill="#3B2180"></path>
                    <path d="M52.5563866,17.2388538 C52.4602234,17.2132103 52.2807188,17.123458 52.1589121,17.0529383 C51.9729966,16.9375425 51.9281204,16.9311316 51.8832443,17.0016513 C51.742205,17.2452647 51.1524041,17.3221952 50.8639145,17.1362797 C50.5305488,16.911899 50.5177271,16.8285576 50.5177271,14.6424478 C50.5177271,12.8922778 50.5305488,12.5781447 50.6203011,12.3922292 C50.9152016,11.770374 51.8704225,11.872948 52.056338,12.5460903 C52.0883924,12.6743079 52.1204468,13.3987373 52.1204468,14.155221 L52.1204468,15.5207382 L52.3384167,15.7387081 C52.5948519,15.9951433 52.9282176,16.0336085 53.2551724,15.8284604 C53.5500729,15.6489558 53.594949,15.4053424 53.594949,13.8859641 C53.594949,12.4178728 53.6270034,12.2576008 53.9796017,12.0780962 C54.3642545,11.8793589 54.8578922,12.0139874 55.0373968,12.3729966 C55.1271491,12.5396795 55.1399709,12.8217581 55.1207382,14.3090821 L55.1015056,16.0528412 L54.9155901,16.3926178 C54.5758135,16.9952404 53.9924235,17.3093735 53.1910636,17.2965517 C52.9410393,17.2965517 52.6525498,17.2709082 52.5563866,17.2388538 L52.5563866,17.2388538 Z" id="Shape" fill="#3B2180"></path>
                    <path d="M63.1343371,17.2003885 C62.5317144,16.9888295 62.0893638,16.4503157 62.0124332,15.8412822 C61.9290918,15.1168528 62.3009228,14.5911608 63.1599806,14.2000971 C64.0959689,13.78339 64.2690627,13.6808159 64.2882953,13.5590092 C64.3459932,13.2576979 63.8331229,13.251287 63.2048567,13.5525983 C62.5958232,13.8410879 62.3714424,13.8474988 62.0829529,13.5590092 C61.9034483,13.3795046 61.864983,13.2897523 61.864983,13.0717824 C61.864983,12.7255949 62.025255,12.5012142 62.4419621,12.2768334 C62.8843128,12.03322 63.3458961,11.9178242 63.8587664,11.9178242 C64.7050024,11.9178242 65.3332686,12.2511899 65.6666343,12.879456 C65.8269063,13.1871782 65.8461389,13.2897523 65.8269063,13.6551724 C65.788441,14.3988344 65.4486644,14.738611 64.2947062,15.213016 C63.6023312,15.4950947 63.4484701,15.6169014 63.5895095,15.7899951 C63.7177271,15.9438562 63.986984,15.9182127 64.5319087,15.7002428 C65.1024769,15.4694512 65.3076251,15.4822729 65.5512385,15.7771734 C65.9230695,16.219524 65.679456,16.8157358 64.993492,17.1170471 C64.5447305,17.3093735 63.5830986,17.3542496 63.1343371,17.2003885 L63.1343371,17.2003885 Z" id="Shape" fill="#3B2180"></path>
                    <path d="M70.9043225,17.1619233 C70.2055367,16.8862555 69.602914,16.0848956 69.4298203,15.2001943 C69.2182613,14.1359883 69.6477902,12.8474017 70.3850413,12.3409422 C71.1543468,11.8024284 72.2249636,11.7831957 72.7827101,12.2896552 C72.891695,12.3858184 72.9109276,12.3858184 73.0070908,12.2576008 C73.3276348,11.8537154 74.0905294,11.8985915 74.2892666,12.3345313 C74.3918407,12.5589121 74.3982516,16.6746965 74.2956775,16.8734337 C74.1738708,17.1170471 73.9623118,17.2388538 73.6738222,17.2388538 C73.3725109,17.2388538 73.0583779,17.1042254 73.0006799,16.9567751 C72.9686255,16.8734337 72.9045168,16.8926663 72.628849,17.0657601 C72.3339485,17.2452647 72.2313745,17.2709082 71.776202,17.28373 C71.3659058,17.2965517 71.1799903,17.2709082 70.9043225,17.1619233 L70.9043225,17.1619233 Z M72.3660029,15.6681884 C72.7698883,15.3284119 72.9045168,14.527052 72.6544925,13.9693055 C72.4813987,13.5782419 72.308305,13.4436134 71.9428849,13.4051481 C71.6608062,13.3795046 71.6095192,13.3987373 71.3979602,13.5782419 C70.9620204,13.9628946 70.8402137,14.7450219 71.1287033,15.3412336 C71.3594949,15.8220495 71.987761,15.9887324 72.3660029,15.6681884 L72.3660029,15.6681884 Z" id="Shape" fill="#3B2180"></path>
                    <path d="M77.4818844,17.2132103 C77.3472559,17.1619233 77.186984,17.0785818 77.1356969,17.0208839 C77.0459446,16.9375425 77.0203011,16.9439534 76.8536183,17.0785818 C76.603594,17.2901408 76.1291889,17.3029626 75.8727538,17.0978145 C75.5393881,16.8349684 75.5201554,16.7067508 75.5201554,14.6103934 C75.5201554,12.5140359 75.5393881,12.3858184 75.8727538,12.1229723 C76.0843128,11.9562895 76.4625546,11.9370568 76.7318116,12.0780962 C77.077999,12.2576008 77.1228752,12.4627489 77.1228752,14.0205925 C77.1228752,15.3796989 77.1292861,15.4309859 77.2703254,15.6425449 C77.5459932,16.0528412 78.1742593,16.0528412 78.4499271,15.6425449 C78.5909665,15.4309859 78.5973774,15.373288 78.5973774,14.0205925 C78.5973774,12.8474017 78.61661,12.5717339 78.6999514,12.3922292 C78.9050996,11.9627003 79.5077222,11.8408936 79.8731423,12.1486158 C80.1808645,12.405051 80.2129189,12.6230209 80.1872754,14.3539582 C80.1680427,15.9246236 80.1680427,15.9246236 79.9885381,16.2900437 C79.7962118,16.6811073 79.571831,16.9054881 79.148713,17.123458 C78.8089364,17.3029626 77.8601263,17.3542496 77.4818844,17.2132103 L77.4818844,17.2132103 Z" id="Shape" fill="#3B2180"></path>
                    <path d="M88.0085478,17.2067994 C86.3417193,16.591355 85.8096163,14.0334143 87.0661486,12.6550753 C87.7841671,11.872948 88.89966,11.6870325 89.6817873,12.2127246 L89.8997572,12.3601748 L90.1241379,12.1614376 C90.3292861,11.9883439 90.3805731,11.9691112 90.6947062,11.9947547 C90.9383196,12.0139874 91.0857698,12.0652744 91.181933,12.1678485 C91.3229723,12.3024769 91.3229723,12.3345313 91.342205,14.5847499 L91.3614376,16.8606119 L91.1691112,17.0465274 C91.0088392,17.2067994 90.9319087,17.2388538 90.6562409,17.2388538 C90.386984,17.2388538 90.2972317,17.2067994 90.1113162,17.0465274 C89.963866,16.911899 89.8741136,16.8734337 89.8484701,16.9247207 C89.8228266,16.963186 89.6497329,17.0657601 89.4702283,17.1491015 C89.0919864,17.3286061 88.4060223,17.3542496 88.0085478,17.2067994 L88.0085478,17.2067994 Z M89.431763,15.584847 C89.6112676,15.4053424 89.694609,15.2578922 89.7523069,14.9758135 C89.8741136,14.4437105 89.7587178,13.9564837 89.431763,13.6359398 C89.220204,13.4243808 89.1496843,13.3923264 88.8868383,13.3923264 C88.6239922,13.3923264 88.5534726,13.4243808 88.3419136,13.6359398 C88.2072851,13.7705682 88.0662458,13.9885381 88.0277805,14.1295775 C87.8739194,14.7001457 87.9829043,15.2322487 88.3419136,15.584847 C88.5534726,15.796406 88.6239922,15.8284604 88.8868383,15.8284604 C89.1496843,15.8284604 89.220204,15.796406 89.431763,15.584847 L89.431763,15.584847 Z" id="Shape" fill="#3B2180"></path>
                    <path d="M31.7659058,17.1619233 C31.5351141,17.0337057 31.4133074,16.8285576 31.4133074,16.5528898 C31.4133074,16.3477416 31.6120447,15.7835843 32.1569694,14.4116561 L32.9070423,12.5460903 L32.5736765,11.7190869 C32.3941719,11.2575036 32.2467217,10.815153 32.2467217,10.7254007 C32.2467217,10.0073822 33.2788732,9.73171442 33.6763477,10.3407479 C33.7340457,10.4240894 34.3046139,11.7960175 34.9392909,13.3859155 C36.2727538,16.7323944 36.2855755,16.7772705 35.7727052,17.1298689 C35.5803788,17.2644973 35.1893152,17.2709082 34.9392909,17.1426906 C34.7277319,17.0337057 34.6059252,16.7836814 34.1058766,15.4950947 C33.9199611,15.0078679 33.7468674,14.6103934 33.7276348,14.6103934 C33.7019913,14.6103934 33.5160758,15.0783876 33.3109276,15.6553667 C32.8813987,16.8349684 32.7660029,17.0593492 32.5352113,17.1619233 C32.3300631,17.2580864 31.9325886,17.2580864 31.7659058,17.1619233 L31.7659058,17.1619233 Z" id="Shape" fill="#3B2180"></path>
                    <path d="M92.8808159,17.1362797 C92.5218067,16.9439534 92.5089849,16.8542011 92.5089849,14.6424478 C92.5089849,12.405051 92.5282176,12.2640117 92.9000486,12.0780962 C93.1693055,11.9370568 93.5475474,11.9562895 93.7591064,12.1229723 C94.0732394,12.3665857 94.1117047,12.5717339 94.1117047,13.9116076 L94.1117047,15.1424964 L94.3232637,15.3412336 C94.4450704,15.4502186 94.7399709,15.6233123 94.9899951,15.7194755 C95.2400194,15.8156387 95.4900437,15.9502671 95.5477416,16.0143759 C95.8234094,16.3220981 95.688781,16.9567751 95.3105391,17.1555124 C95.0348713,17.2965517 94.5155901,17.2388538 94.2399223,17.0465274 C94.0924721,16.9439534 94.0155415,16.9183099 93.9963089,16.9695969 C93.9193783,17.2132103 93.2141816,17.3221952 92.8808159,17.1362797 L92.8808159,17.1362797 Z" id="Shape" fill="#3B2180"></path>
                    <path d="M16.3028655,15.4758621 C16.0784847,15.3796989 15.8989801,15.0912093 15.8989801,14.8347742 C15.8989801,14.6168043 16.0592521,14.3090821 16.2131132,14.2257407 C16.2900437,14.1872754 16.8542011,14.1616319 17.5850413,14.1616319 L18.8287518,14.1616319 L19.0018456,14.3283147 C19.136474,14.4693541 19.1685284,14.5591064 19.1685284,14.8347742 C19.1685284,15.110442 19.136474,15.2001943 19.0082564,15.3284119 C18.7902865,15.5463817 18.6171928,15.5720253 17.4760563,15.5720253 C16.7965032,15.5656144 16.4439048,15.5399709 16.3028655,15.4758621 L16.3028655,15.4758621 Z" id="Shape" fill="#3B2180"></path>
                    <path d="M4.02603205,6.12880039 L0,0.0256435163 L8.02642059,0.00641087907 C12.4371054,1.10870514e-14 16.0592521,0.00641087907 16.0720738,0.0192326372 C16.0977173,0.0448761535 15.5271491,0.916755707 12.4371054,5.60310831 C11.9627003,6.32753764 10.7830986,8.1161729 9.81505585,9.57785333 C8.85342399,11.0395338 8.05847499,12.2383681 8.05206411,12.2383681 C8.05206411,12.2383681 6.23778533,9.48810102 4.02603205,6.12880039 L4.02603205,6.12880039 Z" id="Shape" fill="#3C2181"></path>
                    <path d="M99.4840214,6.12880039 L95.4579893,0.0256435163 L103.48441,0.00641087907 C107.895095,1.10870514e-14 111.517241,0.00641087907 111.530063,0.0192326372 C111.555707,0.0448761535 110.985138,0.916755707 107.895095,5.60310831 C107.42069,6.32753764 106.241088,8.1161729 105.273045,9.57785333 C104.311413,11.0395338 103.516464,12.2383681 103.510053,12.2383681 C103.510053,12.2383681 101.695775,9.48810102 99.4840214,6.12880039 L99.4840214,6.12880039 Z" id="Shape" fill="#3C2181"></path>
                </g>
            </g>
        </g>
    </g>
</svg>