<?xml version="1.0" encoding="UTF-8" standalone="no"?>
<svg width="142px" height="62px" viewBox="0 0 142 62" version="1.1" xmlns="http://www.w3.org/2000/svg" xmlns:xlink="http://www.w3.org/1999/xlink" xmlns:sketch="http://www.bohemiancoding.com/sketch/ns">
    <!-- Generator: Sketch Beta 3.4.1 (15680) - http://www.bohemiancoding.com/sketch -->
    <title>Giropay</title>
    <desc>Created with Sketch Beta.</desc>
    <defs></defs>
    <g id="Page-1" stroke="none" stroke-width="1" fill="none" fill-rule="evenodd" sketch:type="MSPage">
        <g id="Giropay" sketch:type="MSLayerGroup" transform="translate(0.062173, 0.449549)">
            <g id="layer1" transform="translate(0.000000, -0.000000)" sketch:type="MSShapeGroup">
                <path d="M0.11469535,10.9539614 C0.11469535,4.91680621 5.03427254,0.0219393825 11.0997087,0.0219393825 L130.817562,0.0219393825 C136.885605,0.0219393825 141.802519,4.91680621 141.802519,10.9539614 L141.802519,50.0210819 C141.802519,56.054724 136.885605,60.9504961 130.817562,60.9504961 L11.0997087,60.9504961 C5.03427254,60.9504961 0.11469535,56.054724 0.11469535,50.0210819 L0.11469535,10.9539614 L0.11469535,10.9539614 L0.11469535,10.9539614 Z" id="_92653320" fill="#000268"></path>
                <path d="M4.62320726,11.3280178 L4.62320726,49.6505961 C4.62320726,53.4225003 7.69823347,56.4817137 11.4913344,56.4817137 L74.212642,56.4817137 L74.212642,4.49689954 L11.4913344,4.49689954 C7.69823347,4.49689954 4.62320726,7.55605679 4.62320726,11.3280178 L4.62320726,11.3280178 L4.62320726,11.3280178 L4.62320726,11.3280178 Z M90.418687,30.2978867 C90.418687,32.7378105 89.2119026,34.4147167 87.2139319,34.4147167 C85.4488388,34.4147167 83.9774379,32.7378105 83.9774379,30.5033905 C83.9774379,28.2099153 85.2715022,26.5047859 87.2139319,26.5047859 C89.2736785,26.5047859 90.418687,28.2690281 90.418687,30.2978867 L90.418687,30.2978867 L90.418687,30.2978867 Z M78.6874322,44.2917287 L83.9774379,44.2917287 L83.9774379,35.9707344 L84.0365506,35.9707344 C85.0386246,37.7940876 87.0392585,38.4697692 88.8908381,38.4697692 C93.4469564,38.4697692 95.8868802,34.7075564 95.8868802,30.1796613 C95.8868802,26.4765611 93.5651819,22.4461617 89.3301264,22.4461617 C86.9210906,22.4461617 84.6866722,23.4174037 83.6254855,25.5644302 L83.5663728,25.5644302 L83.5663728,22.8016842 L78.6874322,22.8016842 L78.6874322,44.2917287 L78.6874322,44.2917287 L78.6874322,44.2917287 Z M103.112231,33.2661925 C103.112231,31.7974548 104.521856,31.240848 106.317837,31.240848 C107.110894,31.240848 107.876576,31.2964466 108.552257,31.3281855 C108.552257,33.1206508 107.288174,34.9439497 105.287539,34.9439497 C104.052587,34.9439497 103.112231,34.3273792 103.112231,33.2661925 L103.112231,33.2661925 L103.112231,33.2661925 Z M113.783208,38.1178169 C113.549422,36.9137516 113.490311,35.7061179 113.490311,34.5020526 L113.490311,28.798261 C113.490311,24.1239733 110.110938,22.4461617 106.19967,22.4461617 C103.937026,22.4461617 101.967279,22.7698893 100.084813,23.5355716 L100.174814,27.1240179 C101.63998,26.2992245 103.348623,25.9754953 105.053754,25.9754953 C106.96178,25.9754953 108.520519,26.5356738 108.552257,28.6236452 C107.876576,28.5054198 106.933557,28.4154191 106.081446,28.4154191 C103.261343,28.4154191 98.1741781,28.9755976 98.1741781,33.6490344 C98.1741781,36.9728643 100.877869,38.4697692 103.906138,38.4697692 C106.081446,38.4697692 107.552791,37.6203212 108.757761,35.7061179 L108.816874,35.7061179 C108.816874,36.5026865 108.903303,37.2930219 108.935098,38.1178169 L113.783208,38.1178169 L113.783208,38.1178169 L113.783208,38.1178169 Z M116.163963,44.2917287 C117.252466,44.528178 118.33927,44.6472528 119.455998,44.6472528 C124.307678,44.6472528 125.452631,40.9123578 126.952257,37.0601442 L132.569562,22.8016842 L127.275986,22.8016842 L124.130342,32.7969232 L124.071229,32.7969232 L120.778287,22.8016842 L115.077216,22.8016842 L121.279353,38.4697692 C120.896511,39.8229463 119.897951,40.5886286 118.603036,40.5886286 C117.865578,40.5886286 117.221636,40.4986279 116.515066,40.2648993 L116.163963,44.2917287 L116.163963,44.2917287 L116.163963,44.2917287 Z" id="_92186184" fill="#FFFFFF"></path>
                <path d="M17.5470786,30.3287746 C17.5470786,28.2408033 18.5773773,26.5047859 20.5471249,26.5047859 C22.9279919,26.5047859 23.9265534,28.4154191 23.9265534,30.1205501 C23.9265534,32.473194 22.4269277,34.0600996 20.5471249,34.0600996 C18.9602193,34.0600996 17.5470786,32.7095857 17.5470786,30.3287746 L17.5470786,30.3287746 L17.5470786,30.3287746 Z M29.0427926,22.8016842 L24.250281,22.8016842 L24.250281,25.5644302 L24.1946824,25.5644302 C23.0743845,23.6820202 21.2501803,22.4461617 18.9884425,22.4461617 C14.2267628,22.4461617 12.0797363,25.8599347 12.0797363,30.4160546 C12.0797363,34.9439497 14.6969406,38.1178169 18.8975924,38.1178169 C21.0173011,38.1178169 22.7815433,37.2930219 24.0447212,35.5006125 L24.1038324,35.5006125 L24.1038324,36.3253499 C24.1038324,39.3227874 22.4578156,40.763302 19.4021723,40.763302 C17.1959771,40.763302 15.8419491,40.2931241 14.2267628,39.5001256 L13.9621463,43.6760108 C15.1944923,44.1179638 17.2824621,44.6472528 19.8132374,44.6472528 C25.9871493,44.6472528 29.0427926,42.6174872 29.0427926,36.3253499 L29.0427926,22.8016842 L29.0427926,22.8016842 L29.0427926,22.8016842 Z M37.9865363,16.422211 L32.6938658,16.422211 L32.6938658,20.3026493 L37.9865363,20.3026493 L37.9865363,16.422211 L37.9865363,16.422211 L37.9865363,16.422211 Z M32.696529,38.1178169 L37.9865363,38.1178169 L37.9865363,22.8016842 L32.696529,22.8016842 L32.696529,38.1178169 L32.696529,38.1178169 L32.696529,38.1178169 Z M52.7214075,22.6234983 C52.1921169,22.5370117 51.5446601,22.4461617 50.9289405,22.4461617 C48.6354654,22.4461617 47.3131763,23.6820202 46.4010454,25.6235429 L46.3419327,25.6235429 L46.3419327,22.8016842 L41.5211979,22.8016842 L41.5211979,38.1178169 L46.8121105,38.1178169 L46.8121105,31.6519131 C46.8121105,28.6518684 48.1961755,26.8594015 50.664324,26.8594015 C51.2835577,26.8594015 51.8683877,26.8594015 52.456791,27.0331679 L52.7214075,22.6234983 L52.7214075,22.6234983 L52.7214075,22.6234983 Z M61.8328523,34.7666691 C59.392927,34.7666691 58.3943671,32.7378105 58.3943671,30.4751657 C58.3943671,28.1816906 59.392927,26.1528319 61.8328523,26.1528319 C64.2754393,26.1528319 65.2748501,28.1816906 65.2748501,30.4751657 C65.2748501,32.7378105 64.2754393,34.7666691 61.8328523,34.7666691 L61.8328523,34.7666691 L61.8328523,34.7666691 Z M61.8328523,38.4697692 C66.8899788,38.4697692 70.7421924,35.5323514 70.7421924,30.4751657 C70.7421924,25.3871512 66.8899788,22.4461617 61.8328523,22.4461617 C56.7765736,22.4461617 52.9270248,25.3871512 52.9270248,30.4751657 C52.9270248,35.5323514 56.7765736,38.4697692 61.8328523,38.4697692 L61.8328523,38.4697692 L61.8328523,38.4697692 Z" id="_47303032" fill="#FF0007"></path>
            </g>
        </g>
    </g>
</svg>