<?xml version="1.0" encoding="UTF-8" standalone="no"?>
<svg width="101px" height="76px" viewBox="0 0 101 76" version="1.1" xmlns="http://www.w3.org/2000/svg" xmlns:xlink="http://www.w3.org/1999/xlink" xmlns:sketch="http://www.bohemiancoding.com/sketch/ns">
    <!-- Generator: Sketch Beta 3.4.1 (15680) - http://www.bohemiancoding.com/sketch -->
    <title>jcb</title>
    <desc>Created with Sketch Beta.</desc>
    <defs>
        <linearGradient x1="-1.7051938e-12%" y1="50%" x2="100.001297%" y2="50%" id="linearGradient-1">
            <stop stop-color="#007B40" offset="0%"></stop>
            <stop stop-color="#55B330" offset="100%"></stop>
        </linearGradient>
        <linearGradient x1="2.88069389e-15%" y1="50%" x2="100%" y2="50%" id="linearGradient-2">
            <stop stop-color="#1D2970" offset="0%"></stop>
            <stop stop-color="#006DBA" offset="100%"></stop>
        </linearGradient>
        <linearGradient x1="0%" y1="50%" x2="100%" y2="50%" id="linearGradient-3">
            <stop stop-color="#6E2B2F" offset="0%"></stop>
            <stop stop-color="#E30138" offset="100%"></stop>
        </linearGradient>
    </defs>
    <g id="Page-1" stroke="none" stroke-width="1" fill="none" fill-rule="evenodd" sketch:type="MSPage">
        <g id="jcb" sketch:type="MSLayerGroup" transform="translate(-6.000000, -5.000000)">
            <path d="M112.498,69.1705 C112.498,78.8334 104.6663,86.669 94.9995,86.669 L0.0004,86.669 L0.0004,17.5011 C0.0004,7.8355 7.8332,0.0001 17.5001,0.0001 L112.4979,0 L112.4979,69.1705 L112.498,69.1705 L112.498,69.1705 L112.498,69.1705 Z" id="Shape" sketch:type="MSShapeGroup"></path>
            <path d="M81.5262,44.8542 L81.5886,44.8542 L81.7092,44.8542 L81.8298,44.8542 L81.9505,44.8542 L82.0711,44.8542 L82.1917,44.8542 L82.3124,44.8542 L82.433,44.8542 L82.5537,44.8542 L82.6743,44.8542 L82.7949,44.8542 L82.9156,44.8542 L83.0362,44.8542 L83.1568,44.8542 L83.2775,44.8542 L83.3981,44.8542 L83.5187,44.8542 L83.6394,44.8542 L83.76,44.8542 L83.8806,44.8542 L84.0013,44.8542 L84.1219,44.8542 L84.2425,44.8542 L84.3632,44.8542 L84.4838,44.8542 L84.6044,44.8542 L84.7251,44.8542 L84.8457,44.8542 L84.9663,44.8542 L85.087,44.8542 L85.2076,44.8542 L85.3283,44.8542 L85.4489,44.8542 L85.5695,44.8542 L85.6902,44.8542 L85.8108,44.8542 L85.9314,44.8542 L86.0521,44.8542 L86.1727,44.8542 L86.2933,44.8542 L86.414,44.8542 L86.5346,44.8542 L86.6552,44.8542 L86.7759,44.8542 L86.8965,44.8542 L87.0171,44.8542 L87.1378,44.8542 L87.2584,44.8542 L87.379,44.8542 L87.4997,44.8542 L87.6203,44.8542 L87.7409,44.8542 L87.8616,44.8542 L87.9822,44.8542 L88.1028,44.8542 L88.2235,44.8542 L88.3441,44.8542 L88.4648,44.8542 L88.5854,44.8542 L88.706,44.8542 L88.8064,44.8542 L88.8267,44.8547 C88.8639,44.8556 88.9045,44.8573 88.9473,44.8596 C88.986,44.8617 89.0265,44.8644 89.0679,44.8675 C89.1076,44.8704 89.1481,44.8738 89.1886,44.8775 C89.2292,44.8812 89.2696,44.8853 89.3092,44.8897 C89.3507,44.8943 89.3913,44.8992 89.4298,44.9044 C89.473,44.9102 89.5137,44.9162 89.5505,44.9225 C89.577,44.927 89.6015,44.9316 89.6234,44.9363 L89.6711,44.9471 C89.7115,44.9565 89.7517,44.9667 89.7917,44.9778 C89.8322,44.989 89.8724,45.0008 89.9124,45.0136 C89.9529,45.0265 89.9931,45.0402 90.033,45.0547 C90.0735,45.0694 90.1137,45.0849 90.1536,45.1012 C90.1942,45.1178 90.2344,45.1353 90.2743,45.1535 C90.3149,45.1721 90.3551,45.1914 90.3949,45.2117 C90.4355,45.2323 90.4757,45.2539 90.5155,45.2763 C90.5562,45.2992 90.5965,45.3232 90.6362,45.3479 C90.6769,45.3733 90.7172,45.3994 90.7568,45.4266 C90.7976,45.4546 90.8379,45.4834 90.8774,45.5132 C90.9183,45.5441 90.9586,45.576 90.9981,45.6089 C91.0391,45.6431 91.0793,45.6784 91.1187,45.7146 C91.1599,45.7525 91.2002,45.7912 91.2394,45.8312 C91.2808,45.8733 91.3209,45.9168 91.36,45.9613 C91.4015,46.0086 91.4417,46.0572 91.4806,46.1071 C91.5225,46.1608 91.5627,46.2159 91.6013,46.2725 C91.6435,46.3345 91.6838,46.3981 91.7219,46.4634 C91.7649,46.537 91.8051,46.6128 91.8425,46.6906 C91.8869,46.7828 91.9273,46.8778 91.9632,46.9755 C92.0115,47.1068 92.0519,47.2429 92.0838,47.3834 C92.139,47.6269 92.1687,47.8834 92.1687,48.1512 C92.1687,48.4203 92.1391,48.6779 92.0838,48.9222 C92.0519,49.0631 92.0115,49.1996 91.9632,49.3311 C91.9272,49.4291 91.8869,49.5242 91.8425,49.6167 C91.8051,49.6945 91.7649,49.7704 91.7219,49.8441 C91.6838,49.9095 91.6436,49.9731 91.6013,50.0351 C91.5627,50.0917 91.5224,50.1469 91.4806,50.2006 C91.4417,50.2505 91.4015,50.299 91.36,50.3463 C91.3209,50.3908 91.2807,50.4342 91.2394,50.4763 C91.2002,50.5163 91.1598,50.555 91.1187,50.5928 C91.0793,50.6289 91.0391,50.6639 90.9981,50.698 C90.9586,50.7308 90.9184,50.7627 90.8774,50.7935 C90.8379,50.8232 90.7976,50.8519 90.7568,50.8798 C90.7172,50.9069 90.6769,50.933 90.6362,50.9582 C90.5965,50.9828 90.5562,51.0066 90.5155,51.0294 C90.4758,51.0517 90.4356,51.0731 90.3949,51.0936 C90.3551,51.1137 90.3149,51.133 90.2743,51.1515 C90.2344,51.1696 90.1942,51.1868 90.1536,51.2033 C90.1137,51.2194 90.0735,51.2349 90.033,51.2494 C89.9931,51.2637 89.9529,51.2772 89.9124,51.2899 C89.8724,51.3025 89.8322,51.3142 89.7917,51.3252 C89.7517,51.336 89.7115,51.3461 89.6711,51.3554 L89.6234,51.3661 C89.6015,51.3711 89.577,51.376 89.5505,51.3807 C89.5137,51.3872 89.473,51.3934 89.4298,51.3993 C89.3913,51.4045 89.3507,51.4095 89.3092,51.4141 C89.2696,51.4185 89.2292,51.4225 89.1886,51.4261 C89.1481,51.4298 89.1076,51.4331 89.0679,51.4359 C89.0265,51.4389 88.986,51.4415 88.9473,51.4435 C88.9045,51.4457 88.8639,51.4473 88.8267,51.4482 L88.762,51.449 L88.706,51.449 L88.5854,51.449 L88.4648,51.449 L88.3441,51.449 L88.2235,51.449 L88.1028,51.449 L87.9822,51.449 L87.8616,51.449 L87.7409,51.449 L87.6203,51.449 L87.4997,51.449 L87.379,51.449 L87.2584,51.449 L87.1378,51.449 L87.0171,51.449 L86.8965,51.449 L86.7759,51.449 L86.6552,51.449 L86.5346,51.449 L86.414,51.449 L86.2933,51.449 L86.1727,51.449 L86.0521,51.449 L85.9314,51.449 L85.8108,51.449 L85.6902,51.449 L85.5695,51.449 L85.4489,51.449 L85.3283,51.449 L85.2076,51.449 L85.087,51.449 L84.9663,51.449 L84.8457,51.449 L84.7251,51.449 L84.6044,51.449 L84.4838,51.449 L84.3632,51.449 L84.2425,51.449 L84.1219,51.449 L84.0013,51.449 L83.8806,51.449 L83.76,51.449 L83.6394,51.449 L83.5187,51.449 L83.3981,51.449 L83.2775,51.449 L83.1568,51.449 L83.0362,51.449 L82.9156,51.449 L82.7949,51.449 L82.6743,51.449 L82.5537,51.449 L82.433,51.449 L82.3124,51.449 L82.1917,51.449 L82.0711,51.449 L81.9505,51.449 L81.8298,51.449 L81.7092,51.449 L81.5886,51.449 L81.5262,51.449 L81.5262,44.8542 L81.5262,44.8542 L81.5262,44.8542 Z M91.2398,37.3903 C91.2883,37.6117 91.3143,37.8461 91.3143,38.093 C91.3143,38.3395 91.2883,38.5738 91.2398,38.795 C91.2086,38.9371 91.1681,39.0737 91.1191,39.2047 C91.0833,39.3003 91.043,39.3928 90.9985,39.4821 C90.9612,39.557 90.9209,39.6297 90.8779,39.7 C90.8398,39.7622 90.7994,39.8226 90.7572,39.8812 C90.7186,39.9346 90.6784,39.9864 90.6366,40.0367 C90.5977,40.0835 90.5576,40.1289 90.516,40.173 C90.4769,40.2144 90.4367,40.2545 90.3954,40.2934 C90.3561,40.3304 90.3159,40.3663 90.2747,40.401 C90.2353,40.4342 90.1951,40.4663 90.1541,40.4974 C90.1146,40.5274 90.0744,40.5563 90.0335,40.5843 C89.9939,40.6113 89.9536,40.6373 89.9128,40.6624 C89.8731,40.6868 89.8329,40.7103 89.7922,40.7328 C89.7525,40.7548 89.7123,40.776 89.6716,40.7962 C89.6318,40.816 89.5915,40.8349 89.5509,40.853 C89.5111,40.8707 89.4709,40.8875 89.4303,40.9035 C89.3904,40.9192 89.3502,40.9341 89.3097,40.9482 C89.2698,40.9621 89.2296,40.9752 89.1891,40.9874 C89.1491,40.9995 89.1089,41.0109 89.0684,41.0214 C89.0285,41.0318 88.9883,41.0414 88.9478,41.0502 C88.9079,41.059 88.8676,41.0668 88.8272,41.074 L88.7979,41.0793 C88.7744,41.0834 88.7432,41.088 88.7065,41.0926 C88.6709,41.0971 88.63,41.1018 88.5859,41.1062 C88.5477,41.1101 88.5071,41.1139 88.4653,41.1174 C88.4258,41.1207 88.3852,41.1236 88.3446,41.1262 C88.3041,41.1288 88.2635,41.131 88.224,41.1326 C88.1822,41.1343 88.1416,41.1354 88.1034,41.1356 L88.0843,41.1357 L87.9828,41.1357 L87.8621,41.1357 L87.7415,41.1357 L87.6209,41.1357 L87.5002,41.1357 L87.3796,41.1357 L87.259,41.1357 L87.1384,41.1357 L87.0177,41.1357 L86.8971,41.1357 L86.7765,41.1357 L86.6558,41.1357 L86.5352,41.1357 L86.4146,41.1357 L86.2939,41.1357 L86.1733,41.1357 L86.0527,41.1357 L85.9321,41.1357 L85.8114,41.1357 L85.6908,41.1357 L85.5702,41.1357 L85.4495,41.1357 L85.3289,41.1357 L85.2083,41.1357 L85.0876,41.1357 L84.967,41.1357 L84.8464,41.1357 L84.7258,41.1357 L84.6051,41.1357 L84.4845,41.1357 L84.3639,41.1357 L84.2432,41.1357 L84.1226,41.1357 L84.002,41.1357 L83.8814,41.1357 L83.7607,41.1357 L83.6401,41.1357 L83.5195,41.1357 L83.3988,41.1357 L83.2782,41.1357 L83.1576,41.1357 L83.0369,41.1357 L82.9163,41.1357 L82.7957,41.1357 L82.6751,41.1357 L82.5544,41.1357 L82.4338,41.1357 L82.3132,41.1357 L82.1925,41.1357 L82.0719,41.1357 L81.9513,41.1357 L81.8306,41.1357 L81.71,41.1357 L81.5894,41.1357 L81.5262,41.1357 L81.5262,35.05 L81.5894,35.05 L81.71,35.05 L81.8306,35.05 L81.9513,35.05 L82.0719,35.05 L82.1925,35.05 L82.3132,35.05 L82.4338,35.05 L82.5544,35.05 L82.6751,35.05 L82.7957,35.05 L82.9163,35.05 L83.0369,35.05 L83.1576,35.05 L83.2782,35.05 L83.3988,35.05 L83.5195,35.05 L83.6401,35.05 L83.7607,35.05 L83.8814,35.05 L84.002,35.05 L84.1226,35.05 L84.2432,35.05 L84.3639,35.05 L84.4845,35.05 L84.6051,35.05 L84.7258,35.05 L84.8464,35.05 L84.967,35.05 L85.0876,35.05 L85.2083,35.05 L85.3289,35.05 L85.4495,35.05 L85.5702,35.05 L85.6908,35.05 L85.8114,35.05 L85.9321,35.05 L86.0527,35.05 L86.1733,35.05 L86.2939,35.05 L86.4146,35.05 L86.5352,35.05 L86.6558,35.05 L86.7765,35.05 L86.8971,35.05 L87.0177,35.05 L87.1384,35.05 L87.259,35.05 L87.3796,35.05 L87.5002,35.05 L87.6209,35.05 L87.7415,35.05 L87.8621,35.05 L87.9828,35.05 L88.1034,35.05 L88.1542,35.05 L88.224,35.0523 C88.2635,35.0539 88.3041,35.0563 88.3446,35.0589 C88.3852,35.0615 88.4258,35.0645 88.4653,35.0677 C88.5071,35.0711 88.5477,35.0749 88.5859,35.0786 C88.63,35.0829 88.6709,35.0872 88.7065,35.0913 C88.7432,35.0955 88.7744,35.0995 88.7979,35.1028 L88.8272,35.1081 C88.8676,35.1154 88.9079,35.1235 88.9478,35.1324 C88.9883,35.1413 89.0285,35.151 89.0684,35.1615 C89.1089,35.1722 89.1491,35.1835 89.1891,35.1957 C89.2296,35.2081 89.2698,35.2213 89.3097,35.2352 C89.3502,35.2494 89.3904,35.2644 89.4303,35.2802 C89.4709,35.2963 89.5111,35.3133 89.5509,35.331 C89.5915,35.3492 89.6318,35.3681 89.6716,35.3879 C89.7123,35.4082 89.7525,35.4293 89.7922,35.4513 C89.8329,35.4739 89.8731,35.4975 89.9128,35.5219 C89.9536,35.547 89.9939,35.573 90.0335,35.6001 C90.0744,35.628 90.1146,35.6572 90.1541,35.6872 C90.1951,35.7183 90.2353,35.7504 90.2747,35.7836 C90.3159,35.8184 90.3561,35.8543 90.3954,35.8913 C90.4367,35.9302 90.4769,35.9703 90.516,36.0117 C90.5576,36.0557 90.5977,36.1012 90.6366,36.148 C90.6784,36.1983 90.7186,36.2502 90.7572,36.3036 C90.7994,36.3622 90.8398,36.4225 90.8779,36.4848 C90.9209,36.5551 90.9612,36.6278 90.9985,36.7027 C91.043,36.792 91.0833,36.8847 91.1191,36.9803 C91.1681,37.1113 91.2086,37.248 91.2398,37.3903 L91.2398,37.3903 L91.2398,37.3903 Z M106.2001,5.8336 L106.2496,5.8336 L106.2495,68.3355 C106.2495,68.7089 106.2322,69.0783 106.2001,69.4434 C106.1719,69.7647 106.1315,70.0825 106.0794,70.3964 C106.0444,70.6073 106.0042,70.8163 105.9588,71.0235 C105.9219,71.192 105.8817,71.3594 105.8381,71.5253 C105.8004,71.6685 105.7601,71.8106 105.7175,71.9517 C105.679,72.0793 105.6392,72.2063 105.5968,72.3322 C105.5583,72.4463 105.5178,72.5595 105.4762,72.6722 C105.4374,72.7771 105.397,72.8813 105.3555,72.9849 C105.3165,73.0822 105.2763,73.1788 105.2349,73.2749 C105.1957,73.3659 105.1554,73.4564 105.1142,73.5463 C105.0749,73.6319 105.0347,73.7171 104.9936,73.8016 C104.9541,73.8826 104.914,73.9633 104.8729,74.0433 C104.8335,74.12 104.7932,74.1964 104.7523,74.2721 C104.7129,74.345 104.6724,74.4171 104.6316,74.4891 C104.5921,74.5588 104.5518,74.628 104.511,74.6968 C104.4713,74.7638 104.4311,74.8304 104.3903,74.8966 C104.3505,74.961 104.3105,75.0253 104.2696,75.089 C104.23,75.1506 104.1895,75.2117 104.1489,75.2725 C104.1093,75.3318 104.0689,75.3904 104.0283,75.449 C103.9885,75.5065 103.9483,75.5638 103.9076,75.6206 C103.8678,75.676 103.8277,75.7312 103.787,75.786 C103.7473,75.8394 103.7068,75.8921 103.6663,75.9448 C103.6264,75.9967 103.5863,76.0485 103.5457,76.0997 C103.5058,76.15 103.4657,76.1999 103.425,76.2495 C103.3852,76.298 103.3448,76.3461 103.3044,76.394 C103.2643,76.4414 103.2245,76.489 103.1837,76.5358 C103.1439,76.5815 103.1035,76.6266 103.0631,76.6717 C103.0232,76.7163 102.9829,76.7606 102.9424,76.8046 C102.9024,76.848 102.8624,76.8913 102.8218,76.9341 C102.782,76.9761 102.7415,77.0174 102.7011,77.0589 C102.661,77.1001 102.6211,77.1415 102.5804,77.1821 C102.5406,77.2218 102.5001,77.2607 102.4598,77.2999 C102.4197,77.3388 102.3797,77.3778 102.3391,77.4162 C102.2992,77.4539 102.2589,77.4912 102.2185,77.5284 C102.1785,77.5653 102.1382,77.602 102.0978,77.6383 C102.0578,77.6742 102.0177,77.7099 101.9772,77.7453 C101.9372,77.7803 101.8969,77.8149 101.8565,77.8494 C101.8164,77.8836 101.7764,77.9177 101.7359,77.9514 C101.696,77.9846 101.6556,78.0173 101.6152,78.05 C101.5751,78.0825 101.5351,78.115 101.4946,78.1471 C101.4547,78.1787 101.4142,78.2096 101.3739,78.2407 C101.3338,78.2716 101.2938,78.3026 101.2533,78.3331 C101.2134,78.3631 101.1729,78.3925 101.1326,78.4221 C101.0924,78.4515 101.0524,78.4812 101.0119,78.5102 C100.972,78.5388 100.9316,78.5666 100.8913,78.5947 C100.8511,78.6227 100.8111,78.6509 100.7706,78.6784 C100.7306,78.7056 100.6903,78.7321 100.65,78.7589 C100.6099,78.7855 100.5698,78.8122 100.5293,78.8384 C100.4893,78.8643 100.449,78.8897 100.4087,78.9151 C100.3686,78.9404 100.3284,78.9657 100.288,78.9905 C100.248,79.0151 100.2078,79.0394 100.1674,79.0636 L100.0467,79.135 C100.0066,79.1584 99.9665,79.1818 99.9261,79.2048 C99.8861,79.2276 99.8457,79.2499 99.8054,79.2723 C99.7652,79.2946 99.7252,79.3171 99.6848,79.3389 C99.6448,79.3605 99.6044,79.3814 99.5641,79.4026 C99.5238,79.4238 99.4839,79.4455 99.4434,79.4663 C99.4035,79.4868 99.363,79.5063 99.3228,79.5264 C99.2826,79.5465 99.2426,79.5667 99.2021,79.5863 C99.1621,79.6057 99.1217,79.6247 99.0815,79.6437 L98.9608,79.7001 L98.8402,79.7548 C98.8001,79.7727 98.7598,79.7901 98.7195,79.8076 C98.6793,79.825 98.6393,79.8429 98.5989,79.8599 C98.5589,79.8768 98.5185,79.8927 98.4782,79.9092 C98.438,79.9256 98.398,79.9425 98.3576,79.9585 C98.3175,79.9744 98.2772,79.9895 98.2369,80.005 C98.1968,80.0204 98.1567,80.0358 98.1163,80.0508 L97.9956,80.0953 C97.9555,80.1098 97.9151,80.1238 97.8749,80.1378 C97.8347,80.1519 97.7948,80.1665 97.7543,80.1802 C97.7143,80.1937 97.6738,80.2063 97.6336,80.2194 L97.513,80.2585 C97.4729,80.2712 97.4326,80.2834 97.3923,80.2957 L97.2717,80.3316 C97.2315,80.3434 97.1914,80.3555 97.151,80.3669 C97.111,80.3782 97.0706,80.3887 97.0304,80.3996 C96.9902,80.4105 96.9501,80.4217 96.9097,80.4322 L96.7891,80.4626 L96.6684,80.4921 L96.5478,80.5208 C96.5077,80.53 96.4674,80.5383 96.4271,80.5471 C96.3869,80.5559 96.3468,80.565 96.3064,80.5734 L96.1858,80.5975 L96.0651,80.6206 C96.0249,80.6281 95.9848,80.6362 95.9445,80.6433 C95.9044,80.6504 95.864,80.6566 95.8238,80.6633 L95.7032,80.6833 L95.5825,80.7014 L95.4619,80.7183 C95.4216,80.7238 95.3816,80.73 95.3412,80.7352 C95.3011,80.7403 95.2607,80.7443 95.2206,80.749 C95.1804,80.7537 95.1402,80.7585 95.0999,80.7628 C95.0597,80.7671 95.0196,80.7715 94.9793,80.7754 C94.9392,80.7793 94.8988,80.7826 94.8586,80.7861 C94.8183,80.7896 94.7782,80.7936 94.7379,80.7968 C94.6978,80.7999 94.6575,80.8024 94.6173,80.8052 L94.4966,80.8128 C94.4564,80.8152 94.4163,80.8181 94.376,80.8201 C94.3359,80.8221 94.2955,80.8231 94.2553,80.8247 L94.1347,80.8293 L94.014,80.8324 C93.9739,80.8333 93.9336,80.8334 93.8934,80.834 L93.7727,80.8355 L93.7478,80.8358 L93.6521,80.8358 L93.5314,80.8358 L93.4108,80.8358 L93.2901,80.8358 L93.1694,80.8358 L93.0488,80.8358 L92.9281,80.8358 L92.8075,80.8358 L92.6868,80.8358 L92.5662,80.8358 L92.4455,80.8358 L92.3249,80.8358 L92.2042,80.8358 L92.0836,80.8358 L91.9629,80.8358 L91.8422,80.8358 L91.7216,80.8358 L91.6009,80.8358 L91.4803,80.8358 L91.3596,80.8358 L91.239,80.8358 L91.1183,80.8358 L90.9977,80.8358 L90.877,80.8358 L90.7564,80.8358 L90.6357,80.8358 L90.5151,80.8358 L90.3944,80.8358 L90.2737,80.8358 L90.1531,80.8358 L90.0324,80.8358 L89.9118,80.8358 L89.7911,80.8358 L89.6705,80.8358 L89.5498,80.8358 L89.4292,80.8358 L89.3085,80.8358 L89.1879,80.8358 L89.0672,80.8358 L88.9466,80.8358 L88.8259,80.8358 L88.7052,80.8358 L88.5846,80.8358 L88.4639,80.8358 L88.3433,80.8358 L88.2226,80.8358 L88.102,80.8358 L87.9813,80.8358 L87.8607,80.8358 L87.74,80.8358 L87.6194,80.8358 L87.4987,80.8358 L87.3781,80.8358 L87.2574,80.8358 L87.1367,80.8358 L87.0161,80.8358 L86.8954,80.8358 L86.7748,80.8358 L86.6541,80.8358 L86.5335,80.8358 L86.4128,80.8358 L86.2922,80.8358 L86.1715,80.8358 L86.0509,80.8358 L85.9302,80.8358 L85.8096,80.8358 L85.6889,80.8358 L85.5682,80.8358 L85.4476,80.8358 L85.3269,80.8358 L85.2063,80.8358 L85.0856,80.8358 L84.965,80.8358 L84.8443,80.8358 L84.7237,80.8358 L84.603,80.8358 L84.4824,80.8358 L84.3617,80.8358 L84.2411,80.8358 L84.1204,80.8358 L83.9997,80.8358 L83.8791,80.8358 L83.7584,80.8358 L83.6378,80.8358 L83.5171,80.8358 L83.3965,80.8358 L83.2758,80.8358 L83.1552,80.8358 L83.0345,80.8358 L82.9139,80.8358 L82.7932,80.8358 L82.6726,80.8358 L82.5519,80.8358 L82.4312,80.8358 L82.3106,80.8358 L82.1899,80.8358 L82.0693,80.8358 L81.9486,80.8358 L81.828,80.8358 L81.7073,80.8358 L81.5867,80.8358 L81.466,80.8358 L81.3454,80.8358 L81.2247,80.8358 L81.1041,80.8358 L80.9834,80.8358 L80.8627,80.8358 L80.7421,80.8358 L80.6214,80.8358 L80.5008,80.8358 L80.3801,80.8358 L80.2595,80.8358 L80.1388,80.8358 L80.0182,80.8358 L79.8975,80.8358 L79.7769,80.8358 L79.6562,80.8358 L79.5356,80.8358 L79.4149,80.8358 L79.2942,80.8358 L79.1736,80.8358 L79.0529,80.8358 L78.9323,80.8358 L78.8116,80.8358 L78.691,80.8358 L78.5703,80.8358 L78.4497,80.8358 L78.329,80.8358 L78.2084,80.8358 L78.0877,80.8358 L77.9671,80.8358 L77.8464,80.8358 L77.7257,80.8358 L77.6051,80.8358 L77.4844,80.8358 L77.3638,80.8358 L77.2431,80.8358 L77.1225,80.8358 L77.0018,80.8358 L76.8812,80.8358 L76.7605,80.8358 L76.6399,80.8358 L76.5192,80.8358 L76.3986,80.8358 L76.2779,80.8358 L76.1572,80.8358 L76.0366,80.8358 L75.9159,80.8358 L75.7953,80.8358 L75.6746,80.8358 L75.4143,80.8358 L75.4143,55.3516 L75.6746,55.3516 L75.7953,55.3516 L75.9159,55.3516 L76.0366,55.3516 L76.1572,55.3516 L76.2779,55.3516 L76.3986,55.3516 L76.5192,55.3516 L76.6399,55.3516 L76.7605,55.3516 L76.8812,55.3516 L77.0018,55.3516 L77.1225,55.3516 L77.2431,55.3516 L77.3638,55.3516 L77.4844,55.3516 L77.6051,55.3516 L77.7257,55.3516 L77.8464,55.3516 L77.9671,55.3516 L78.0877,55.3516 L78.2084,55.3516 L78.329,55.3516 L78.4497,55.3516 L78.5703,55.3516 L78.691,55.3516 L78.8116,55.3516 L78.9323,55.3516 L79.0529,55.3516 L79.1736,55.3516 L79.2942,55.3516 L79.4149,55.3516 L79.5356,55.3516 L79.6562,55.3516 L79.7769,55.3516 L79.8975,55.3516 L80.0182,55.3516 L80.1388,55.3516 L80.2595,55.3516 L80.3801,55.3516 L80.5008,55.3516 L80.6214,55.3516 L80.7421,55.3516 L80.8627,55.3516 L80.9834,55.3516 L81.1041,55.3516 L81.2247,55.3516 L81.3454,55.3516 L81.466,55.3516 L81.5867,55.3516 L81.7073,55.3516 L81.828,55.3516 L81.9486,55.3516 L82.0693,55.3516 L82.1899,55.3516 L82.3106,55.3516 L82.4312,55.3516 L82.5519,55.3516 L82.6726,55.3516 L82.7932,55.3516 L82.9139,55.3516 L83.0345,55.3516 L83.1552,55.3516 L83.2758,55.3516 L83.3965,55.3516 L83.5171,55.3516 L83.6378,55.3516 L83.7584,55.3516 L83.8791,55.3516 L83.9997,55.3516 L84.1204,55.3516 L84.2411,55.3516 L84.3617,55.3516 L84.4824,55.3516 L84.603,55.3516 L84.7237,55.3516 L84.8443,55.3516 L84.965,55.3516 L85.0856,55.3516 L85.2063,55.3516 L85.3269,55.3516 L85.4476,55.3516 L85.5682,55.3516 L85.6889,55.3516 L85.8096,55.3516 L85.9302,55.3516 L86.0509,55.3516 L86.1715,55.3516 L86.2922,55.3516 L86.4128,55.3516 L86.5335,55.3516 L86.6541,55.3516 L86.7748,55.3516 L86.8954,55.3516 L87.0161,55.3516 L87.1367,55.3516 L87.2574,55.3516 L87.3781,55.3516 L87.4987,55.3516 L87.6194,55.3516 L87.74,55.3516 L87.8607,55.3516 L87.9813,55.3516 L88.102,55.3516 L88.2226,55.3516 L88.3433,55.3516 L88.4639,55.3516 L88.5846,55.3516 L88.7052,55.3516 L88.8259,55.3516 L88.9466,55.3516 L89.0672,55.3516 L89.1879,55.3516 L89.3085,55.3516 L89.4292,55.3516 L89.5498,55.3516 L89.6705,55.3516 L89.7911,55.3516 L89.9118,55.3516 L90.0324,55.3516 L90.1531,55.3516 L90.2737,55.3516 L90.3944,55.3516 L90.5151,55.3516 L90.6357,55.3516 L90.7564,55.3516 L90.877,55.3516 L90.9977,55.3516 L91.1183,55.3516 L91.239,55.3516 L91.3596,55.3516 L91.4803,55.3516 L91.6009,55.3516 L91.7216,55.3516 L91.8422,55.3516 L91.9629,55.3516 L92.0836,55.3516 L92.2042,55.3516 L92.3249,55.3516 L92.4455,55.3516 L92.5662,55.3516 L92.6868,55.3516 L92.8075,55.3516 L92.9281,55.3516 L93.0488,55.3516 L93.1694,55.3516 L93.2901,55.3516 L93.4108,55.3516 L93.5314,55.3516 L93.6521,55.3516 L93.7727,55.3516 L93.8934,55.3516 L94.014,55.3516 L94.1347,55.3516 L94.2553,55.3516 L94.376,55.3516 L94.4966,55.3516 L94.6173,55.3516 L94.7379,55.3516 L94.8019,55.3516 L94.8586,55.3511 L94.9793,55.3501 L95.0999,55.3476 C95.1402,55.3466 95.1805,55.346 95.2206,55.3446 C95.261,55.3432 95.301,55.3413 95.3412,55.3395 L95.4619,55.3339 L95.5825,55.3266 L95.7032,55.3183 L95.8238,55.3089 L95.9445,55.2978 C95.9847,55.294 96.0251,55.2903 96.0651,55.2861 C96.1055,55.2819 96.1456,55.2771 96.1858,55.2724 L96.3064,55.2577 C96.3468,55.2525 96.387,55.2475 96.4271,55.2419 C96.4675,55.2363 96.5076,55.2301 96.5478,55.2241 C96.5881,55.218 96.6284,55.212 96.6684,55.2055 L96.7891,55.1852 L96.9097,55.1635 C96.95,55.156 96.9904,55.1487 97.0304,55.1408 C97.0708,55.1328 97.1109,55.1242 97.151,55.1158 L97.2717,55.0897 C97.312,55.0807 97.3523,55.0717 97.3923,55.0623 C97.4328,55.0528 97.4729,55.0427 97.513,55.0327 C97.5533,55.0227 97.5936,55.0125 97.6336,55.002 C97.6739,54.9914 97.7143,54.9807 97.7543,54.9696 C97.7947,54.9585 97.8348,54.9469 97.8749,54.9352 C97.9153,54.9235 97.9556,54.9116 97.9956,54.8994 L98.1163,54.8616 C98.1568,54.8487 98.1968,54.8353 98.2369,54.8218 C98.2773,54.8082 98.3176,54.7946 98.3576,54.7805 C98.398,54.7663 98.4383,54.7521 98.4782,54.7374 C98.5188,54.7225 98.5588,54.7069 98.5989,54.6915 C98.6393,54.6759 98.6795,54.6601 98.7195,54.644 C98.7599,54.6277 98.8003,54.6115 98.8402,54.5947 C98.8807,54.5777 98.9208,54.5603 98.9608,54.5427 C99.0013,54.5249 99.0415,54.5067 99.0815,54.4883 C99.1219,54.4697 99.1622,54.451 99.2021,54.4319 C99.2425,54.4126 99.2829,54.3931 99.3228,54.3732 C99.3634,54.3529 99.4034,54.3323 99.4434,54.3114 C99.4839,54.2903 99.5241,54.2686 99.5641,54.2468 C99.6047,54.2247 99.6449,54.2024 99.6848,54.1797 C99.7253,54.1567 99.7656,54.1334 99.8054,54.1097 C99.8459,54.0857 99.8863,54.0615 99.9261,54.0368 C99.9667,54.0115 100.0068,53.9859 100.0467,53.96 C100.0874,53.9336 100.1275,53.9068 100.1674,53.8797 C100.208,53.8522 100.2482,53.8242 100.288,53.7959 C100.3287,53.767 100.3689,53.7378 100.4087,53.7082 C100.4494,53.678 100.4896,53.6474 100.5293,53.6164 C100.57,53.5846 100.6103,53.5526 100.65,53.5201 C100.6907,53.4868 100.7309,53.4531 100.7706,53.419 C100.8114,53.384 100.8516,53.3484 100.8913,53.3125 C100.9321,53.2756 100.9723,53.2381 101.0119,53.2003 C101.0528,53.1613 101.093,53.1218 101.1326,53.0818 C101.1736,53.0404 101.2137,52.9986 101.2533,52.9562 C101.2942,52.9124 101.3344,52.8679 101.3739,52.823 C101.4149,52.7763 101.4552,52.729 101.4946,52.6811 C101.5357,52.6312 101.5759,52.5807 101.6152,52.5296 C101.6563,52.476 101.6968,52.4221 101.7359,52.3672 C101.7774,52.3089 101.8173,52.2496 101.8565,52.1898 C101.898,52.1264 101.9383,52.0622 101.9772,51.9972 C102.019,51.9273 102.0592,51.8564 102.0978,51.7846 C102.1398,51.7065 102.1803,51.6275 102.2185,51.5472 C102.2612,51.4575 102.3013,51.3663 102.3391,51.2739 C102.3825,51.1679 102.4229,51.0605 102.4598,50.9511 C102.5052,50.8163 102.5452,50.6788 102.5804,50.5389 C102.6319,50.3344 102.6723,50.1245 102.7011,49.9095 C102.7361,49.6486 102.7545,49.3805 102.7545,49.105 C102.7545,48.8367 102.7363,48.5761 102.7011,48.323 C102.6722,48.1151 102.6318,47.9124 102.5804,47.7151 C102.5453,47.5806 102.505,47.4487 102.4598,47.3193 C102.4228,47.2132 102.3826,47.1086 102.3391,47.006 C102.3014,46.9171 102.2611,46.8295 102.2185,46.7433 C102.1802,46.6657 102.1399,46.5892 102.0978,46.5138 C102.0591,46.4444 102.019,46.3758 101.9772,46.3083 C101.9384,46.2456 101.898,46.1838 101.8565,46.1228 C101.8174,46.0652 101.7773,46.008 101.7359,45.9519 C101.6968,45.8989 101.6564,45.8468 101.6152,45.7952 C101.5759,45.7458 101.5357,45.6971 101.4946,45.6489 C101.4551,45.6027 101.415,45.5569 101.3739,45.5118 C101.3344,45.4684 101.2943,45.4255 101.2533,45.3832 C101.2138,45.3424 101.1735,45.3022 101.1326,45.2624 C101.093,45.2238 101.0527,45.1857 101.0119,45.1481 C100.9723,45.1116 100.932,45.0756 100.8913,45.04 C100.8516,45.0053 100.8114,44.971 100.7706,44.9372 C100.7309,44.9042 100.6907,44.8716 100.65,44.8394 C100.6102,44.808 100.57,44.7769 100.5293,44.7463 C100.4895,44.7163 100.4493,44.6868 100.4087,44.6575 C100.3689,44.6289 100.3286,44.6006 100.288,44.5727 C100.2482,44.5454 100.208,44.5183 100.1674,44.4916 C100.1275,44.4654 100.0873,44.4395 100.0467,44.414 C100.0068,44.389 99.9667,44.3642 99.9261,44.3398 C99.8863,44.3159 99.846,44.2923 99.8054,44.269 C99.7655,44.2461 99.7253,44.2235 99.6848,44.2012 C99.6449,44.1792 99.6047,44.1576 99.5641,44.1363 C99.5242,44.1152 99.4839,44.0944 99.4434,44.0738 C99.4035,44.0536 99.3633,44.0335 99.3228,44.0138 C99.2828,43.9944 99.2427,43.9751 99.2021,43.9562 C99.1622,43.9376 99.1219,43.9195 99.0815,43.9015 C99.0416,43.8837 99.0013,43.8662 98.9608,43.8489 C98.9208,43.8318 98.8806,43.815 98.8402,43.7984 C98.8001,43.782 98.7601,43.7656 98.7195,43.7497 C98.6795,43.734 98.6393,43.7185 98.5989,43.7033 C98.5589,43.6883 98.5186,43.6738 98.4782,43.6592 C98.4382,43.6448 98.398,43.6308 98.3576,43.6168 C98.3175,43.603 98.2774,43.5893 98.2369,43.5759 C98.1969,43.5627 98.1567,43.5498 98.1163,43.5371 C98.0763,43.5245 98.0359,43.5123 97.9956,43.5002 L97.8749,43.4648 C97.8348,43.4533 97.7947,43.4418 97.7543,43.4308 C97.7143,43.4199 97.6739,43.4094 97.6336,43.399 C97.5936,43.3886 97.5534,43.3786 97.513,43.3686 C97.4729,43.3587 97.4327,43.3489 97.3923,43.3395 C97.3523,43.3301 97.312,43.321 97.2717,43.3121 C97.2317,43.3032 97.1914,43.2947 97.151,43.2863 C97.1109,43.2779 97.0708,43.2695 97.0304,43.2616 L96.9097,43.2385 L96.7891,43.217 C96.749,43.21 96.7088,43.203 96.6684,43.1965 L96.5478,43.1775 C96.5077,43.1714 96.4674,43.1657 96.4271,43.1601 L96.3064,43.1436 L96.1858,43.1284 L96.0651,43.1148 L95.9445,43.1021 L95.8238,43.0909 L95.7032,43.0808 L95.5918,43.0722 L95.5917,42.9276 L95.7032,42.9103 L95.8238,42.8904 C95.8642,42.8835 95.9045,42.8766 95.9445,42.8693 L96.0651,42.8461 C96.1056,42.8381 96.1458,42.8298 96.1858,42.8213 L96.3064,42.795 C96.3468,42.7859 96.3872,42.7767 96.4271,42.7671 C96.4676,42.7573 96.5077,42.7471 96.5478,42.7369 C96.5883,42.7266 96.6284,42.7158 96.6684,42.705 C96.7088,42.694 96.7491,42.6828 96.7891,42.6713 C96.8295,42.6597 96.8698,42.648 96.9097,42.6359 C96.9501,42.6237 96.9905,42.6111 97.0304,42.5983 C97.0709,42.5853 97.111,42.5719 97.151,42.5584 C97.1916,42.5447 97.2317,42.5306 97.2717,42.5164 C97.3122,42.502 97.3524,42.4874 97.3923,42.4724 C97.4328,42.4572 97.4731,42.4418 97.513,42.4261 C97.5535,42.4102 97.5937,42.3939 97.6336,42.3774 C97.6742,42.3606 97.7144,42.3436 97.7543,42.3262 C97.7949,42.3085 97.835,42.2905 97.8749,42.2722 C97.9155,42.2537 97.9557,42.2347 97.9956,42.2155 C98.0362,42.196 98.0764,42.1761 98.1163,42.156 C98.1568,42.1355 98.1971,42.1147 98.2369,42.0936 C98.2775,42.0721 98.3178,42.0502 98.3576,42.0281 C98.3982,42.0055 98.4384,41.9826 98.4782,41.9594 C98.5188,41.9357 98.5591,41.9116 98.5989,41.8872 C98.6396,41.8623 98.6797,41.8371 98.7195,41.8115 C98.7602,41.7854 98.8004,41.7587 98.8402,41.7318 C98.8809,41.7043 98.9211,41.6764 98.9608,41.6481 C99.0016,41.6191 99.0418,41.5898 99.0815,41.5601 C99.1223,41.5296 99.1625,41.4988 99.2021,41.4675 C99.2429,41.4353 99.2832,41.4029 99.3228,41.3699 C99.3636,41.3359 99.4038,41.3014 99.4434,41.2666 C99.4844,41.2305 99.5245,41.194 99.5641,41.1571 C99.605,41.119 99.6453,41.0804 99.6848,41.0414 C99.7257,41.001 99.766,40.9602 99.8054,40.9189 C99.8465,40.8757 99.8867,40.8321 99.9261,40.7879 C99.9672,40.7419 100.0074,40.6952 100.0467,40.6481 C100.0879,40.5988 100.1282,40.5488 100.1674,40.4983 C100.2087,40.445 100.2489,40.391 100.288,40.3364 C100.3295,40.2785 100.3697,40.2199 100.4087,40.1607 C100.4503,40.0975 100.4906,40.0337 100.5293,39.969 C100.5712,39.8989 100.6115,39.828 100.65,39.7563 C100.6923,39.6774 100.7325,39.5976 100.7706,39.5169 C100.8135,39.4261 100.8537,39.334 100.8913,39.241 C100.9351,39.1326 100.9753,39.0227 101.0119,38.9114 C101.0579,38.7715 101.0982,38.6293 101.1326,38.4853 C101.1883,38.2517 101.2285,38.0132 101.2533,37.7706 C101.2729,37.5792 101.2831,37.3852 101.2831,37.1893 C101.2831,36.9824 101.2728,36.7807 101.2533,36.584 C101.2284,36.3326 101.1879,36.0898 101.1326,35.8554 C101.0981,35.709 101.0578,35.5659 101.0119,35.4263 C100.9752,35.3146 100.935,35.2051 100.8913,35.0977 C100.8536,35.0052 100.8134,34.9143 100.7706,34.8251 C100.7324,34.7455 100.6921,34.6672 100.65,34.5902 C100.6114,34.5197 100.5711,34.4503 100.5293,34.3819 C100.4904,34.3184 100.4503,34.2558 100.4087,34.1942 C100.3697,34.1365 100.3294,34.0797 100.288,34.0237 C100.2489,33.9707 100.2087,33.9184 100.1674,33.8669 C100.128,33.8177 100.088,33.769 100.0467,33.7211 C100.0074,33.6756 99.9671,33.6309 99.9261,33.5866 C99.8867,33.544 99.8464,33.502 99.8054,33.4605 C99.7659,33.4205 99.7257,33.3811 99.6848,33.3422 C99.6452,33.3045 99.605,33.2672 99.5641,33.2306 C99.5245,33.1951 99.4842,33.16 99.4434,33.1254 C99.4037,33.0918 99.3636,33.0586 99.3228,33.0259 C99.2831,32.9941 99.2429,32.9626 99.2021,32.9317 C99.1624,32.9015 99.1222,32.8718 99.0815,32.8425 C99.0417,32.8138 99.0015,32.7856 98.9608,32.7577 C98.921,32.7305 98.8809,32.7037 98.8402,32.6772 C98.8004,32.6512 98.7601,32.6256 98.7195,32.6004 C98.6797,32.5757 98.6394,32.5514 98.5989,32.5274 C98.559,32.5038 98.5188,32.4806 98.4782,32.4577 C98.4384,32.4352 98.3982,32.413 98.3576,32.3912 C98.3177,32.3697 98.2775,32.3487 98.2369,32.3278 C98.197,32.3073 98.1568,32.2871 98.1163,32.2672 C98.0763,32.2476 98.0362,32.2281 97.9956,32.2092 C97.9557,32.1905 97.9154,32.172 97.8749,32.154 C97.835,32.1362 97.7948,32.119 97.7543,32.1017 C97.7144,32.0847 97.674,32.068 97.6336,32.0515 C97.5937,32.0353 97.5534,32.0193 97.513,32.0036 C97.473,31.9881 97.4328,31.9727 97.3923,31.9577 C97.3523,31.9429 97.3122,31.9284 97.2717,31.9141 C97.2317,31.9 97.1915,31.8863 97.151,31.8727 C97.111,31.8593 97.0708,31.8462 97.0304,31.8333 C96.9904,31.8205 96.9502,31.8079 96.9097,31.7956 C96.8696,31.7834 96.8296,31.7712 96.7891,31.7595 C96.7491,31.748 96.7088,31.7369 96.6684,31.7259 C96.6284,31.7149 96.5882,31.7043 96.5478,31.6938 L96.4271,31.6631 C96.387,31.6532 96.3469,31.6435 96.3064,31.6341 C96.2664,31.6248 96.2262,31.6158 96.1858,31.607 L96.0651,31.5813 C96.025,31.573 95.985,31.5646 95.9445,31.5568 C95.9045,31.549 95.8641,31.5418 95.8238,31.5344 L95.7032,31.5132 C95.6631,31.5064 95.623,31.4995 95.5825,31.4931 L95.4619,31.4748 L95.3412,31.4578 L95.2206,31.4418 L95.0999,31.4275 L94.9793,31.4145 L94.8586,31.4024 L94.7379,31.3918 L94.6173,31.3825 L94.4966,31.3739 L94.376,31.367 L94.3281,31.3643 L94.2553,31.3598 L94.1347,31.3527 L94.014,31.346 L93.8934,31.3397 L93.7727,31.3339 L93.6521,31.3287 L93.5314,31.3243 L93.4108,31.3206 L93.2901,31.3179 L93.1694,31.3163 L93.1029,31.3161 L93.0488,31.3161 L92.9281,31.3161 L92.8075,31.3161 L92.6868,31.3161 L92.5662,31.3161 L92.4455,31.3161 L92.3249,31.3161 L92.2042,31.3161 L92.0836,31.3161 L91.9629,31.3161 L91.8422,31.3161 L91.7216,31.3161 L91.6009,31.3161 L91.4803,31.3161 L91.3596,31.3161 L91.239,31.3161 L91.1183,31.3161 L90.9977,31.3161 L90.877,31.3161 L90.7564,31.3161 L90.6357,31.3161 L90.5151,31.3161 L90.3944,31.3161 L90.2737,31.3161 L90.1531,31.3161 L90.0324,31.3161 L89.9118,31.3161 L89.7911,31.3161 L89.6705,31.3161 L89.5498,31.3161 L89.4292,31.3161 L89.3085,31.3161 L89.1879,31.3161 L89.0672,31.3161 L88.9466,31.3161 L88.8259,31.3161 L88.7052,31.3161 L88.5846,31.3161 L88.4639,31.3161 L88.3433,31.3161 L88.2226,31.3161 L88.102,31.3161 L87.9813,31.3161 L87.8607,31.3161 L87.74,31.3161 L87.6194,31.3161 L87.4987,31.3161 L87.3781,31.3161 L87.2574,31.3161 L87.1367,31.3161 L87.0161,31.3161 L86.8954,31.3161 L86.7748,31.3161 L86.6541,31.3161 L86.5335,31.3161 L86.4128,31.3161 L86.2922,31.3161 L86.1715,31.3161 L86.0509,31.3161 L85.9302,31.3161 L85.8096,31.3161 L85.6889,31.3161 L85.5682,31.3161 L85.4476,31.3161 L85.3269,31.3161 L85.2063,31.3161 L85.0856,31.3161 L84.965,31.3161 L84.8443,31.3161 L84.7237,31.3161 L84.603,31.3161 L84.4824,31.3161 L84.3617,31.3161 L84.2411,31.3161 L84.1204,31.3161 L83.9997,31.3161 L83.8791,31.3161 L83.7584,31.3161 L83.6378,31.3161 L83.5171,31.3161 L83.3965,31.3161 L83.2758,31.3161 L83.1552,31.3161 L83.0345,31.3161 L82.9139,31.3161 L82.7932,31.3161 L82.6726,31.3161 L82.5519,31.3161 L82.4312,31.3161 L82.3106,31.3161 L82.1899,31.3161 L82.0693,31.3161 L81.9486,31.3161 L81.828,31.3161 L81.7073,31.3161 L81.5867,31.3161 L81.466,31.3161 L81.3454,31.3161 L81.2247,31.3161 L81.1041,31.3161 L80.9834,31.3161 L80.8627,31.3161 L80.7421,31.3161 L80.6214,31.3161 L80.5008,31.3161 L80.3801,31.3161 L80.2595,31.3161 L80.1388,31.3161 L80.0182,31.3161 L79.8975,31.3161 L79.7769,31.3161 L79.6562,31.3161 L79.5356,31.3161 L79.4149,31.3161 L79.2942,31.3161 L79.1736,31.3161 L79.0529,31.3161 L78.9323,31.3161 L78.8116,31.3161 L78.691,31.3161 L78.5703,31.3161 L78.4497,31.3161 L78.329,31.3161 L78.2084,31.3161 L78.0877,31.3161 L77.9671,31.3161 L77.8464,31.3161 L77.7257,31.3161 L77.6051,31.3161 L77.4844,31.3161 L77.3638,31.3161 L77.2431,31.3161 L77.1225,31.3161 L77.0018,31.3161 L76.8812,31.3161 L76.7605,31.3161 L76.6399,31.3161 L76.5192,31.3161 L76.3986,31.3161 L76.2779,31.3161 L76.1572,31.3161 L76.0366,31.3161 L75.9159,31.3161 L75.7953,31.3161 L75.6746,31.3161 L75.4143,31.3161 L75.4143,18.335 C75.4143,17.4617 75.5042,16.6095 75.6746,15.7867 C75.7112,15.6105 75.7515,15.4358 75.7953,15.2625 C75.8328,15.1142 75.8732,14.967 75.9159,14.8209 C75.9541,14.6904 75.9943,14.5608 76.0366,14.4321 C76.0752,14.3145 76.1152,14.1975 76.1572,14.0815 C76.1961,13.9739 76.2361,13.8669 76.2779,13.7607 C76.317,13.6615 76.3571,13.5628 76.3986,13.4649 C76.4378,13.3725 76.4779,13.2805 76.5192,13.1892 C76.5584,13.1025 76.5988,13.0164 76.6399,12.9308 C76.6791,12.8491 76.7195,12.768 76.7605,12.6873 C76.7999,12.6097 76.8403,12.5327 76.8812,12.456 C76.9206,12.3821 76.9609,12.3087 77.0018,12.2357 C77.0414,12.1649 77.0816,12.0947 77.1225,12.0248 C77.1622,11.957 77.2022,11.8895 77.2431,11.8226 C77.2828,11.7577 77.323,11.6933 77.3638,11.6292 C77.4033,11.5671 77.4438,11.5056 77.4844,11.4443 C77.5242,11.3843 77.5643,11.3245 77.6051,11.2652 C77.645,11.2071 77.6848,11.149 77.7257,11.0916 C77.7654,11.036 77.8059,10.9811 77.8464,10.9262 C77.8861,10.8722 77.9265,10.8186 77.9671,10.7653 C78.0071,10.7128 78.0469,10.6601 78.0877,10.6083 C78.1274,10.5579 78.168,10.5083 78.2084,10.4585 C78.2482,10.4094 78.2884,10.3607 78.329,10.3123 C78.369,10.2645 78.409,10.2167 78.4497,10.1695 C78.4894,10.1235 78.5299,10.0783 78.5703,10.0329 C78.6104,9.9879 78.6503,9.9428 78.691,9.8984 C78.7308,9.8549 78.7712,9.8118 78.8116,9.7688 C78.8515,9.7264 78.8918,9.6843 78.9323,9.6424 C78.9723,9.6011 79.0123,9.5598 79.0529,9.519 C79.0928,9.4789 79.1332,9.4394 79.1736,9.3999 C79.2137,9.3606 79.2535,9.3209 79.2942,9.2822 C79.334,9.2443 79.3746,9.2073 79.4149,9.1699 C79.455,9.1327 79.495,9.0954 79.5356,9.0587 C79.5755,9.0226 79.6159,8.9872 79.6562,8.9517 C79.6963,8.9164 79.7364,8.8811 79.7769,8.8463 C79.8169,8.812 79.8571,8.7782 79.8975,8.7444 C79.9376,8.7109 79.9777,8.6775 80.0182,8.6445 C80.0582,8.6118 80.0984,8.5795 80.1388,8.5474 L80.2595,8.4525 L80.3801,8.3601 C80.4202,8.3298 80.4604,8.2997 80.5008,8.2699 C80.5408,8.2404 80.581,8.211 80.6214,8.1819 L80.7421,8.0962 C80.7821,8.0681 80.8223,8.0402 80.8627,8.0126 L80.9834,7.9309 L81.1041,7.8514 C81.1442,7.8253 81.1843,7.7993 81.2247,7.7737 L81.3454,7.6983 C81.3856,7.6734 81.4256,7.6485 81.466,7.6241 C81.506,7.5999 81.5464,7.5764 81.5867,7.5527 C81.6269,7.529 81.6668,7.5051 81.7073,7.4819 C81.7472,7.459 81.7878,7.4369 81.828,7.4144 C81.8682,7.3919 81.9081,7.369 81.9486,7.347 C81.9886,7.3253 82.0291,7.3043 82.0693,7.283 C82.1095,7.2617 82.1495,7.2403 82.1899,7.2194 C82.2299,7.1987 82.2703,7.1786 82.3106,7.1584 C82.3507,7.1383 82.3909,7.1181 82.4312,7.0984 L82.5519,7.0401 C82.592,7.021 82.6323,7.0024 82.6726,6.9837 C82.7128,6.9651 82.7528,6.9462 82.7932,6.928 C82.8332,6.91 82.8737,6.8928 82.9139,6.8752 C82.9541,6.8576 82.9941,6.8397 83.0345,6.8225 C83.0745,6.8055 83.115,6.7893 83.1552,6.7727 C83.1953,6.7562 83.2354,6.7395 83.2758,6.7234 L83.3965,6.6759 L83.5171,6.63 C83.5574,6.6148 83.5974,6.5994 83.6378,6.5847 C83.6778,6.5701 83.7182,6.5564 83.7584,6.5422 C83.7987,6.528 83.8387,6.5135 83.8791,6.4997 C83.9191,6.486 83.9595,6.4731 83.9997,6.4598 L84.1204,6.4207 C84.1606,6.4079 84.2007,6.395 84.2411,6.3826 C84.2811,6.3703 84.3215,6.3587 84.3617,6.3468 C84.4019,6.3348 84.442,6.3224 84.4824,6.3109 C84.5224,6.2995 84.5628,6.2889 84.603,6.2779 C84.6432,6.2669 84.6833,6.2558 84.7237,6.2452 L84.8443,6.214 C84.8844,6.2039 84.9247,6.1943 84.965,6.1846 C85.0052,6.1749 85.0452,6.1645 85.0856,6.1552 C85.1256,6.146 85.1661,6.1376 85.2063,6.1287 L85.3269,6.1024 L85.4476,6.0775 C85.4876,6.0695 85.528,6.062 85.5682,6.0544 C85.6085,6.0467 85.6485,6.0385 85.6889,6.0312 C85.729,6.0239 85.7694,6.0177 85.8096,6.0109 L85.9302,5.9909 C85.9704,5.9845 86.0106,5.9779 86.0509,5.9719 C86.091,5.9659 86.1313,5.9606 86.1715,5.955 C86.2118,5.9494 86.2518,5.9433 86.2922,5.9381 C86.3323,5.9329 86.3726,5.9283 86.4128,5.9235 L86.5335,5.9097 C86.5737,5.9053 86.6138,5.9004 86.6541,5.8964 C86.6942,5.8924 86.7346,5.8893 86.7748,5.8857 L86.8954,5.875 L87.0161,5.8659 C87.0562,5.863 87.0965,5.8607 87.1367,5.8582 C87.1769,5.8558 87.217,5.8527 87.2574,5.8506 C87.2975,5.8485 87.3379,5.8473 87.3781,5.8456 L87.4987,5.8411 C87.539,5.8398 87.5791,5.8381 87.6194,5.8372 C87.6595,5.8363 87.6998,5.8362 87.74,5.8356 C87.7802,5.835 87.8204,5.8343 87.8607,5.8341 L87.891,5.8337 L87.9813,5.8337 L88.102,5.8337 L88.2226,5.8337 L88.3433,5.8337 L88.4639,5.8337 L88.5846,5.8337 L88.7052,5.8337 L88.8259,5.8337 L88.9466,5.8337 L89.0672,5.8337 L89.1879,5.8337 L89.3085,5.8337 L89.4292,5.8337 L89.5498,5.8337 L89.6705,5.8337 L89.7911,5.8337 L89.9118,5.8337 L90.0324,5.8337 L90.1531,5.8337 L90.2737,5.8337 L90.3944,5.8337 L90.5151,5.8337 L90.6357,5.8337 L90.7564,5.8337 L90.877,5.8337 L90.9977,5.8337 L91.1183,5.8337 L91.239,5.8337 L91.3596,5.8337 L91.4803,5.8337 L91.6009,5.8337 L91.7216,5.8337 L91.8422,5.8337 L91.9629,5.8337 L92.0836,5.8337 L92.2042,5.8337 L92.3249,5.8337 L92.4455,5.8337 L92.5662,5.8337 L92.6868,5.8337 L92.8075,5.8337 L92.9281,5.8337 L93.0488,5.8337 L93.1694,5.8337 L93.2901,5.8337 L93.4108,5.8337 L93.5314,5.8337 L93.6521,5.8337 L93.7727,5.8337 L93.8934,5.8337 L94.014,5.8337 L94.1347,5.8337 L94.2553,5.8337 L94.376,5.8337 L94.4966,5.8337 L94.6173,5.8337 L94.7379,5.8337 L94.8586,5.8337 L94.9793,5.8337 L95.0999,5.8337 L95.2206,5.8337 L95.3412,5.8337 L95.4619,5.8337 L95.5825,5.8337 L95.7032,5.8337 L95.8238,5.8337 L95.9445,5.8337 L96.0651,5.8337 L96.1858,5.8337 L96.3064,5.8337 L96.4271,5.8337 L96.5478,5.8337 L96.6684,5.8337 L96.7891,5.8337 L96.9097,5.8337 L97.0304,5.8337 L97.151,5.8337 L97.2717,5.8337 L97.3923,5.8337 L97.513,5.8337 L97.6336,5.8337 L97.7543,5.8337 L97.8749,5.8337 L97.9956,5.8337 L98.1163,5.8337 L98.2369,5.8337 L98.3576,5.8337 L98.4782,5.8337 L98.5989,5.8337 L98.7195,5.8337 L98.8402,5.8337 L98.9608,5.8337 L99.0815,5.8337 L99.2021,5.8337 L99.3228,5.8337 L99.4434,5.8337 L99.5641,5.8337 L99.6848,5.8337 L99.8054,5.8337 L99.9261,5.8337 L100.0467,5.8337 L100.1674,5.8337 L100.288,5.8337 L100.4087,5.8337 L100.5293,5.8337 L100.65,5.8337 L100.7706,5.8337 L100.8913,5.8337 L101.0119,5.8337 L101.1326,5.8337 L101.2533,5.8337 L101.3739,5.8337 L101.4946,5.8337 L101.6152,5.8337 L101.7359,5.8337 L101.8565,5.8337 L101.9772,5.8337 L102.0978,5.8337 L102.2185,5.8337 L102.3391,5.8337 L102.4598,5.8337 L102.5804,5.8337 L102.7011,5.8337 L102.8218,5.8337 L102.9424,5.8337 L103.0631,5.8337 L103.1837,5.8337 L103.3044,5.8337 L103.425,5.8337 L103.5457,5.8337 L103.6663,5.8337 L103.787,5.8337 L103.9076,5.8337 L104.0283,5.8337 L104.1489,5.8337 L104.2696,5.8337 L104.3903,5.8337 L104.511,5.8337 L104.6316,5.8337 L104.7523,5.8337 L104.8729,5.8337 L104.9936,5.8337 L105.1142,5.8337 L105.2349,5.8337 L105.3555,5.8337 L105.4762,5.8337 L105.5968,5.8337 L105.7175,5.8337 L105.8381,5.8337 L105.9588,5.8337 L106.0794,5.8337 L106.2001,5.8337 L106.2001,5.8336 L106.2001,5.8336 L106.2001,5.8336 Z" id="Shape" fill="url(#linearGradient-1)" sketch:type="MSShapeGroup"></path>
            <path d="M6.5081,49.3308 C6.4218,49.2898 6.3356,49.2485 6.2494,49.2068 L6.2494,18.3349 C6.2494,17.4641 6.3386,16.6141 6.5081,15.7935 C6.5445,15.6173 6.5849,15.4427 6.6286,15.2693 C6.666,15.1208 6.7063,14.9735 6.749,14.8272 C6.7871,14.6968 6.8273,14.5674 6.8694,14.4388 C6.908,14.3211 6.9479,14.2039 6.9899,14.0877 C7.0288,13.9802 7.0686,13.8733 7.1103,13.7672 C7.1492,13.668 7.1894,13.5691 7.2308,13.4711 C7.2699,13.3787 7.31,13.2869 7.3512,13.1957 C7.3904,13.109 7.4306,13.023 7.4716,12.9374 C7.5108,12.8556 7.5512,12.7744 7.5921,12.6936 C7.6314,12.616 7.6716,12.539 7.7125,12.4624 C7.7519,12.3885 7.7921,12.3151 7.8329,12.2421 C7.8724,12.1714 7.9125,12.1011 7.9534,12.0313 C7.993,11.9635 8.0329,11.8959 8.0738,11.8289 C8.1134,11.7641 8.1536,11.6998 8.1943,11.6358 C8.2337,11.5738 8.2742,11.5122 8.3147,11.4509 C8.3544,11.3909 8.3944,11.3311 8.4351,11.2718 C8.4751,11.2136 8.5147,11.1555 8.5556,11.098 C8.5951,11.0425 8.6356,10.9877 8.676,10.9328 C8.7158,10.8788 8.7559,10.8252 8.7965,10.7719 C8.8364,10.7195 8.8762,10.6667 8.9169,10.6149 C8.9565,10.5646 8.997,10.5151 9.0373,10.4654 C9.0771,10.4163 9.1172,10.3674 9.1578,10.3189 C9.1977,10.2712 9.2376,10.2236 9.2782,10.1765 C9.3179,10.1304 9.3583,10.0851 9.3987,10.0396 C9.4386,9.9945 9.4785,9.9495 9.5191,9.9051 C9.5588,9.8616 9.5992,9.8187 9.6395,9.7758 C9.6794,9.7333 9.7195,9.6912 9.76,9.6493 C9.7999,9.608 9.8399,9.5667 9.8804,9.5259 C9.9202,9.4858 9.9606,9.4463 10.0009,9.4068 C10.041,9.3675 10.0807,9.3279 10.1213,9.2892 C10.161,9.2513 10.2015,9.2143 10.2417,9.1769 C10.2818,9.1396 10.3216,9.1022 10.3622,9.0655 C10.402,9.0295 10.4424,8.9942 10.4826,8.9587 C10.5227,8.9234 10.5626,8.888 10.6031,8.8532 C10.643,8.8189 10.6832,8.7852 10.7235,8.7514 C10.7634,8.7179 10.8035,8.6844 10.8439,8.6514 C10.8838,8.6188 10.9241,8.5865 10.9644,8.5543 C11.0044,8.5224 11.0444,8.4908 11.0848,8.4594 C11.1247,8.4283 11.165,8.3976 11.2053,8.367 C11.2453,8.3367 11.2854,8.3065 11.3257,8.2767 L11.4461,8.1889 C11.4861,8.16 11.5262,8.1313 11.5666,8.1029 C11.6065,8.0748 11.6467,8.047 11.687,8.0194 C11.727,7.9919 11.7671,7.9646 11.8074,7.9376 C11.8474,7.9109 11.8876,7.8846 11.9279,7.8583 C11.9679,7.8322 12.0079,7.8059 12.0483,7.7802 C12.0882,7.7548 12.1285,7.73 12.1688,7.705 C12.2089,7.6801 12.2488,7.6549 12.2892,7.6305 C12.329,7.6064 12.3694,7.583 12.4096,7.5593 C12.4498,7.5356 12.4896,7.5115 12.5301,7.4882 C12.5699,7.4653 12.6104,7.4434 12.6505,7.4209 C12.6907,7.3984 12.7306,7.3756 12.771,7.3535 C12.8109,7.3317 12.8512,7.3107 12.8914,7.2894 C12.9315,7.2681 12.9715,7.2467 13.0118,7.2258 C13.0518,7.2051 13.092,7.1848 13.1323,7.1645 L13.2527,7.1047 C13.2928,7.085 13.3329,7.0653 13.3732,7.0461 C13.4132,7.027 13.4534,7.0085 13.4936,6.9898 C13.5338,6.9711 13.5736,6.952 13.614,6.9338 C13.6539,6.9157 13.6943,6.8987 13.7345,6.8811 C13.7746,6.8635 13.8146,6.8456 13.8549,6.8284 C13.8949,6.8114 13.9352,6.795 13.9754,6.7784 L14.0958,6.7292 L14.2162,6.6814 L14.3367,6.6356 C14.3769,6.6204 14.4167,6.6047 14.4571,6.5899 C14.497,6.5753 14.5375,6.5617 14.5776,6.5475 C14.6177,6.5333 14.6577,6.5189 14.698,6.5051 L14.8184,6.4648 L14.9389,6.4257 C14.979,6.4129 15.019,6.3998 15.0593,6.3874 C15.0992,6.3751 15.1396,6.3634 15.1797,6.3515 C15.2199,6.3395 15.2599,6.3273 15.3002,6.3157 C15.3402,6.3042 15.3804,6.2935 15.4206,6.2824 L15.5411,6.2497 C15.5812,6.2391 15.6212,6.2283 15.6615,6.2181 C15.7015,6.2079 15.7418,6.1986 15.7819,6.1888 C15.822,6.179 15.8621,6.1688 15.9024,6.1594 C15.9424,6.1501 15.9827,6.1414 16.0228,6.1325 L16.1433,6.1063 C16.1834,6.0977 16.2234,6.089 16.2637,6.0809 C16.3037,6.0729 16.344,6.0655 16.3841,6.0578 C16.4243,6.0501 16.4643,6.0421 16.5046,6.0348 C16.5447,6.0275 16.5848,6.0209 16.625,6.014 L16.7455,5.994 C16.7856,5.9876 16.8256,5.9807 16.8659,5.9746 C16.9059,5.9685 16.9462,5.9634 16.9863,5.9577 C17.0264,5.9521 17.0665,5.9461 17.1068,5.9408 L17.2272,5.9257 L17.3477,5.912 C17.3879,5.9075 17.4278,5.9023 17.4681,5.8982 C17.5081,5.8941 17.5484,5.8911 17.5885,5.8874 L17.709,5.8768 C17.7491,5.8734 17.7892,5.8701 17.8294,5.8672 C17.8695,5.8643 17.9097,5.862 17.9499,5.8595 C17.9901,5.857 18.0301,5.8541 18.0703,5.8519 C18.1103,5.8497 18.1505,5.8482 18.1907,5.8464 L18.3112,5.8418 C18.3513,5.8404 18.3913,5.8383 18.4316,5.8373 C18.4716,5.8363 18.5119,5.8364 18.552,5.8358 C18.5921,5.8352 18.6323,5.8345 18.6725,5.8343 L18.726,5.8336 L18.7929,5.8336 L18.9134,5.8336 L19.0338,5.8336 L19.1542,5.8336 L19.2747,5.8336 L19.3951,5.8336 L19.5156,5.8336 L19.636,5.8336 L19.7564,5.8336 L19.8769,5.8336 L19.9973,5.8336 L20.1178,5.8336 L20.2382,5.8336 L20.3586,5.8336 L20.4791,5.8336 L20.5995,5.8336 L20.72,5.8336 L20.8404,5.8336 L20.9608,5.8336 L21.0813,5.8336 L21.2017,5.8336 L21.3222,5.8336 L21.4426,5.8336 L21.563,5.8336 L21.6835,5.8336 L21.8039,5.8336 L21.9244,5.8336 L22.0448,5.8336 L22.1652,5.8336 L22.2857,5.8336 L22.4061,5.8336 L22.5266,5.8336 L22.647,5.8336 L22.7674,5.8336 L22.8879,5.8336 L23.0083,5.8336 L23.1287,5.8336 L23.2492,5.8336 L23.3696,5.8336 L23.4901,5.8336 L23.6105,5.8336 L23.7309,5.8336 L23.8514,5.8336 L23.9718,5.8336 L24.0923,5.8336 L24.2127,5.8336 L24.3331,5.8336 L24.4536,5.8336 L24.574,5.8336 L24.6945,5.8336 L24.8149,5.8336 L24.9353,5.8336 L25.0558,5.8336 L25.1762,5.8336 L25.2967,5.8336 L25.4171,5.8336 L25.5375,5.8336 L25.658,5.8336 L25.7784,5.8336 L25.8988,5.8336 L26.0193,5.8336 L26.1397,5.8336 L26.2602,5.8336 L26.3806,5.8336 L26.5011,5.8336 L26.6215,5.8336 L26.7419,5.8336 L26.8624,5.8336 L26.9828,5.8336 L27.1032,5.8336 L27.2237,5.8336 L27.3441,5.8336 L27.4646,5.8336 L27.585,5.8336 L27.7054,5.8336 L27.8259,5.8336 L27.9463,5.8336 L28.0668,5.8336 L28.1872,5.8336 L28.3076,5.8336 L28.4281,5.8336 L28.5485,5.8336 L28.669,5.8336 L28.7894,5.8336 L28.9098,5.8336 L29.0303,5.8336 L29.1507,5.8336 L29.2711,5.8336 L29.3916,5.8336 L29.512,5.8336 L29.6325,5.8336 L29.7529,5.8336 L29.8734,5.8336 L29.9938,5.8336 L30.1142,5.8336 L30.2347,5.8336 L30.3551,5.8336 L30.4756,5.8336 L30.596,5.8336 L30.7164,5.8336 L30.8369,5.8336 L30.9573,5.8336 L31.0777,5.8336 L31.1982,5.8336 L31.3186,5.8336 L31.4391,5.8336 L31.5595,5.8336 L31.68,5.8336 L31.8004,5.8336 L31.9208,5.8336 L32.0413,5.8336 L32.1617,5.8336 L32.2821,5.8336 L32.4026,5.8336 L32.523,5.8336 L32.6435,5.8336 L32.7639,5.8336 L32.8843,5.8336 L33.0048,5.8336 L33.1252,5.8336 L33.2456,5.8336 L33.3661,5.8336 L33.4865,5.8336 L33.607,5.8336 L33.7274,5.8336 L33.8479,5.8336 L33.9683,5.8336 L34.0887,5.8336 L34.2092,5.8336 L34.3296,5.8336 L34.45,5.8336 L34.5705,5.8336 L34.6909,5.8336 L34.8114,5.8336 L34.9318,5.8336 L35.0522,5.8336 L35.1727,5.8336 L35.2931,5.8336 L35.4136,5.8336 L35.534,5.8336 L35.6544,5.8336 L35.7749,5.8336 L35.8953,5.8336 L36.0158,5.8336 L36.1362,5.8336 L36.2566,5.8336 L36.3771,5.8336 L36.4975,5.8336 L36.6179,5.8336 L36.7384,5.8336 L36.8588,5.8336 L36.9793,5.8336 L37.0815,5.8336 L37.0815,68.3355 C37.0815,68.8792 37.0466,69.4148 36.9793,69.9402 C36.9469,70.1932 36.9061,70.4435 36.8588,70.6915 C36.8228,70.8801 36.7828,71.0673 36.7384,71.2528 C36.701,71.4091 36.661,71.5643 36.6179,71.7183 C36.58,71.8534 36.5397,71.9875 36.4975,72.1206 C36.4592,72.2412 36.4189,72.3609 36.3771,72.4799 C36.3384,72.59 36.2983,72.6995 36.2566,72.8082 C36.2177,72.9097 36.1776,73.0105 36.1362,73.1107 C36.0972,73.205 36.057,73.2989 36.0158,73.392 C35.9766,73.4804 35.9364,73.5682 35.8953,73.6556 C35.8561,73.7389 35.8159,73.8216 35.7749,73.9039 C35.7355,73.9829 35.6954,74.0614 35.6544,74.1394 C35.615,74.2145 35.5749,74.2892 35.534,74.3634 C35.4944,74.4352 35.4546,74.5067 35.4136,74.5776 C35.3741,74.646 35.3339,74.714 35.2931,74.7816 C35.2537,74.847 35.2133,74.9117 35.1727,74.9763 C35.1331,75.0394 35.0929,75.1021 35.0522,75.1644 C35.0124,75.2253 34.9726,75.2861 34.9318,75.3462 C34.8922,75.4045 34.8519,75.4624 34.8114,75.52 C34.7718,75.5763 34.7315,75.6321 34.6909,75.6878 C34.6511,75.7425 34.6111,75.797 34.5705,75.851 C34.5308,75.9038 34.4906,75.9562 34.45,76.0083 C34.4103,76.0592 34.37,76.1096 34.3296,76.1599 C34.2897,76.2096 34.2498,76.2593 34.2092,76.3083 C34.1695,76.3562 34.1291,76.4035 34.0887,76.4508 C34.0489,76.4974 34.0088,76.5436 33.9683,76.5896 C33.9283,76.635 33.8885,76.6806 33.8479,76.7254 C33.8082,76.7692 33.7677,76.8122 33.7274,76.8555 C33.6874,76.8984 33.6476,76.9414 33.607,76.9837 C33.5672,77.0252 33.5269,77.0661 33.4865,77.1071 C33.4466,77.1476 33.4066,77.1878 33.3661,77.2278 C33.3262,77.2673 33.2861,77.3065 33.2456,77.3455 C33.2058,77.3838 33.1655,77.4216 33.1252,77.4594 C33.0852,77.4969 33.0453,77.5345 33.0048,77.5715 C32.965,77.6078 32.9246,77.6434 32.8843,77.6792 C32.8442,77.7149 32.8045,77.7509 32.7639,77.786 C32.7242,77.8204 32.6836,77.8539 32.6435,77.8879 C32.6034,77.9218 32.5635,77.956 32.523,77.9894 C32.4832,78.0222 32.4428,78.0543 32.4026,78.0865 C32.3625,78.1187 32.3226,78.1512 32.2821,78.1829 C32.2423,78.2141 32.2019,78.2445 32.1617,78.2752 C32.1216,78.3058 32.0818,78.3366 32.0413,78.3667 C32.0015,78.3964 31.961,78.4253 31.9208,78.4546 C31.8807,78.4837 31.8409,78.5131 31.8004,78.5418 C31.7606,78.57 31.7202,78.5976 31.68,78.6253 C31.6398,78.6531 31.6,78.6812 31.5595,78.7085 C31.5197,78.7353 31.4793,78.7614 31.4391,78.7878 C31.3989,78.8142 31.3591,78.8411 31.3186,78.8671 C31.2788,78.8926 31.2383,78.9171 31.1982,78.9422 C31.1581,78.9673 31.1182,78.9928 31.0777,79.0174 C31.0378,79.0417 30.9974,79.0653 30.9573,79.0891 C30.9172,79.1129 30.8773,79.1369 30.8369,79.1603 C30.7969,79.1834 30.7567,79.206 30.7164,79.2287 C30.6764,79.2513 30.6363,79.2739 30.596,79.296 C30.556,79.318 30.5159,79.3398 30.4756,79.3613 L30.3551,79.4249 C30.315,79.4458 30.275,79.4667 30.2347,79.4872 C30.1947,79.5075 30.1545,79.5272 30.1142,79.5471 C30.0741,79.5669 30.0342,79.5873 29.9938,79.6067 C29.9539,79.6259 29.9135,79.6442 29.8734,79.663 C29.8332,79.6818 29.7933,79.7009 29.7529,79.7193 C29.713,79.7375 29.6726,79.7549 29.6325,79.7727 L29.512,79.8254 L29.3916,79.8765 C29.3516,79.8932 29.3113,79.9094 29.2711,79.9257 C29.231,79.942 29.191,79.9586 29.1507,79.9745 C29.1108,79.9902 29.0705,80.0049 29.0303,80.0202 C28.9901,80.0355 28.9502,80.0511 28.9098,80.066 C28.8698,80.0808 28.8296,80.0949 28.7894,80.1093 L28.669,80.1517 L28.5485,80.193 C28.5085,80.2064 28.4682,80.2192 28.4281,80.2321 C28.3879,80.2451 28.348,80.2586 28.3076,80.2712 C28.2677,80.2837 28.2273,80.2952 28.1872,80.3073 L28.0668,80.3431 L27.9463,80.3774 C27.9063,80.3886 27.8661,80.3992 27.8259,80.41 C27.7857,80.4208 27.7457,80.4322 27.7054,80.4425 C27.6655,80.4528 27.625,80.462 27.585,80.4719 C27.5449,80.4818 27.5048,80.4918 27.4646,80.5013 L27.3441,80.529 L27.2237,80.5553 C27.1835,80.564 27.1436,80.5733 27.1032,80.5816 C27.0632,80.5898 27.0229,80.5968 26.9828,80.6046 C26.9427,80.6124 26.9026,80.6203 26.8624,80.6277 L26.7419,80.6494 C26.7019,80.6564 26.6617,80.6627 26.6215,80.6693 C26.5813,80.6759 26.5413,80.6831 26.5011,80.6893 C26.4611,80.6955 26.4208,80.7007 26.3806,80.7065 L26.2602,80.7234 C26.2201,80.7288 26.18,80.7343 26.1397,80.7393 C26.0997,80.7443 26.0594,80.7485 26.0193,80.7531 C25.9791,80.7577 25.9391,80.7627 25.8988,80.7669 C25.8588,80.7711 25.8186,80.7747 25.7784,80.7785 L25.658,80.7892 C25.6178,80.7926 25.5778,80.7968 25.5375,80.7998 C25.4975,80.8028 25.4572,80.8048 25.4171,80.8074 L25.2967,80.815 L25.1762,80.8214 C25.1362,80.8233 25.0959,80.8245 25.0558,80.826 C25.0156,80.8275 24.9755,80.8294 24.9353,80.8306 C24.8953,80.8317 24.855,80.8321 24.8149,80.8329 L24.6945,80.8344 C24.6573,80.8347 24.6202,80.8358 24.5828,80.8358 L24.574,80.8358 L24.4536,80.8358 L24.3331,80.8358 L24.2127,80.8358 L24.0923,80.8358 L23.9718,80.8358 L23.8514,80.8358 L23.7309,80.8358 L23.6105,80.8358 L23.4901,80.8358 L23.3696,80.8358 L23.2492,80.8358 L23.1287,80.8358 L23.0083,80.8358 L22.8879,80.8358 L22.7674,80.8358 L22.647,80.8358 L22.5266,80.8358 L22.4061,80.8358 L22.2857,80.8358 L22.1652,80.8358 L22.0448,80.8358 L21.9244,80.8358 L21.8039,80.8358 L21.6835,80.8358 L21.563,80.8358 L21.4426,80.8358 L21.3222,80.8358 L21.2017,80.8358 L21.0813,80.8358 L20.9608,80.8358 L20.8404,80.8358 L20.72,80.8358 L20.5995,80.8358 L20.4791,80.8358 L20.3586,80.8358 L20.2382,80.8358 L20.1178,80.8358 L19.9973,80.8358 L19.8769,80.8358 L19.7564,80.8358 L19.636,80.8358 L19.5156,80.8358 L19.3951,80.8358 L19.2747,80.8358 L19.1542,80.8358 L19.0338,80.8358 L18.9134,80.8358 L18.7929,80.8358 L18.6725,80.8358 L18.552,80.8358 L18.4316,80.8358 L18.3112,80.8358 L18.1907,80.8358 L18.0703,80.8358 L17.9499,80.8358 L17.8294,80.8358 L17.709,80.8358 L17.5885,80.8358 L17.4681,80.8358 L17.3477,80.8358 L17.2272,80.8358 L17.1068,80.8358 L16.9863,80.8358 L16.8659,80.8358 L16.7455,80.8358 L16.625,80.8358 L16.5046,80.8358 L16.3841,80.8358 L16.2637,80.8358 L16.1433,80.8358 L16.0228,80.8358 L15.9024,80.8358 L15.7819,80.8358 L15.6615,80.8358 L15.5411,80.8358 L15.4206,80.8358 L15.3002,80.8358 L15.1797,80.8358 L15.0593,80.8358 L14.9389,80.8358 L14.8184,80.8358 L14.698,80.8358 L14.5776,80.8358 L14.4571,80.8358 L14.3367,80.8358 L14.2162,80.8358 L14.0958,80.8358 L13.9754,80.8358 L13.8549,80.8358 L13.7345,80.8358 L13.614,80.8358 L13.4936,80.8358 L13.3732,80.8358 L13.2527,80.8358 L13.1323,80.8358 L13.0118,80.8358 L12.8914,80.8358 L12.771,80.8358 L12.6505,80.8358 L12.5301,80.8358 L12.4096,80.8358 L12.2892,80.8358 L12.1688,80.8358 L12.0483,80.8358 L11.9279,80.8358 L11.8074,80.8358 L11.687,80.8358 L11.5666,80.8358 L11.4461,80.8358 L11.3257,80.8358 L11.2053,80.8358 L11.0848,80.8358 L10.9644,80.8358 L10.8439,80.8358 L10.7235,80.8358 L10.6031,80.8358 L10.4826,80.8358 L10.3622,80.8358 L10.2417,80.8358 L10.1213,80.8358 L10.0009,80.8358 L9.8804,80.8358 L9.76,80.8358 L9.6395,80.8358 L9.5191,80.8358 L9.3987,80.8358 L9.2782,80.8358 L9.1578,80.8358 L9.0373,80.8358 L8.9169,80.8358 L8.7965,80.8358 L8.676,80.8358 L8.5556,80.8358 L8.4351,80.8358 L8.3147,80.8358 L8.1943,80.8358 L8.0738,80.8358 L7.9534,80.8358 L7.8329,80.8358 L7.7125,80.8358 L7.5921,80.8358 L7.4716,80.8358 L7.3512,80.8358 L7.2308,80.8358 L7.1103,80.8358 L6.9899,80.8358 L6.8694,80.8358 L6.749,80.8358 L6.6286,80.8358 L6.5081,80.8358 L6.2494,80.8358 L6.2494,54.4919 C6.2494,54.4919 6.3384,54.5164 6.5081,54.5592 L6.6286,54.5893 L6.749,54.6187 L6.8694,54.6476 L6.9899,54.6761 L7.1103,54.7041 L7.2308,54.7317 L7.3512,54.7589 L7.4716,54.7857 L7.5921,54.8121 L7.7125,54.8382 L7.8329,54.8639 L7.9534,54.8893 L8.0738,54.9144 L8.1943,54.939 L8.3147,54.9634 L8.4351,54.9875 L8.5556,55.0113 L8.676,55.0347 L8.7965,55.058 L8.9169,55.0809 L9.0373,55.1034 L9.1578,55.1257 L9.2782,55.1477 L9.3987,55.1694 L9.5191,55.1909 L9.6395,55.212 L9.76,55.2329 L9.8804,55.2534 L10.0009,55.2737 L10.1213,55.2937 L10.2417,55.3135 L10.3622,55.333 L10.4826,55.3522 L10.6031,55.3712 L10.7235,55.3899 L10.8439,55.4084 L10.9644,55.4265 L11.0848,55.4444 L11.2053,55.462 L11.3257,55.4794 L11.4461,55.4965 L11.5666,55.5134 L11.687,55.5299 L11.8074,55.5463 L11.9279,55.5623 L12.0483,55.5781 L12.1688,55.5937 L12.2892,55.6089 L12.4096,55.624 L12.5301,55.6387 L12.6505,55.6533 L12.771,55.6674 L12.8914,55.6815 L13.0118,55.6951 L13.1323,55.7087 L13.2527,55.7219 L13.3732,55.7348 L13.4936,55.7476 L13.614,55.7599 L13.7345,55.7722 L13.8549,55.784 L13.9754,55.7957 L14.0958,55.8072 L14.2162,55.8182 L14.3367,55.8293 L14.4571,55.8397 L14.5776,55.8501 L14.698,55.8602 L14.8184,55.87 L14.9389,55.8797 L15.0593,55.8888 L15.1797,55.898 L15.3002,55.9067 L15.4206,55.9152 L15.5411,55.9236 L15.6615,55.9314 L15.7819,55.9392 L15.9024,55.9467 L16.0228,55.9538 L16.1433,55.9609 L16.2637,55.9674 L16.3841,55.9738 L16.5046,55.98 L16.625,55.9857 L16.7455,55.9914 L16.8659,55.9966 L16.9863,56.0016 L17.1068,56.0066 L17.2272,56.0108 L17.3477,56.0151 L17.4681,56.0191 L17.5885,56.0226 L17.709,56.0262 L17.8294,56.0292 L17.9499,56.0319 L18.0703,56.0347 L18.1907,56.0367 L18.3112,56.0387 L18.4316,56.0405 L18.552,56.0417 L18.6725,56.043 L18.7929,56.0439 L18.9134,56.0443 L19.0338,56.0446 L19.0803,56.0448 L19.1542,56.0444 L19.2747,56.0436 L19.3951,56.0429 L19.5156,56.0422 L19.636,56.0415 L19.7564,56.0393 L19.8769,56.0371 L19.9973,56.0349 L20.1178,56.0327 L20.2382,56.0297 L20.3586,56.0259 L20.4791,56.0222 L20.5995,56.0185 L20.72,56.0145 L20.8404,56.0092 L20.9608,56.0039 L21.0813,55.9985 L21.2017,55.9932 L21.3222,55.9865 L21.4426,55.9796 L21.563,55.9726 L21.6835,55.9656 L21.8039,55.9576 L21.9244,55.9489 L22.0448,55.9403 L22.1652,55.9316 L22.2857,55.922 L22.4061,55.9116 L22.5266,55.9012 L22.647,55.8907 L22.7674,55.8794 L22.8879,55.8671 L23.0083,55.8549 L23.1287,55.8426 L23.2492,55.8292 L23.3696,55.8151 L23.4901,55.8009 L23.6105,55.7868 L23.7309,55.7711 L23.8514,55.755 L23.9718,55.7389 L24.0923,55.7225 C24.1329,55.7167 24.1724,55.7103 24.2127,55.7044 L24.3331,55.6863 L24.4536,55.6681 L24.574,55.649 C24.6145,55.6425 24.6542,55.6354 24.6945,55.6287 L24.8149,55.6085 C24.8548,55.6017 24.8957,55.5952 24.9353,55.5882 C24.9759,55.581 25.0154,55.5733 25.0558,55.5659 L25.1762,55.5434 L25.2967,55.5209 L25.4171,55.4973 C25.4576,55.4893 25.4973,55.4807 25.5375,55.4725 L25.658,55.4477 L25.7784,55.4225 C25.8191,55.4138 25.8585,55.4044 25.8988,55.3954 L26.0193,55.3682 C26.0592,55.359 26.1001,55.3504 26.1397,55.3411 C26.1804,55.3315 26.2199,55.3214 26.2602,55.3117 L26.3806,55.282 C26.4206,55.2721 26.4614,55.2625 26.5011,55.2524 C26.5416,55.2421 26.5814,55.2313 26.6215,55.2208 L26.7419,55.1886 C26.782,55.1778 26.8227,55.1673 26.8624,55.1563 C26.9029,55.1452 26.9427,55.1336 26.9828,55.1222 L27.1032,55.0873 C27.1433,55.0756 27.184,55.0642 27.2237,55.0523 L27.3441,55.0154 L27.4646,54.9776 C27.5046,54.965 27.5454,54.9527 27.585,54.9398 L27.7054,54.8997 L27.8259,54.8589 C27.8659,54.8452 27.9068,54.832 27.9463,54.8181 C27.987,54.8038 28.0265,54.7889 28.0668,54.7744 L28.1872,54.7305 C28.2273,54.7156 28.2679,54.701 28.3076,54.6859 C28.3483,54.6705 28.3879,54.6545 28.4281,54.6388 C28.4683,54.6231 28.5088,54.6075 28.5485,54.5916 L28.669,54.5426 L28.7894,54.492 C28.8294,54.4751 28.8703,54.4587 28.9098,54.4415 C28.9506,54.4238 28.99,54.4053 29.0303,54.3873 L29.1507,54.3332 L29.2711,54.2772 C29.3116,54.2581 29.3516,54.2386 29.3916,54.2192 C29.4317,54.1998 29.4725,54.1806 29.512,54.1609 C29.5528,54.1405 29.5923,54.1195 29.6325,54.0989 C29.6727,54.0783 29.7133,54.0579 29.7529,54.037 C29.7936,54.0156 29.8333,53.9937 29.8734,53.9719 C29.9138,53.95 29.954,53.928 29.9938,53.9058 C30.0343,53.8832 30.0744,53.8604 30.1142,53.8375 C30.1548,53.8142 30.1948,53.7905 30.2347,53.7668 C30.275,53.7429 30.3154,53.719 30.3551,53.6948 C30.3958,53.6699 30.4356,53.6447 30.4756,53.6195 C30.5159,53.5942 30.5564,53.5689 30.596,53.5432 C30.6367,53.5168 30.6764,53.4897 30.7164,53.4629 C30.7567,53.4358 30.7973,53.409 30.8369,53.3816 C30.8777,53.3534 30.9173,53.3247 30.9573,53.2961 C30.9976,53.2673 31.0382,53.2384 31.0777,53.2092 C31.1185,53.1791 31.1583,53.1486 31.1982,53.1181 C31.2387,53.0872 31.279,53.0561 31.3186,53.0248 C31.3592,52.9927 31.3993,52.9602 31.4391,52.9276 C31.4797,52.8943 31.5198,52.8606 31.5595,52.8269 C31.6,52.7925 31.6405,52.7582 31.68,52.7234 C31.7209,52.6874 31.7605,52.6507 31.8004,52.6142 C31.8408,52.5772 31.8814,52.5403 31.9208,52.5028 C31.9617,52.4639 32.0016,52.4246 32.0413,52.3852 C32.082,52.3448 32.1221,52.304 32.1617,52.2631 C32.2022,52.2213 32.2428,52.1796 32.2821,52.1373 C32.3231,52.093 32.3628,52.0482 32.4026,52.0033 C32.4435,51.9572 32.4835,51.9107 32.523,51.864 C32.5637,51.8159 32.6042,51.7677 32.6435,51.7189 C32.6843,51.6682 32.7246,51.6175 32.7639,51.5662 C32.805,51.5125 32.8448,51.4583 32.8843,51.4039 C32.9254,51.3473 32.9654,51.2903 33.0048,51.2329 C33.0459,51.1731 33.086,51.1128 33.1252,51.0521 C33.1663,50.9885 33.2065,50.9244 33.2456,50.8598 C33.2868,50.7916 33.3271,50.7231 33.3661,50.6539 C33.4075,50.5806 33.4476,50.5068 33.4865,50.4324 C33.5281,50.3528 33.5682,50.2727 33.607,50.192 C33.6488,50.1052 33.6888,50.0176 33.7274,49.9295 C33.7693,49.8337 33.8096,49.7373 33.8479,49.64 C33.8901,49.5327 33.9304,49.4245 33.9683,49.3154 C34.0113,49.1916 34.0512,49.0665 34.0887,48.9404 C34.1325,48.793 34.1726,48.6441 34.2092,48.4938 C34.2546,48.3073 34.2949,48.1187 34.3296,47.928 C34.3812,47.6441 34.421,47.3557 34.45,47.0635 C34.4905,46.656 34.5102,46.2412 34.5102,45.8199 L34.5102,31.3162 L34.45,31.3162 L34.3296,31.3162 L34.2092,31.3162 L34.0887,31.3162 L33.9683,31.3162 L33.8479,31.3162 L33.7274,31.3162 L33.607,31.3162 L33.4865,31.3162 L33.3661,31.3162 L33.2456,31.3162 L33.1252,31.3162 L33.0048,31.3162 L32.8843,31.3162 L32.7639,31.3162 L32.6435,31.3162 L32.523,31.3162 L32.4026,31.3162 L32.2821,31.3162 L32.1617,31.3162 L32.0413,31.3162 L31.9208,31.3162 L31.8004,31.3162 L31.68,31.3162 L31.5595,31.3162 L31.4391,31.3162 L31.3186,31.3162 L31.1982,31.3162 L31.0777,31.3162 L30.9573,31.3162 L30.8369,31.3162 L30.7164,31.3162 L30.596,31.3162 L30.4756,31.3162 L30.3551,31.3162 L30.2347,31.3162 L30.1142,31.3162 L29.9938,31.3162 L29.8734,31.3162 L29.7529,31.3162 L29.6325,31.3162 L29.512,31.3162 L29.3916,31.3162 L29.2711,31.3162 L29.1507,31.3162 L29.0303,31.3162 L28.9098,31.3162 L28.7894,31.3162 L28.669,31.3162 L28.5485,31.3162 L28.4281,31.3162 L28.3076,31.3162 L28.1872,31.3162 L28.0668,31.3162 L27.9463,31.3162 L27.8259,31.3162 L27.7054,31.3162 L27.585,31.3162 L27.4646,31.3162 L27.3441,31.3162 L27.2237,31.3162 L27.1032,31.3162 L26.9828,31.3162 L26.8624,31.3162 L26.7419,31.3162 L26.6215,31.3162 L26.5011,31.3162 L26.3806,31.3162 L26.2602,31.3162 L26.1397,31.3162 L26.0193,31.3162 L25.8988,31.3162 L25.7784,31.3162 L25.658,31.3162 L25.5375,31.3162 L25.4171,31.3162 L25.2967,31.3162 L25.1762,31.3162 L25.0558,31.3162 L24.9353,31.3162 L24.8149,31.3162 L24.6945,31.3162 L24.574,31.3162 L24.4536,31.3162 L24.3331,31.3162 L24.2127,31.3162 L24.0923,31.3162 L23.9718,31.3162 L23.8514,31.3162 L23.7601,31.3162 L23.7601,45.8199 C23.7601,46.0469 23.7502,46.2703 23.7309,46.4894 C23.7063,46.7685 23.666,47.0406 23.6105,47.3052 C23.5762,47.4686 23.536,47.629 23.4901,47.7864 C23.4535,47.9118 23.4135,48.0352 23.3696,48.1565 C23.3322,48.2598 23.2919,48.3614 23.2492,48.4616 C23.2111,48.551 23.171,48.639 23.1287,48.7258 C23.0902,48.8048 23.0503,48.8829 23.0083,48.9596 C22.9697,49.0302 22.9293,49.0994 22.8879,49.168 C22.849,49.2325 22.8089,49.2962 22.7674,49.3589 C22.7284,49.4177 22.6882,49.4757 22.647,49.5329 C22.6078,49.5874 22.5679,49.6415 22.5266,49.6946 C22.4874,49.745 22.4471,49.7944 22.4061,49.8434 C22.3668,49.8903 22.3267,49.9365 22.2857,49.9822 C22.2463,50.0262 22.2062,50.0697 22.1652,50.1124 C22.1257,50.1536 22.0857,50.1944 22.0448,50.2345 C22.0053,50.2732 21.9652,50.3116 21.9244,50.3492 C21.8849,50.3856 21.8446,50.4213 21.8039,50.4567 C21.7644,50.491 21.7242,50.5249 21.6835,50.5582 C21.6439,50.5906 21.6036,50.6225 21.563,50.654 C21.5234,50.6846 21.4832,50.7148 21.4426,50.7446 C21.4029,50.7736 21.3628,50.8022 21.3222,50.8303 C21.2825,50.8578 21.2424,50.8848 21.2017,50.9115 C21.162,50.9375 21.1219,50.9631 21.0813,50.9883 C21.0416,51.0129 21.0014,51.0371 20.9608,51.0609 C20.9211,51.0842 20.8809,51.107 20.8404,51.1296 C20.8007,51.1517 20.7605,51.1732 20.72,51.1946 C20.6802,51.2156 20.6401,51.2361 20.5995,51.2563 C20.5597,51.2761 20.5196,51.2956 20.4791,51.3148 C20.4392,51.3336 20.3992,51.3523 20.3586,51.3704 C20.3187,51.3882 20.2787,51.4058 20.2382,51.4229 C20.1985,51.4397 20.1582,51.4559 20.1178,51.472 C20.078,51.4879 20.0377,51.5034 19.9973,51.5186 C19.9574,51.5336 19.9174,51.5483 19.8769,51.5627 C19.837,51.5769 19.7969,51.591 19.7564,51.6045 C19.7166,51.6178 19.6764,51.6308 19.636,51.6435 C19.5962,51.656 19.5559,51.668 19.5156,51.6799 C19.4757,51.6917 19.4355,51.7033 19.3951,51.7144 C19.3551,51.7254 19.3151,51.7365 19.2747,51.7469 C19.2348,51.7572 19.1946,51.7671 19.1542,51.7768 C19.1144,51.7864 19.0742,51.7956 19.0338,51.8046 C18.9939,51.8135 18.9538,51.8223 18.9134,51.8307 C18.8734,51.839 18.8334,51.8471 18.7929,51.8548 C18.753,51.8624 18.7128,51.8695 18.6725,51.8766 C18.6325,51.8836 18.5924,51.8906 18.552,51.8971 L18.4316,51.9155 C18.3917,51.9213 18.3515,51.9266 18.3112,51.9319 C18.2712,51.9372 18.2312,51.9424 18.1907,51.9471 L18.0703,51.9605 C18.0304,51.9646 17.9902,51.9682 17.9499,51.9719 C17.9098,51.9755 17.8698,51.9792 17.8294,51.9823 C17.7895,51.9854 17.7493,51.9881 17.709,51.9907 C17.669,51.9933 17.6288,51.9955 17.5885,51.9976 C17.5484,51.9997 17.5085,52.0018 17.4681,52.0034 C17.4282,52.005 17.3879,52.0059 17.3477,52.0071 L17.2272,52.0099 C17.1873,52.0106 17.1471,52.0108 17.1068,52.0111 L17.0615,52.0115 L16.9863,52.0112 L16.8659,52.0104 L16.7455,52.0087 L16.625,52.0062 L16.5046,52.003 L16.3841,51.9991 L16.2637,51.9942 L16.1433,51.9886 L16.0228,51.9825 L15.9024,51.9753 L15.7819,51.9675 L15.6615,51.959 L15.5411,51.9496 L15.4206,51.9395 L15.3002,51.9287 L15.1797,51.9172 L15.0593,51.9048 L14.9389,51.8918 L14.8184,51.8781 L14.698,51.8635 L14.5776,51.8482 L14.4571,51.8324 L14.3367,51.8156 L14.2162,51.7981 L14.0958,51.7801 L13.9754,51.7613 L13.8549,51.7417 L13.7345,51.7215 L13.614,51.7006 L13.4936,51.6788 L13.3732,51.6565 L13.2527,51.6335 L13.1323,51.6098 L13.0118,51.5853 L12.8914,51.5602 L12.771,51.5345 L12.6505,51.508 L12.5301,51.4808 L12.4096,51.4531 L12.2892,51.4246 L12.1688,51.3954 L12.0483,51.3656 L11.9279,51.3353 L11.8074,51.3039 L11.687,51.2721 L11.5666,51.2398 L11.4461,51.2067 L11.3257,51.173 L11.2053,51.1386 L11.0848,51.1037 L10.9644,51.0679 L10.8439,51.0316 L10.7235,50.9948 L10.6031,50.9572 L10.4826,50.919 L10.3622,50.8803 L10.2417,50.841 L10.1213,50.8009 L10.0009,50.7603 L9.8804,50.719 L9.76,50.6773 L9.6395,50.6347 L9.5191,50.5917 L9.3987,50.5483 L9.2782,50.5039 L9.1578,50.4591 L9.0373,50.4137 L8.9169,50.3678 L8.7965,50.3212 L8.676,50.2741 L8.5556,50.2264 L8.4351,50.1781 L8.3147,50.1293 L8.1943,50.0799 L8.0738,50.03 L7.9534,49.9794 L7.8329,49.9283 L7.7125,49.8767 L7.5921,49.8246 L7.4716,49.7717 L7.3512,49.7185 L7.2308,49.6648 L7.1103,49.6105 L6.9899,49.5556 L6.8694,49.5002 L6.749,49.4443 L6.6286,49.3878 L6.5081,49.3309 L6.5081,49.3308 L6.5081,49.3308 L6.5081,49.3308 Z" id="Shape" fill="url(#linearGradient-2)" sketch:type="MSShapeGroup"></path>
            <path d="M41.0912,34.4854 C41.0034,34.5564 40.917,34.628 40.8326,34.7005 L40.8326,18.335 C40.8326,17.4647 40.9219,16.6152 41.0912,15.7949 C41.1276,15.6188 41.1679,15.4443 41.2116,15.271 C41.2491,15.1223 41.2894,14.9748 41.3321,14.8283 C41.3702,14.6978 41.4104,14.5682 41.4526,14.4395 C41.4911,14.3219 41.5311,14.2049 41.573,14.0889 C41.6118,13.9814 41.6518,13.8744 41.6935,13.7683 C41.7325,13.6691 41.7725,13.5704 41.8139,13.4724 C41.853,13.38 41.8931,13.2882 41.9343,13.1969 C41.9734,13.1102 42.0138,13.0241 42.0548,12.9385 C42.094,12.8567 42.1343,12.7757 42.1752,12.6949 C42.2145,12.6173 42.2548,12.5403 42.2957,12.4636 C42.3351,12.3897 42.3753,12.3163 42.4161,12.2433 C42.4556,12.1726 42.4957,12.1022 42.5366,12.0324 C42.5762,11.9646 42.6161,11.8971 42.657,11.8301 C42.6965,11.7654 42.7367,11.7011 42.7774,11.6372 C42.817,11.575 42.8573,11.5135 42.8979,11.4521 C42.9376,11.392 42.9776,11.3323 43.0183,11.273 C43.0582,11.2148 43.098,11.1566 43.1388,11.0992 C43.1783,11.0436 43.2188,10.9889 43.2592,10.9341 C43.299,10.8801 43.3391,10.8264 43.3797,10.7731 C43.4196,10.7206 43.4594,10.668 43.5001,10.6162 C43.5396,10.5659 43.5803,10.5163 43.6206,10.4666 C43.6604,10.4175 43.7005,10.3686 43.741,10.3202 C43.7809,10.2724 43.8209,10.2248 43.8615,10.1777 C43.9012,10.1317 43.9416,10.0863 43.9819,10.0409 C44.0218,9.9959 44.0618,9.9507 44.1024,9.9062 C44.1421,9.8627 44.1824,9.8197 44.2227,9.7768 C44.2625,9.7344 44.3027,9.6923 44.3431,9.6504 C44.3831,9.6091 44.4231,9.5678 44.4636,9.527 C44.5034,9.487 44.5437,9.4475 44.584,9.408 C44.6241,9.3687 44.6639,9.3291 44.7045,9.2903 C44.7442,9.2524 44.7847,9.2154 44.8249,9.178 C44.8649,9.1407 44.9048,9.1033 44.9454,9.0666 C44.9852,9.0306 45.0256,8.9952 45.0658,8.9597 C45.1058,8.9243 45.1458,8.889 45.1863,8.8542 C45.2262,8.8199 45.2664,8.7862 45.3067,8.7524 C45.3467,8.7189 45.3868,8.6854 45.4272,8.6523 C45.4671,8.6197 45.5073,8.5874 45.5476,8.5553 C45.5876,8.5234 45.6277,8.4917 45.6681,8.4603 C45.708,8.4293 45.7482,8.3986 45.7885,8.368 C45.8285,8.3377 45.8686,8.3075 45.9089,8.2777 C45.9488,8.2481 45.9891,8.2189 46.0294,8.1898 C46.0694,8.161 46.1095,8.1322 46.1498,8.1038 C46.1898,8.0757 46.23,8.048 46.2703,8.0203 C46.3103,7.9928 46.3504,7.9654 46.3907,7.9384 C46.4306,7.9117 46.4709,7.8854 46.5112,7.8591 C46.5512,7.8329 46.5912,7.8067 46.6316,7.781 C46.6716,7.7556 46.7118,7.7308 46.7521,7.7058 C46.7922,7.6809 46.8321,7.6557 46.8725,7.6313 C46.9124,7.6071 46.9528,7.5837 46.993,7.56 C47.0332,7.5363 47.073,7.5121 47.1134,7.4889 C47.1532,7.466 47.1938,7.444 47.2339,7.4215 C47.2741,7.399 47.3139,7.3763 47.3543,7.3543 C47.3942,7.3325 47.4345,7.3115 47.4747,7.2901 C47.5148,7.2688 47.5548,7.2474 47.5952,7.2265 L47.7156,7.1652 L47.8361,7.1053 C47.8761,7.0857 47.9162,7.0659 47.9565,7.0467 C47.9965,7.0276 48.0368,7.0091 48.077,6.9904 C48.1172,6.9718 48.157,6.9526 48.1974,6.9344 C48.2373,6.9163 48.2777,6.8993 48.3179,6.8817 C48.358,6.8641 48.398,6.8462 48.4383,6.829 C48.4783,6.812 48.5185,6.7955 48.5587,6.7789 L48.6792,6.7297 C48.7193,6.7136 48.7593,6.6975 48.7996,6.6818 C48.8396,6.6662 48.8799,6.6512 48.9201,6.636 C48.9603,6.6208 49.0001,6.6051 49.0405,6.5903 C49.0804,6.5757 49.1209,6.5621 49.161,6.5479 C49.2011,6.5337 49.2411,6.5193 49.2814,6.5055 C49.3214,6.4917 49.3617,6.4785 49.4019,6.4652 L49.5223,6.4261 C49.5624,6.4133 49.6025,6.4002 49.6428,6.3877 C49.6827,6.3754 49.7231,6.3638 49.7632,6.3519 C49.8033,6.3399 49.8434,6.3276 49.8837,6.316 C49.9237,6.3045 49.9639,6.2938 50.0041,6.2827 L50.1245,6.25 C50.1647,6.2394 50.2047,6.2286 50.245,6.2184 C50.285,6.2083 50.3253,6.1988 50.3654,6.189 C50.4055,6.1792 50.4456,6.169 50.4859,6.1596 C50.5259,6.1503 50.5662,6.1416 50.6063,6.1327 L50.7268,6.1065 C50.767,6.098 50.8069,6.0892 50.8472,6.0811 C50.8872,6.073 50.9275,6.0657 50.9677,6.058 C51.0078,6.0503 51.0478,6.0422 51.0881,6.0349 L51.2086,6.0141 L51.329,5.9942 C51.3692,5.9877 51.4092,5.9808 51.4495,5.9747 C51.4895,5.9686 51.5298,5.9635 51.5699,5.9578 C51.61,5.9522 51.6501,5.9463 51.6903,5.941 L51.8108,5.9259 L51.9312,5.9121 C51.9714,5.9076 52.0114,5.9024 52.0517,5.8983 C52.0917,5.8942 52.132,5.8912 52.1721,5.8875 L52.2926,5.8769 C52.3327,5.8735 52.3728,5.8702 52.413,5.8673 C52.4531,5.8644 52.4933,5.8621 52.5334,5.8596 C52.5736,5.8571 52.6136,5.8542 52.6539,5.852 C52.694,5.8498 52.7342,5.8483 52.7744,5.8465 L52.8948,5.8419 C52.935,5.8405 52.975,5.8384 53.0153,5.8374 C53.0553,5.8364 53.0956,5.8365 53.1357,5.8359 C53.1759,5.8353 53.216,5.8346 53.2562,5.8344 L53.3093,5.8337 L53.3766,5.8337 L53.4971,5.8337 L53.6175,5.8337 L53.7379,5.8337 L53.8584,5.8337 L53.9788,5.8337 L54.0993,5.8337 L54.2197,5.8337 L54.3402,5.8337 L54.4606,5.8337 L54.5811,5.8337 L54.7015,5.8337 L54.8219,5.8337 L54.9424,5.8337 L55.0628,5.8337 L55.1833,5.8337 L55.3037,5.8337 L55.4242,5.8337 L55.5446,5.8337 L55.665,5.8337 L55.7855,5.8337 L55.9059,5.8337 L56.0264,5.8337 L56.1468,5.8337 L56.2673,5.8337 L56.3878,5.8337 L56.5082,5.8337 L56.6287,5.8337 L56.7491,5.8337 L56.8695,5.8337 L56.99,5.8337 L57.1104,5.8337 L57.2309,5.8337 L57.3513,5.8337 L57.4718,5.8337 L57.5922,5.8337 L57.7126,5.8337 L57.8331,5.8337 L57.9535,5.8337 L58.074,5.8337 L58.1944,5.8337 L58.3149,5.8337 L58.4353,5.8337 L58.5558,5.8337 L58.6762,5.8337 L58.7966,5.8337 L58.9171,5.8337 L59.0375,5.8337 L59.158,5.8337 L59.2784,5.8337 L59.3989,5.8337 L59.5193,5.8337 L59.6398,5.8337 L59.7602,5.8337 L59.8806,5.8337 L60.0011,5.8337 L60.1216,5.8337 L60.242,5.8337 L60.3625,5.8337 L60.4829,5.8337 L60.6034,5.8337 L60.7238,5.8337 L60.8442,5.8337 L60.9647,5.8337 L61.0851,5.8337 L61.2056,5.8337 L61.326,5.8337 L61.4465,5.8337 L61.5669,5.8337 L61.6874,5.8337 L61.8078,5.8337 L61.9282,5.8337 L62.0487,5.8337 L62.1691,5.8337 L62.2896,5.8337 L62.41,5.8337 L62.5305,5.8337 L62.6509,5.8337 L62.7714,5.8337 L62.8918,5.8337 L63.0122,5.8337 L63.1327,5.8337 L63.2531,5.8337 L63.3736,5.8337 L63.494,5.8337 L63.6145,5.8337 L63.7349,5.8337 L63.8554,5.8337 L63.9758,5.8337 L64.0963,5.8337 L64.2167,5.8337 L64.3372,5.8337 L64.4576,5.8337 L64.5781,5.8337 L64.6985,5.8337 L64.819,5.8337 L64.9394,5.8337 L65.0598,5.8337 L65.1803,5.8337 L65.3007,5.8337 L65.4212,5.8337 L65.5416,5.8337 L65.6621,5.8337 L65.7825,5.8337 L65.903,5.8337 L66.0234,5.8337 L66.1438,5.8337 L66.2643,5.8337 L66.3847,5.8337 L66.5052,5.8337 L66.6256,5.8337 L66.7461,5.8337 L66.8665,5.8337 L66.987,5.8337 L67.1074,5.8337 L67.2278,5.8337 L67.3483,5.8337 L67.4687,5.8337 L67.5892,5.8337 L67.7097,5.8337 L67.8301,5.8337 L67.9506,5.8337 L68.071,5.8337 L68.1914,5.8337 L68.3119,5.8337 L68.4323,5.8337 L68.5528,5.8337 L68.6732,5.8337 L68.7937,5.8337 L68.9141,5.8337 L69.0346,5.8337 L69.155,5.8337 L69.2754,5.8337 L69.3959,5.8337 L69.5163,5.8337 L69.6368,5.8337 L69.7572,5.8337 L69.8777,5.8337 L69.9981,5.8337 L70.1185,5.8337 L70.239,5.8337 L70.3594,5.8337 L70.4799,5.8337 L70.6003,5.8337 L70.7208,5.8337 L70.8412,5.8337 L70.9617,5.8337 L71.0821,5.8337 L71.2025,5.8337 L71.323,5.8337 L71.4435,5.8337 L71.5639,5.8337 L71.666,5.8337 L71.666,68.3356 C71.666,68.8791 71.6312,69.4143 71.5639,69.9395 C71.5315,70.1924 71.4908,70.4426 71.4435,70.6905 C71.4075,70.8792 71.3674,71.0665 71.323,71.2521 C71.2856,71.4084 71.2457,71.5637 71.2025,71.7177 C71.1646,71.8528 71.1244,71.9869 71.0821,72.1201 C71.0438,72.2407 71.0035,72.3603 70.9617,72.4793 C70.923,72.5894 70.8828,72.6989 70.8412,72.8076 C70.8023,72.909 70.7623,73.0097 70.7208,73.1099 C70.6817,73.2043 70.6416,73.2982 70.6003,73.3914 C70.5612,73.4798 70.521,73.5675 70.4799,73.6548 C70.4406,73.7382 70.4005,73.8211 70.3594,73.9034 C70.3201,73.9823 70.2799,74.0608 70.239,74.1388 C70.1995,74.214 70.1595,74.2887 70.1185,74.363 C70.0789,74.4348 70.0391,74.5063 69.9981,74.5772 C69.9587,74.6455 69.9184,74.7134 69.8777,74.7809 C69.8382,74.8464 69.7979,74.9111 69.7572,74.9758 C69.7176,75.0388 69.6775,75.1015 69.6368,75.1637 C69.597,75.2246 69.5572,75.2856 69.5163,75.3457 C69.4767,75.404 69.4364,75.4618 69.3959,75.5194 C69.3563,75.5757 69.316,75.6315 69.2754,75.6872 C69.2356,75.7419 69.1956,75.7965 69.155,75.8505 C69.1153,75.9032 69.0751,75.9554 69.0346,76.0075 C68.9949,76.0585 68.9545,76.109 68.9141,76.1593 C68.8742,76.209 68.8344,76.2586 68.7937,76.3077 C68.754,76.3556 68.7136,76.4029 68.6732,76.4503 C68.6334,76.4969 68.5933,76.543 68.5528,76.589 C68.5128,76.6344 68.4729,76.6799 68.4323,76.7248 C68.3926,76.7686 68.3521,76.8116 68.3119,76.8549 C68.2719,76.8978 68.232,76.9409 68.1914,76.9833 C68.1516,77.0248 68.1113,77.0656 68.071,77.1065 C68.0311,77.147 67.9911,77.1872 67.9506,77.2272 C67.9107,77.2667 67.8706,77.3059 67.8301,77.3449 C67.7903,77.3832 67.75,77.421 67.7097,77.4588 C67.6696,77.4963 67.6297,77.5341 67.5892,77.5711 C67.5494,77.6074 67.509,77.643 67.4687,77.6788 C67.4286,77.7145 67.3889,77.7505 67.3483,77.7856 C67.3085,77.8201 67.268,77.8537 67.2278,77.8876 C67.1877,77.9215 67.1479,77.9557 67.1074,77.989 C67.0676,78.0218 67.0271,78.0537 66.987,78.086 C66.9469,78.1182 66.907,78.1507 66.8665,78.1824 C66.8267,78.2136 66.7863,78.244 66.7461,78.2747 C66.706,78.3053 66.6661,78.3361 66.6256,78.3663 C66.5858,78.396 66.5454,78.425 66.5052,78.4542 C66.4651,78.4833 66.4252,78.5128 66.3847,78.5414 C66.3449,78.5696 66.3045,78.5971 66.2643,78.6249 C66.2242,78.6527 66.1843,78.6808 66.1438,78.7081 C66.104,78.7349 66.0636,78.761 66.0234,78.7874 C65.9833,78.8138 65.9435,78.8407 65.903,78.8666 C65.8631,78.8922 65.8226,78.9168 65.7825,78.9419 C65.7424,78.967 65.7025,78.9924 65.6621,79.017 C65.6222,79.0413 65.5818,79.0648 65.5416,79.0887 C65.5015,79.1125 65.4615,79.1365 65.4212,79.1599 C65.3812,79.183 65.341,79.2057 65.3007,79.2284 L65.1803,79.2957 L65.0598,79.361 L64.9394,79.4245 C64.8993,79.4454 64.8593,79.4664 64.819,79.4869 C64.779,79.5072 64.7388,79.5269 64.6985,79.5468 C64.6584,79.5667 64.6185,79.587 64.5781,79.6064 C64.5382,79.6256 64.4977,79.6439 64.4576,79.6627 C64.4175,79.6815 64.3775,79.7007 64.3372,79.719 C64.2972,79.7372 64.2568,79.7547 64.2167,79.7725 L64.0963,79.8251 L63.9758,79.8762 L63.8554,79.9255 C63.8152,79.9418 63.7752,79.9584 63.7349,79.9743 C63.695,79.99 63.6546,80.0047 63.6145,80.02 C63.5743,80.0353 63.5344,80.0509 63.494,80.0658 C63.454,80.0806 63.4138,80.0947 63.3736,80.1091 L63.2531,80.1516 L63.1327,80.1928 C63.0927,80.2062 63.0524,80.2189 63.0122,80.2319 C62.972,80.2449 62.9321,80.2585 62.8918,80.271 C62.8519,80.2835 62.8115,80.295 62.7714,80.3071 L62.6509,80.3429 L62.5305,80.3772 C62.4904,80.3884 62.4502,80.3991 62.41,80.4098 C62.3698,80.4206 62.33,80.432 62.2896,80.4424 C62.2496,80.4527 62.2093,80.4619 62.1691,80.4718 C62.129,80.4817 62.0889,80.4917 62.0487,80.5012 L61.9282,80.529 L61.8078,80.5552 C61.7676,80.5638 61.7277,80.5731 61.6874,80.5814 C61.6474,80.5896 61.607,80.5968 61.5669,80.6046 L61.4465,80.6276 L61.326,80.6493 C61.286,80.6563 61.2458,80.6627 61.2056,80.6693 C61.1654,80.6759 61.1254,80.683 61.0851,80.6892 C61.0451,80.6954 61.0048,80.7007 60.9647,80.7065 L60.8442,80.7234 C60.8041,80.7288 60.764,80.7343 60.7238,80.7393 C60.6838,80.7443 60.6435,80.7485 60.6034,80.7531 C60.5632,80.7577 60.5232,80.7627 60.4829,80.7669 C60.4429,80.7711 60.4027,80.7747 60.3625,80.7785 L60.242,80.7893 C60.2018,80.7927 60.1619,80.7968 60.1216,80.7998 C60.0816,80.8028 60.0413,80.8048 60.0011,80.8074 L59.8806,80.8151 L59.7602,80.8215 C59.7202,80.8234 59.6799,80.8245 59.6398,80.826 C59.5996,80.8275 59.5595,80.8294 59.5193,80.8306 C59.4793,80.8317 59.4391,80.8321 59.3989,80.8329 L59.2784,80.8345 C59.2409,80.8348 59.2036,80.8359 59.166,80.8359 L59.158,80.8359 L59.0375,80.8359 L58.9171,80.8359 L58.7966,80.8359 L58.6762,80.8359 L58.5558,80.8359 L58.4353,80.8359 L58.3149,80.8359 L58.1944,80.8359 L58.074,80.8359 L57.9535,80.8359 L57.8331,80.8359 L57.7126,80.8359 L57.5922,80.8359 L57.4718,80.8359 L57.3513,80.8359 L57.2309,80.8359 L57.1104,80.8359 L56.99,80.8359 L56.8695,80.8359 L56.7491,80.8359 L56.6287,80.8359 L56.5082,80.8359 L56.3878,80.8359 L56.2673,80.8359 L56.1468,80.8359 L56.0264,80.8359 L55.9059,80.8359 L55.7855,80.8359 L55.665,80.8359 L55.5446,80.8359 L55.4242,80.8359 L55.3037,80.8359 L55.1833,80.8359 L55.0628,80.8359 L54.9424,80.8359 L54.8219,80.8359 L54.7015,80.8359 L54.5811,80.8359 L54.4606,80.8359 L54.3402,80.8359 L54.2197,80.8359 L54.0993,80.8359 L53.9788,80.8359 L53.8584,80.8359 L53.7379,80.8359 L53.6175,80.8359 L53.4971,80.8359 L53.3766,80.8359 L53.2562,80.8359 L53.1357,80.8359 L53.0153,80.8359 L52.8948,80.8359 L52.7744,80.8359 L52.6539,80.8359 L52.5334,80.8359 L52.413,80.8359 L52.2926,80.8359 L52.1721,80.8359 L52.0517,80.8359 L51.9312,80.8359 L51.8108,80.8359 L51.6903,80.8359 L51.5699,80.8359 L51.4495,80.8359 L51.329,80.8359 L51.2086,80.8359 L51.0881,80.8359 L50.9677,80.8359 L50.8472,80.8359 L50.7268,80.8359 L50.6063,80.8359 L50.4859,80.8359 L50.3654,80.8359 L50.245,80.8359 L50.1245,80.8359 L50.0041,80.8359 L49.8837,80.8359 L49.7632,80.8359 L49.6428,80.8359 L49.5223,80.8359 L49.4019,80.8359 L49.2814,80.8359 L49.161,80.8359 L49.0405,80.8359 L48.9201,80.8359 L48.7996,80.8359 L48.6792,80.8359 L48.5587,80.8359 L48.4383,80.8359 L48.3179,80.8359 L48.1974,80.8359 L48.077,80.8359 L47.9565,80.8359 L47.8361,80.8359 L47.7156,80.8359 L47.5952,80.8359 L47.4747,80.8359 L47.3543,80.8359 L47.2339,80.8359 L47.1134,80.8359 L46.993,80.8359 L46.8725,80.8359 L46.7521,80.8359 L46.6316,80.8359 L46.5112,80.8359 L46.3907,80.8359 L46.2703,80.8359 L46.1498,80.8359 L46.0294,80.8359 L45.9089,80.8359 L45.7885,80.8359 L45.6681,80.8359 L45.5476,80.8359 L45.4272,80.8359 L45.3067,80.8359 L45.1863,80.8359 L45.0658,80.8359 L44.9454,80.8359 L44.8249,80.8359 L44.7045,80.8359 L44.584,80.8359 L44.4636,80.8359 L44.3431,80.8359 L44.2227,80.8359 L44.1024,80.8359 L43.9819,80.8359 L43.8615,80.8359 L43.741,80.8359 L43.6206,80.8359 L43.5001,80.8359 L43.3797,80.8359 L43.2592,80.8359 L43.1388,80.8359 L43.0183,80.8359 L42.8979,80.8359 L42.7774,80.8359 L42.657,80.8359 L42.5366,80.8359 L42.4161,80.8359 L42.2957,80.8359 L42.1752,80.8359 L42.0548,80.8359 L41.9343,80.8359 L41.8139,80.8359 L41.6935,80.8359 L41.573,80.8359 L41.4526,80.8359 L41.3321,80.8359 L41.2116,80.8359 L41.0912,80.8359 L40.8326,80.8359 L40.8326,51.9741 C40.917,52.0465 41.0034,52.118 41.0912,52.189 C41.131,52.2212 41.1712,52.2532 41.2116,52.285 C41.2515,52.3164 41.2916,52.3477 41.3321,52.3788 C41.3721,52.4094 41.412,52.44 41.4526,52.4704 C41.4923,52.5001 41.5327,52.5294 41.573,52.5588 C41.6128,52.5878 41.6531,52.6167 41.6935,52.6454 C41.7334,52.6737 41.7734,52.702 41.8139,52.7301 L41.9343,52.8126 C41.9741,52.8395 42.0144,52.8662 42.0548,52.8928 L42.1752,52.9714 C42.2151,52.9972 42.2552,53.0229 42.2957,53.0484 C42.3354,53.0734 42.3758,53.0982 42.4161,53.123 L42.5366,53.1963 C42.5766,53.2203 42.6166,53.2443 42.657,53.268 C42.6968,53.2914 42.7371,53.3144 42.7774,53.3375 L42.8979,53.406 L43.0183,53.4727 L43.1388,53.5379 C43.1788,53.5593 43.2187,53.5809 43.2592,53.6021 C43.299,53.623 43.3394,53.6435 43.3797,53.6641 L43.5001,53.7253 L43.6206,53.7852 L43.741,53.8434 C43.7811,53.8626 43.821,53.882 43.8615,53.901 L43.9819,53.9566 L44.1024,54.0117 L44.2227,54.065 L44.3431,54.1176 L44.4636,54.169 L44.584,54.2192 L44.7045,54.2686 L44.8249,54.3166 L44.9454,54.3642 L45.0658,54.41 C45.1059,54.4252 45.1458,54.4406 45.1863,54.4556 L45.3067,54.4995 C45.3468,54.5141 45.3867,54.529 45.4272,54.5434 C45.467,54.5576 45.5075,54.5713 45.5476,54.5853 L45.6681,54.6273 L45.7885,54.6676 C45.8286,54.681 45.8684,54.6947 45.9089,54.7079 C45.9487,54.721 45.9892,54.7336 46.0294,54.7465 L46.1498,54.7851 L46.2703,54.8221 L46.3907,54.859 L46.5112,54.8945 L46.6316,54.9297 L46.7521,54.9639 L46.8725,54.9976 L46.993,55.0304 L47.1134,55.0625 L47.2339,55.0941 L47.3543,55.1247 L47.4747,55.155 L47.5952,55.1842 L47.7156,55.2134 L47.8361,55.2412 L47.9565,55.2688 L48.077,55.2956 L48.1974,55.3219 L48.3179,55.3478 L48.4383,55.3726 L48.5587,55.3975 L48.6792,55.4211 L48.7996,55.4446 L48.9201,55.4674 L49.0405,55.4896 L49.161,55.5116 L49.2814,55.5325 L49.4019,55.5533 L49.5223,55.5734 L49.6428,55.593 L49.7632,55.6124 L49.8837,55.6307 L50.0041,55.6491 L50.1245,55.6667 L50.245,55.6838 L50.3654,55.7008 L50.4859,55.7167 L50.6063,55.7326 L50.7268,55.748 L50.8472,55.7627 L50.9677,55.7775 L51.0881,55.7913 L51.2086,55.8048 L51.329,55.8183 L51.4495,55.8307 L51.5699,55.8431 L51.6903,55.8551 L51.8108,55.8664 L51.9312,55.8777 L52.0517,55.8883 L52.1721,55.8985 L52.2926,55.9087 L52.413,55.918 L52.5334,55.9271 L52.6539,55.9363 L52.7744,55.9444 L52.8948,55.9525 L53.0153,55.9605 L53.1357,55.9675 L53.2562,55.9745 L53.3766,55.9814 L53.4971,55.9873 L53.6175,55.9933 L53.7379,55.9992 L53.8584,56.0041 L53.9788,56.0091 L54.0993,56.0139 L54.2197,56.0179 L54.3402,56.0219 L54.4606,56.0258 L54.5811,56.0288 L54.7015,56.0318 L54.8219,56.0348 L54.9424,56.0369 L55.0628,56.0389 L55.1833,56.041 L55.3037,56.0422 L55.4242,56.0433 L55.5446,56.0444 L55.665,56.0449 L55.7855,56.0451 L55.9059,56.0453 L56.0264,56.045 L56.1468,56.0443 L56.2673,56.0436 L56.3878,56.0426 L56.5082,56.041 L56.6287,56.0394 L56.7491,56.0378 L56.8695,56.0353 L56.99,56.0329 L57.1104,56.0304 L57.2309,56.0273 L57.3513,56.024 L57.4718,56.0206 L57.5922,56.017 L57.7126,56.0128 L57.8331,56.0087 L57.9535,56.0045 L58.074,55.9995 L58.1944,55.9945 L58.3149,55.9895 L58.3737,55.987 L58.4353,55.984 L58.5558,55.9782 L58.6762,55.9718 L58.7966,55.9652 L58.9171,55.9579 L59.0375,55.9505 L59.158,55.9424 L59.2784,55.9342 L59.3989,55.9253 L59.5193,55.9163 L59.6398,55.9067 L59.7602,55.8969 L59.8806,55.8866 L60.0011,55.876 L60.1216,55.8651 L60.242,55.8537 L60.3625,55.8422 L60.4829,55.8301 L60.6034,55.818 L60.7238,55.8052 L60.8442,55.7923 L60.9647,55.779 L61.0851,55.7654 L61.2056,55.7515 L61.326,55.7373 L61.4465,55.7228 L61.5669,55.708 L61.6874,55.6929 L61.8078,55.6775 L61.9282,55.662 L62.0487,55.6459 L62.1691,55.6297 L62.2896,55.6132 L62.41,55.5964 L62.5305,55.5794 L62.6509,55.562 L62.7714,55.5445 L62.8918,55.5265 L63.0122,55.5084 L63.1327,55.4901 L63.2531,55.4714 L63.3736,55.4525 L63.494,55.4333 L63.6145,55.414 L63.7349,55.3944 L63.8554,55.3744 L63.9758,55.3543 L64.0963,55.3339 L64.2167,55.3133 L64.3372,55.2924 L64.4576,55.2713 L64.5781,55.2499 L64.6985,55.2283 L64.819,55.2065 L64.9394,55.1845 L65.0598,55.1622 L65.1803,55.1396 L65.3007,55.1168 L65.4212,55.0938 L65.5416,55.0706 L65.6621,55.0471 L65.7825,55.0234 L65.903,54.9995 L66.0234,54.9753 L66.1438,54.9509 L66.2643,54.9262 L66.3847,54.9012 L66.5052,54.8761 L66.6256,54.8508 L66.7461,54.825 L66.8665,54.7992 L66.987,54.773 L67.1074,54.7466 L67.2278,54.7199 L67.3483,54.693 L67.4687,54.6657 L67.5892,54.6381 L67.7097,54.6102 L67.8301,54.5819 L67.9506,54.5533 L68.071,54.5243 L68.1908,54.4947 L68.1908,49.2069 L68.071,49.2665 L67.9506,49.326 L67.8301,49.3849 L67.7097,49.4433 L67.5892,49.5013 L67.4687,49.5586 L67.3483,49.6152 L67.2278,49.6714 L67.1074,49.7269 L66.987,49.7819 L66.8665,49.8362 L66.7461,49.89 L66.6256,49.943 L66.5052,49.9954 L66.3847,50.0473 L66.2643,50.0985 L66.1438,50.1491 L66.0234,50.1991 L65.903,50.2483 L65.7825,50.2969 L65.6621,50.3449 L65.5416,50.3923 L65.4212,50.4388 L65.3007,50.4848 L65.1803,50.53 L65.0598,50.5746 L64.9394,50.6185 L64.819,50.6618 L64.6985,50.7044 L64.5781,50.7463 L64.4576,50.7874 L64.3372,50.8279 L64.2167,50.8678 L64.0963,50.9069 L63.9758,50.9454 L63.8554,50.9832 L63.7349,51.0202 L63.6145,51.0566 L63.494,51.0924 L63.3736,51.1274 L63.2531,51.1618 L63.1327,51.1953 L63.0122,51.2283 L62.8918,51.2606 L62.7714,51.2922 L62.6509,51.3231 L62.5305,51.3533 L62.41,51.3828 L62.2896,51.4118 L62.1691,51.44 L62.0487,51.4674 L61.9282,51.4943 L61.8078,51.5205 L61.6874,51.546 L61.5669,51.5707 L61.4465,51.5949 L61.326,51.6185 L61.2056,51.6412 L61.0851,51.6633 L60.9647,51.6848 L60.8442,51.7057 L60.7238,51.7257 L60.6034,51.7452 L60.4829,51.7642 L60.3625,51.7823 L60.242,51.7998 L60.1216,51.8168 L60.0011,51.833 L59.8806,51.8485 L59.7602,51.8635 L59.6398,51.8779 L59.5193,51.8915 L59.3989,51.9045 L59.2784,51.917 L59.158,51.9286 L59.0375,51.9398 L58.9171,51.9504 L58.7966,51.9602 L58.7236,51.966 L58.6762,51.9692 L58.5558,51.9773 L58.4353,51.9853 L58.3149,51.9918 L58.1944,51.9979 L58.074,52.0035 L57.9535,52.0074 L57.8331,52.0113 L57.7126,52.0139 L57.5922,52.0157 L57.4718,52.0172 C57.4314,52.0174 57.3915,52.0169 57.3513,52.0168 L57.2309,52.0164 L57.1104,52.0146 L56.99,52.012 L56.8695,52.0089 C56.8291,52.0076 56.7892,52.0056 56.7491,52.004 C56.709,52.0024 56.6686,52.0011 56.6287,51.9991 L56.5082,51.9924 L56.3878,51.9852 L56.2673,51.9769 L56.1468,51.9673 C56.1067,51.964 56.0663,51.9612 56.0264,51.9575 C55.986,51.9538 55.9461,51.9494 55.9059,51.9454 L55.7855,51.9333 L55.665,51.9193 L55.5446,51.9047 L55.4242,51.8888 L55.3037,51.8717 C55.2635,51.8658 55.2232,51.8601 55.1833,51.8538 C55.1429,51.8475 55.1029,51.8406 55.0628,51.8339 C55.0227,51.8272 54.9822,51.821 54.9424,51.8139 C54.9019,51.8067 54.8621,51.7988 54.8219,51.7913 C54.7818,51.7838 54.7413,51.7767 54.7015,51.7688 C54.661,51.7608 54.6213,51.752 54.5811,51.7436 C54.5409,51.7352 54.5005,51.7271 54.4606,51.7183 C54.4202,51.7094 54.3802,51.6999 54.3402,51.6906 L54.2197,51.6623 C54.1793,51.6525 54.1393,51.6421 54.0993,51.6319 C54.059,51.6216 54.0187,51.6114 53.9788,51.6007 C53.9384,51.5899 53.8984,51.5786 53.8584,51.5674 C53.8181,51.5561 53.7778,51.5448 53.7379,51.533 C53.6975,51.5211 53.6575,51.5088 53.6175,51.4965 C53.5772,51.4841 53.537,51.4717 53.4971,51.4589 C53.4567,51.4459 53.4166,51.4325 53.3766,51.4191 C53.3364,51.4056 53.296,51.3921 53.2562,51.3782 C53.2157,51.3641 53.1758,51.3494 53.1357,51.3348 C53.0955,51.3201 53.0551,51.3056 53.0153,51.2905 C52.9748,51.2751 52.9349,51.2591 52.8948,51.2432 C52.8546,51.2273 52.8142,51.2116 52.7744,51.1953 C52.7338,51.1786 52.694,51.1611 52.6539,51.1439 C52.6136,51.1266 52.5732,51.1095 52.5334,51.0917 C52.4929,51.0736 52.453,51.0548 52.413,51.0362 C52.3727,51.0174 52.3324,50.9986 52.2926,50.9794 C52.2522,50.9598 52.212,50.9399 52.1721,50.9198 C52.1317,50.8994 52.0916,50.8787 52.0517,50.8578 C52.0114,50.8367 51.9709,50.8158 51.9312,50.7941 C51.8906,50.772 51.8508,50.7492 51.8108,50.7265 C51.7705,50.7036 51.7301,50.6808 51.6903,50.6573 C51.6498,50.6334 51.6098,50.609 51.5699,50.5846 C51.5294,50.5598 51.4894,50.5344 51.4495,50.509 C51.4092,50.4833 51.3686,50.4577 51.329,50.4314 C51.2883,50.4044 51.2486,50.3765 51.2086,50.3488 C51.1681,50.3208 51.1279,50.2924 51.0881,50.2637 C51.0477,50.2346 51.0073,50.2055 50.9677,50.1757 C50.927,50.1451 50.8871,50.1138 50.8472,50.0825 C50.8067,50.0507 50.7666,50.0187 50.7268,49.9862 C50.6864,49.9531 50.6459,49.9202 50.6063,49.8863 C50.5656,49.8515 50.5257,49.816 50.4859,49.7804 C50.4452,49.7441 50.4052,49.7073 50.3654,49.6701 C50.3249,49.6322 50.2846,49.594 50.245,49.5553 C50.2045,49.5157 50.164,49.4761 50.1245,49.4356 C50.0837,49.3938 50.0438,49.3511 50.0041,49.3083 C49.9633,49.2644 49.9233,49.2199 49.8837,49.175 C49.8429,49.1288 49.8027,49.0821 49.7632,49.0349 C49.7225,48.9863 49.6823,48.9372 49.6428,48.8875 C49.602,48.8361 49.5617,48.7841 49.5223,48.7315 C49.4815,48.6771 49.4412,48.6222 49.4019,48.5665 C49.361,48.5086 49.3207,48.4501 49.2814,48.3908 C49.2404,48.3289 49.2003,48.2663 49.161,48.203 C49.1198,48.1366 49.0797,48.0693 49.0405,48.0014 C48.9992,47.9299 48.9592,47.8573 48.9201,47.784 C48.8786,47.7063 48.8386,47.6275 48.7996,47.5479 C48.7581,47.4631 48.7179,47.3771 48.6792,47.2902 C48.6376,47.1967 48.5971,47.1023 48.5587,47.0063 C48.5163,46.9002 48.4767,46.792 48.4383,46.6828 C48.3958,46.5617 48.3555,46.4391 48.3179,46.3143 C48.2744,46.1696 48.2341,46.0225 48.1974,45.8729 C48.1518,45.6868 48.112,45.4967 48.077,45.3031 C48.0251,45.0161 47.9847,44.7211 47.9565,44.4181 C47.9241,44.0682 47.9075,43.7077 47.9075,43.3368 C47.9075,42.9657 47.9241,42.605 47.9565,42.2548 C47.9847,41.9517 48.0251,41.6566 48.077,41.3694 C48.112,41.1758 48.1518,40.9854 48.1974,40.7992 C48.2341,40.6496 48.2744,40.5025 48.3179,40.3577 C48.3555,40.2329 48.3958,40.1101 48.4383,39.9889 C48.4767,39.8797 48.5163,39.7715 48.5587,39.6653 C48.5971,39.5692 48.6376,39.4748 48.6792,39.3812 C48.7179,39.2942 48.7581,39.2083 48.7996,39.1235 C48.8386,39.0438 48.8786,38.9649 48.9201,38.8872 C48.9592,38.8139 48.9992,38.7413 49.0405,38.6697 C49.0797,38.6017 49.1198,38.5344 49.161,38.468 C49.2003,38.4046 49.2404,38.342 49.2814,38.2801 C49.3207,38.2208 49.361,38.1623 49.4019,38.1043 C49.4412,38.0486 49.4815,37.9937 49.5223,37.9392 C49.5617,37.8866 49.602,37.8347 49.6428,37.7832 C49.6823,37.7335 49.7225,37.6844 49.7632,37.6358 C49.8027,37.5885 49.8429,37.5418 49.8837,37.4956 C49.9233,37.4507 49.9633,37.406 50.0041,37.3621 C50.0438,37.3194 50.0837,37.2766 50.1245,37.2348 C50.164,37.1943 50.2045,37.1546 50.245,37.115 C50.2846,37.0763 50.3249,37.0381 50.3654,37.0002 C50.4052,36.9631 50.4452,36.9261 50.4859,36.8898 C50.5257,36.8543 50.5656,36.8187 50.6063,36.7839 C50.6459,36.7501 50.6864,36.7171 50.7268,36.684 C50.7666,36.6515 50.8067,36.6194 50.8472,36.5876 C50.8871,36.5562 50.927,36.5249 50.9677,36.4943 C51.0073,36.4645 51.0477,36.4354 51.0881,36.4063 C51.1279,36.3775 51.1681,36.3493 51.2086,36.3212 C51.2486,36.2935 51.2883,36.2656 51.329,36.2386 C51.3686,36.2122 51.4092,36.1866 51.4495,36.1609 C51.4894,36.1354 51.5294,36.1101 51.5699,36.0853 C51.6098,36.0608 51.6498,36.0365 51.6903,36.0126 C51.7301,35.9891 51.7705,35.9663 51.8108,35.9434 C51.8508,35.9207 51.8906,35.8979 51.9312,35.8758 C51.9709,35.8541 52.0114,35.8331 52.0517,35.812 C52.0916,35.7911 52.1317,35.7704 52.1721,35.75 C52.212,35.7299 52.2522,35.71 52.2926,35.6904 C52.3324,35.6711 52.3727,35.6523 52.413,35.6335 C52.453,35.6149 52.4929,35.5961 52.5334,35.578 C52.5732,35.5602 52.6136,35.5431 52.6539,35.5258 C52.694,35.5085 52.7338,35.4911 52.7744,35.4744 C52.8142,35.458 52.8546,35.4423 52.8948,35.4264 C52.9349,35.4105 52.9748,35.3945 53.0153,35.3791 C53.0551,35.364 53.0955,35.3495 53.1357,35.3348 C53.1758,35.3202 53.2157,35.3055 53.2562,35.2913 C53.296,35.2774 53.3364,35.2639 53.3766,35.2504 C53.4166,35.237 53.4567,35.2236 53.4971,35.2106 C53.537,35.1978 53.5772,35.1854 53.6175,35.173 C53.6575,35.1607 53.6975,35.1485 53.7379,35.1366 L53.8584,35.1022 C53.8984,35.091 53.9384,35.0796 53.9788,35.0688 C54.0187,35.0581 54.059,35.0479 54.0993,35.0376 C54.1393,35.0274 54.1793,35.017 54.2197,35.0072 L54.3402,34.9789 C54.3802,34.9696 54.4202,34.9601 54.4606,34.9512 C54.5005,34.9424 54.5409,34.9342 54.5811,34.9258 C54.6213,34.9174 54.661,34.9086 54.7015,34.9006 C54.7413,34.8927 54.7818,34.8856 54.8219,34.8781 C54.8621,34.8706 54.9019,34.8627 54.9424,34.8555 C54.9822,34.8484 55.0227,34.8422 55.0628,34.8355 C55.1029,34.8288 55.1429,34.8219 55.1833,34.8156 L55.3037,34.7977 L55.4242,34.7805 L55.5446,34.7646 L55.665,34.75 L55.7855,34.736 L55.9059,34.7239 C55.9461,34.7199 55.986,34.7155 56.0264,34.7118 C56.0663,34.7081 56.1067,34.7053 56.1468,34.702 L56.2673,34.6924 L56.3878,34.6841 L56.5082,34.6769 L56.6287,34.6702 C56.6686,34.6682 56.709,34.6669 56.7491,34.6653 C56.7892,34.6637 56.8291,34.6617 56.8695,34.6604 L56.99,34.6573 L57.1104,34.6547 L57.2309,34.6529 L57.3513,34.6525 C57.3915,34.6524 57.4314,34.6519 57.4718,34.6521 L57.5922,34.6536 L57.7126,34.6554 L57.8331,34.658 L57.9535,34.6619 L58.074,34.6658 L58.1944,34.6714 L58.3149,34.6775 L58.4353,34.684 L58.5558,34.692 L58.6762,34.7001 L58.7236,34.7033 L58.7966,34.7091 L58.9171,34.7187 L59.0375,34.7291 L59.158,34.7401 L59.2784,34.7516 L59.3989,34.7639 L59.5193,34.7768 L59.6398,34.7902 L59.7602,34.8043 L59.8806,34.8191 L60.0011,34.8344 L60.1216,34.8504 L60.242,34.8672 L60.3625,34.8844 L60.4829,34.9023 L60.6034,34.921 L60.7238,34.9403 L60.8442,34.9601 L60.9647,34.9808 L61.0851,35.0021 L61.2056,35.024 L61.326,35.0465 L61.4465,35.0698 L61.5669,35.0937 L61.6874,35.1183 L61.8078,35.1436 L61.9282,35.1696 L62.0487,35.1963 L62.1691,35.2235 L62.2896,35.2515 L62.41,35.2803 L62.5305,35.3097 L62.6509,35.3397 L62.7714,35.3705 L62.8918,35.402 L63.0122,35.4341 L63.1327,35.467 L63.2531,35.5006 L63.3736,35.5348 L63.494,35.5698 L63.6145,35.6055 L63.7349,35.6419 L63.8554,35.6789 L63.9758,35.7166 L64.0963,35.7551 L64.2167,35.7943 L64.3372,35.8342 L64.4576,35.8748 L64.5781,35.916 L64.6985,35.9579 L64.819,36.0007 L64.9394,36.0441 L65.0598,36.0881 L65.1803,36.1329 L65.3007,36.1784 L65.4212,36.2246 L65.5416,36.2714 L65.6621,36.3189 L65.7825,36.3671 L65.903,36.416 L66.0234,36.4656 L66.1438,36.5159 L66.2643,36.5668 L66.3847,36.6184 L66.5052,36.6706 L66.6256,36.7235 L66.7461,36.7769 L66.8665,36.8311 L66.987,36.8859 L67.1074,36.9413 L67.2278,36.9973 L67.3483,37.054 L67.4687,37.1112 L67.5892,37.169 L67.7097,37.2274 L67.8301,37.2864 L67.9506,37.3459 L68.071,37.406 L68.1908,37.4662 L68.1908,32.1746 L68.071,32.145 L67.9506,32.116 L67.8301,32.0874 L67.7097,32.0591 L67.5892,32.0312 L67.4687,32.0037 L67.3483,31.9764 L67.2278,31.9494 L67.1074,31.9228 L66.987,31.8963 L66.8665,31.8702 L66.7461,31.8444 L66.6256,31.8186 L66.5052,31.7933 L66.3847,31.7682 L66.2643,31.7433 L66.1438,31.7186 L66.0234,31.6942 L65.903,31.67 L65.7825,31.6461 L65.6621,31.6225 L65.5416,31.5989 L65.4212,31.5757 L65.3007,31.5527 L65.1803,31.53 L65.0598,31.5075 L64.9394,31.4852 L64.819,31.4632 L64.6985,31.4414 L64.5781,31.4198 L64.4576,31.3985 L64.3372,31.3774 L64.2167,31.3565 L64.0963,31.336 L63.9758,31.3156 L63.8554,31.2955 L63.7349,31.2756 L63.6145,31.256 L63.494,31.2367 L63.3736,31.2175 L63.2531,31.1987 L63.1327,31.18 L63.0122,31.1617 L62.8918,31.1436 L62.7714,31.1257 L62.6509,31.1082 L62.5305,31.0909 L62.41,31.0739 L62.2896,31.0572 L62.1691,31.0407 L62.0487,31.0245 L61.9282,31.0085 L61.8078,30.993 L61.6874,30.9776 L61.5669,30.9625 L61.4465,30.9477 L61.326,30.9333 L61.2056,30.9192 L61.0851,30.9053 L60.9647,30.8918 L60.8442,30.8785 L60.7238,30.8657 L60.6034,30.853 L60.4829,30.8409 L60.3625,30.8289 L60.242,30.8173 L60.1216,30.806 L60.0011,30.7952 L59.8806,30.7846 L59.7602,30.7744 L59.6398,30.7646 L59.5193,30.7551 L59.3989,30.7462 L59.2784,30.7373 L59.158,30.7292 L59.0375,30.7211 L58.9171,30.7138 L58.7966,30.7066 L58.6762,30.7 L58.5558,30.6937 L58.4353,30.6879 L58.3737,30.685 L58.3149,30.6825 L58.1944,30.6775 L58.074,30.6725 L57.9535,30.6675 L57.8331,30.6633 L57.7126,30.6592 L57.5922,30.655 L57.4718,30.6514 L57.3513,30.648 L57.2309,30.6447 L57.1104,30.6416 L56.99,30.6391 L56.8695,30.6367 L56.7491,30.6342 L56.6287,30.6326 L56.5082,30.631 L56.3878,30.6294 L56.2673,30.6284 L56.1468,30.6278 L56.0264,30.6271 L55.9059,30.6268 L55.7855,30.627 L55.665,30.6272 L55.5446,30.6276 L55.4242,30.6287 L55.3037,30.6299 L55.1833,30.6311 L55.0628,30.6332 L54.9424,30.6352 L54.8219,30.6373 L54.7015,30.6403 L54.5811,30.6433 L54.4606,30.6463 L54.3402,30.6502 L54.2197,30.6542 L54.0993,30.6582 L53.9788,30.6631 L53.8584,30.6681 L53.7379,30.673 L53.6175,30.6789 L53.4971,30.6849 L53.3766,30.6908 L53.2562,30.6977 L53.1357,30.7047 L53.0153,30.7117 L52.8948,30.7197 L52.7744,30.7278 L52.6539,30.7359 L52.5334,30.7451 L52.413,30.7542 L52.2926,30.7636 L52.1721,30.7738 L52.0517,30.7839 L51.9312,30.7946 L51.8108,30.8059 L51.6903,30.8172 L51.5699,30.8292 L51.4495,30.8417 L51.329,30.8541 L51.2086,30.8676 L51.0881,30.8811 L50.9677,30.8949 L50.8472,30.9097 L50.7268,30.9244 L50.6063,30.9399 L50.4859,30.9558 L50.3654,30.9717 L50.245,30.9887 L50.1245,31.0058 L50.0041,31.0234 L49.8837,31.0418 L49.7632,31.0601 L49.6428,31.0795 L49.5223,31.0992 L49.4019,31.1193 L49.2814,31.1401 L49.161,31.161 L49.0405,31.183 L48.9201,31.2053 L48.7996,31.2281 L48.6792,31.2516 L48.5587,31.2752 L48.4383,31.3001 L48.3179,31.325 L48.1974,31.3508 L48.077,31.3771 L47.9565,31.4039 L47.8361,31.4316 L47.7156,31.4594 L47.5952,31.4886 L47.4747,31.5178 L47.3543,31.5481 L47.2339,31.5788 L47.1134,31.6104 L46.993,31.6426 L46.8725,31.6754 L46.7521,31.7091 L46.6316,31.7433 L46.5112,31.7786 L46.3907,31.8141 L46.2703,31.851 L46.1498,31.8881 L46.0294,31.9267 C45.9892,31.9396 45.9487,31.9522 45.9089,31.9653 L45.7885,32.0056 C45.7484,32.019 45.7079,32.0322 45.6681,32.0459 L45.5476,32.0879 L45.4272,32.1299 C45.3867,32.1443 45.3468,32.1592 45.3067,32.1738 C45.2665,32.1884 45.2261,32.2028 45.1863,32.2177 L45.0658,32.2634 C45.0256,32.2787 44.9852,32.2937 44.9454,32.3092 L44.8249,32.3568 L44.7045,32.4048 L44.584,32.4543 L44.4636,32.5045 L44.3431,32.5559 L44.2227,32.6085 L44.1024,32.6619 L43.9819,32.717 L43.8615,32.7726 C43.821,32.7916 43.7811,32.811 43.741,32.8302 L43.6206,32.8885 L43.5001,32.9484 L43.3797,33.0096 C43.3394,33.0303 43.299,33.0508 43.2592,33.0717 C43.2187,33.0929 43.1788,33.1145 43.1388,33.136 L43.0183,33.2012 L42.8979,33.2679 C42.8574,33.2906 42.8174,33.3135 42.7774,33.3365 C42.7371,33.3596 42.6968,33.3826 42.657,33.406 C42.6166,33.4297 42.5766,33.4537 42.5366,33.4777 C42.4961,33.502 42.456,33.5265 42.4161,33.5511 C42.3758,33.5759 42.3354,33.6007 42.2957,33.6257 C42.2552,33.6512 42.2151,33.677 42.1752,33.7027 L42.0548,33.7814 C42.0144,33.8081 41.9741,33.8346 41.9343,33.8616 L41.8139,33.9442 C41.7734,33.9723 41.7334,34.0006 41.6935,34.0289 C41.6531,34.0576 41.6128,34.0865 41.573,34.1156 C41.5327,34.145 41.4923,34.1743 41.4526,34.204 C41.412,34.2344 41.3721,34.265 41.3321,34.2957 C41.2916,34.3268 41.2515,34.3581 41.2116,34.3895 C41.1712,34.4213 41.131,34.4533 41.0912,34.4855 L41.0912,34.4854 L41.0912,34.4854 L41.0912,34.4854 Z" id="Shape" fill="url(#linearGradient-3)" sketch:type="MSShapeGroup"></path>
        </g>
    </g>
</svg>