<?xml version="1.0" encoding="UTF-8" standalone="no"?>
<svg width="128px" height="77px" viewBox="0 0 128 77" version="1.1" xmlns="http://www.w3.org/2000/svg" xmlns:xlink="http://www.w3.org/1999/xlink" xmlns:sketch="http://www.bohemiancoding.com/sketch/ns">
    <!-- Generator: Sketch Beta 3.4.1 (15680) - http://www.bohemiancoding.com/sketch -->
    <title>mastercard</title>
    <desc>Created with Sketch Beta.</desc>
    <defs></defs>
    <g id="Page-1" stroke="none" stroke-width="1" fill="none" fill-rule="evenodd" sketch:type="MSPage">
        <g id="mastercard" sketch:type="MSLayerGroup">
            <g id="layer1" transform="translate(0.143134, 0.035935)" sketch:type="MSShapeGroup">
                <g id="g63359" transform="translate(0.113608, 0.109071)">
                    <path d="M64.0395733,66.5132757 C70.8039058,72.6310949 79.7599885,76.3488966 89.588235,76.3488966 C110.611644,76.3488966 127.651883,59.3365244 127.651883,38.347546 C127.651883,17.3585609 110.611644,0.3462361 89.588235,0.3462361 C79.7599885,0.3462361 70.8039058,4.0639498 64.0395733,10.1818569 C56.3561812,17.1232269 51.5245868,27.1707045 51.5245868,38.347546 C51.5245868,49.5243808 56.3561812,59.5482526 64.0395733,66.5132757" id="path58344" fill="#E3B837"></path>
                    <path d="M123.64519,59.4541271 L123.78663,59.4541271 C123.833743,59.4541271 123.880904,59.4541271 123.928023,59.4306499 C123.975183,59.407132 123.998747,59.360049 123.998747,59.3130065 C123.998747,59.2659235 123.975183,59.218881 123.928023,59.1953158 C123.904507,59.171798 123.833743,59.171798 123.78663,59.171798 L123.64519,59.171798 L123.64519,59.4541271 L123.64519,59.4541271 L123.64519,59.4541271 Z M123.64519,60.0659091 L123.385995,60.0659091 L123.385995,58.983547 L123.857347,58.983547 C123.95158,58.983547 124.04586,58.983547 124.116624,59.0305894 C124.210904,59.1012377 124.257976,59.1953158 124.257976,59.3130065 C124.257976,59.4306499 124.1873,59.5482526 124.069463,59.5953357 L124.28158,60.0659091 L123.998747,60.0659091 L123.833743,59.6424187 L123.64519,59.6424187 L123.64519,60.0659091 L123.64519,60.0659091 L123.64519,60.0659091 Z M123.810139,60.4659762 C124.328699,60.4659762 124.752932,60.0424386 124.752932,59.5247754 C124.752932,59.0071122 124.328699,58.5835745 123.810139,58.5835745 C123.291722,58.5835745 122.867442,59.0071122 122.867442,59.5247754 C122.867442,60.0424386 123.291722,60.4659762 123.810139,60.4659762 L123.810139,60.4659762 L123.810139,60.4659762 Z M122.584609,59.5247754 C122.584609,58.8423385 123.126678,58.3012048 123.810139,58.3012048 C124.493696,58.3012048 125.035812,58.8423385 125.035812,59.5247754 C125.035812,60.2071176 124.493696,60.748346 123.810139,60.748346 C123.126678,60.748346 122.584609,60.2071176 122.584609,59.5247754 L122.584609,59.5247754 L122.584609,59.5247754 Z" id="path58346" fill="#E3B837"></path>
                    <path d="M64.0395733,66.5132757 C56.3561812,59.5482526 51.5245868,49.5243808 51.5245868,38.347546 C51.5245868,27.1707045 56.3561812,17.1232269 64.0395733,10.1818569" id="path58348" fill="#E3B837"></path>
                    <path d="M64.0395733,66.5132757 C56.3561812,59.5482526 51.5245868,49.5243808 51.5245868,38.347546 C51.5245868,27.1707045 56.3561812,17.1232269 64.0395733,10.1818569" id="path58350" stroke="#E3B837" stroke-width="3.54488127"></path>
                    <path d="M76.3425723,34.3238501 C76.2011322,32.9591115 75.9654121,31.6178502 75.6826198,30.3001947 L52.373045,30.3001947 C52.6794411,28.9354156 53.0565133,27.5942016 53.4807932,26.2764987 L74.5748783,26.2764987 C74.127042,24.8882423 73.5849732,23.5470284 72.9721877,22.2528095 L55.1069996,22.2528095 C55.7669522,20.8645464 56.4976214,19.5233324 57.2989261,18.2292015 L70.7803019,18.2292015 C69.9082331,16.8173326 68.9183754,15.4761186 67.8813507,14.2055055 L60.1979179,14.2055055 C61.3763422,12.7701661 62.6490803,11.4289454 64.0395733,10.1818569 C57.2753696,4.0639498 48.3191921,0.3462361 38.4909525,0.3462361 C17.467584,0.3462361 0.4272638,17.3585609 0.4272638,38.347546 C0.4272638,59.3365244 17.467584,76.3488966 38.4909525,76.3488966 C48.3191921,76.3488966 57.2753696,72.6310949 64.0395733,66.5132757 C65.4065913,65.2661399 66.7028451,63.924926 67.8813507,62.4895798 L60.1979179,62.4895798 C59.1372961,61.2189261 58.1945513,59.8777054 57.2989261,58.4658838 L70.7803019,58.4658838 C71.581654,57.1717529 72.3122758,55.8305389 72.9721877,54.4421946 L55.1069996,54.4421946 C54.4942073,53.1245391 53.9521385,51.806843 53.4807932,50.4185392 L74.5748783,50.4185392 C75.0227147,49.1008431 75.3997869,47.7596292 75.6826198,46.3948433 C75.9654121,45.0771472 76.2011322,43.7359332 76.3425723,42.3712352 C76.4839245,41.0534985 76.5546886,39.7122373 76.5546886,38.347546 C76.5546886,36.9827601 76.4839245,35.6415462 76.3425723,34.3238501" id="path58352" fill="#BE002E"></path>
                    <path d="M123.64519,47.0772802 L123.78663,47.0772802 C123.833743,47.0772802 123.880904,47.100798 123.928023,47.0772802 C123.975183,47.0301971 123.998747,46.9831547 123.998747,46.9360716 C123.998747,46.8890292 123.975183,46.8419461 123.928023,46.8419461 C123.904507,46.7949037 123.833743,46.818381 123.78663,46.818381 L123.64519,46.818381 L123.64519,47.0772802 L123.64519,47.0772802 L123.64519,47.0772802 Z M123.64519,47.6890689 L123.385995,47.6890689 L123.385995,46.6301773 L123.857347,46.6301773 C123.95158,46.6301773 124.04586,46.6301773 124.116624,46.6772603 C124.210904,46.7243028 124.257976,46.8419461 124.257976,46.9360716 C124.257976,47.0772802 124.1873,47.1714057 124.069463,47.2184008 L124.28158,47.6890689 L123.998747,47.6890689 L123.833743,47.2654838 L123.64519,47.2654838 L123.64519,47.6890689 L123.64519,47.6890689 L123.64519,47.6890689 Z M123.810139,48.0890414 C124.328699,48.0890414 124.752932,47.6655037 124.752932,47.1714057 C124.752932,46.6536952 124.328699,46.2301575 123.810139,46.2301575 C123.291722,46.2301575 122.867442,46.6536952 122.867442,47.1714057 C122.867442,47.6655037 123.291722,48.0890414 123.810139,48.0890414 L123.810139,48.0890414 L123.810139,48.0890414 Z M122.584609,47.1714057 C122.584609,46.4890161 123.126678,45.9242699 123.810139,45.9242699 C124.493696,45.9242699 125.035812,46.4890161 125.035812,47.1714057 C125.035812,47.8301895 124.493696,48.3949357 123.810139,48.3949357 C123.126678,48.3949357 122.584609,47.8301895 122.584609,47.1714057 L122.584609,47.1714057 L122.584609,47.1714057 Z" id="path58354" fill="#FFFFFF"></path>
                    <path d="M51.1003069,49.312612 C49.8275689,49.6655894 48.9319843,49.8302752 47.9891988,49.8302752 C46.0565895,49.8302752 44.8545682,48.6067451 44.8545682,46.3948433 C44.8545682,45.9478283 44.9016878,45.477167 44.9723639,44.983069 L45.2316878,43.4536041 L45.4202002,42.2064683 L47.2114506,31.5002069 L51.1945869,31.5002069 L50.7232348,33.8297521 L53.1979535,33.8297521 L52.608677,37.7827998 L50.1104493,37.7827998 L49.0498207,44.1830361 C49.0026604,44.4653652 48.9791446,44.7006925 48.9791446,44.8419011 C48.9791446,45.6419407 49.4033364,45.9948302 50.3932415,45.9948302 C50.8645869,45.9948302 51.2181907,45.9478283 51.6424232,45.8537096 L51.1003069,49.312612 L51.1003069,49.312612 L51.1003069,49.312612 Z" id="path58356" fill="#000000"></path>
                    <path d="M61.3998986,39.8534458 C61.4235025,39.5240336 61.4235025,39.2416571 61.4235025,39.0534535 C61.4235025,37.7827998 60.7164303,37.0298905 59.4672961,37.0298905 C58.1709474,37.0298905 57.2282026,38.0416517 56.8510898,39.8299279 L61.3998986,39.8534458 L61.3998986,39.8534458 L61.3998986,39.8534458 Z M63.8510542,49.1714034 C62.4369166,49.5949885 61.0699461,49.8067573 59.6322453,49.8067573 C55.2012795,49.8067573 52.608677,47.4066924 52.608677,42.7947323 C52.608677,37.4063452 55.6491158,33.4532095 59.8207645,33.4532095 C63.2146648,33.4532095 65.3830349,35.6651114 65.3830349,39.147579 C65.3830349,40.3005487 65.2416353,41.4299938 64.8880789,43.0065012 L56.6625774,43.0065012 C56.6389735,43.2653531 56.6389735,43.3594786 56.6389735,43.5006871 C56.6389735,45.3124812 57.8645513,46.2537227 60.2450376,46.2537227 C61.7298986,46.2537227 63.0497089,45.9478283 64.5345225,45.2653982 L63.8510542,49.1714034 L63.8510542,49.1714034 L63.8510542,49.1714034 Z" id="path58358" fill="#000000"></path>
                    <path d="M19.5651899,49.5243808 L15.4170978,49.5243808 L17.797584,34.7003453 L12.5181465,49.5243808 L9.6898307,49.5243808 L9.3363624,34.770953 L6.8615962,49.5243808 L2.8549035,49.5243808 L6.0838073,30.2296344 L12.0231974,30.2296344 L12.1881533,42.1829437 L16.194846,30.2296344 L22.7234583,30.2296344 L19.5651899,49.5243808 L19.5651899,49.5243808 L19.5651899,49.5243808 Z" id="path58360" fill="#000000"></path>
                    <path d="M32.7401697,49.5243808 L29.1813133,49.5243808 L29.2519894,47.9008377 C28.3563642,49.1008431 27.130827,49.7831921 24.9152967,49.7831921 C22.9119707,49.7831921 21.238604,48.0419583 21.238604,45.5007322 C21.238604,44.747735 21.3799968,44.0889106 21.5450002,43.4536041 C22.204946,41.0534985 24.6560609,39.5240336 28.403477,39.4534733 C28.8749172,39.4534733 29.6055458,39.4534733 30.2183313,39.5240336 C30.3596834,39.0063704 30.3832872,38.7946016 30.3832872,38.5122251 C30.3832872,37.4769055 29.5347816,37.1474459 27.6021723,37.1474459 C26.4237548,37.1474459 25.1038972,37.3357375 24.1846681,37.618114 L23.595439,37.7827998 L23.3597664,37.8298829 L23.925439,34.3238501 C25.8580822,33.7356266 27.2250595,33.4767747 28.733477,33.4767747 C32.2923808,33.4767747 34.1778637,35.0768405 34.1778637,38.0886874 C34.1778637,38.8652025 34.2486278,39.4534733 33.9657474,41.1947071 L33.1172825,46.7478206 L32.9522859,47.7596292 L32.858006,48.5361442 L32.7873299,49.0773253 L32.7401697,49.5243808 L32.7401697,49.5243808 L32.7401697,49.5243808 Z M29.4877094,42.535921 C29.0398731,42.488838 28.9691497,42.4653607 28.6627535,42.4653607 C26.3294817,42.4653607 25.1510168,43.3594786 25.1510168,44.8419011 C25.1510168,45.8301444 25.7166894,46.4419263 26.6358711,46.4419263 C28.6155932,46.4419263 29.416986,44.8419011 29.4877094,42.535921 L29.4877094,42.535921 L29.4877094,42.535921 Z" id="path58362" fill="#000000"></path>
                    <path d="M83.719609,33.9708727 C84.87447,33.9708727 85.958608,34.276767 87.419905,35.0297575 L88.103374,30.8413757 C87.726302,30.7002145 87.632022,30.6531721 87.089912,30.4648805 L85.392982,30.0413902 C84.87447,29.9001816 84.261678,29.8296213 83.5546124,29.8296213 C81.5041735,29.8296213 80.3021047,29.8530986 79.0529231,30.6296069 C78.3930586,31.0296267 77.5681501,31.6178502 76.6018082,32.676735 L76.1068523,32.5355265 L71.8880434,35.5239028 L72.1001596,33.8297521 L67.7163947,33.8297521 L65.1944751,49.5243808 L69.3426079,49.5243808 L70.850978,41.0770164 C70.850978,41.0770164 71.4402138,39.9240467 71.6994903,39.5711166 C72.4536754,38.5357903 73.1371843,38.5357903 74.0092057,38.5593149 L74.2920861,38.5593149 C74.1742091,39.4769911 74.1034856,40.4652277 74.1034856,41.5476845 C74.1034856,46.6772603 77.0260407,49.8538403 81.4805697,49.8538403 C82.6118675,49.8538403 83.601732,49.7126318 85.11019,49.312612 L85.840771,44.9124614 C84.473794,45.5712925 83.3660119,45.9007453 82.3290752,45.9007453 C79.9250325,45.9007453 78.4873385,44.1359463 78.4873385,41.1947071 C78.4873385,36.9592423 80.6320573,33.9708727 83.719609,33.9708727" id="path58364" fill="#000000"></path>
                    <path d="M113.604916,45.8301444 C112.214294,45.8301444 111.483672,44.794818 111.483672,42.7241247 C111.483672,39.6416769 112.827086,37.4533403 114.68906,37.4533403 C116.126754,37.4533403 116.880987,38.5357903 116.880987,40.5358354 C116.880987,43.6418077 115.537525,45.8301444 113.604916,45.8301444 L113.604916,45.8301444 L113.604916,45.8301444 Z M118.648633,30.2296344 L117.729451,35.7356717 C116.739546,34.2532898 115.561129,33.547335 113.958384,33.547335 C111.790061,33.547335 109.786742,34.770953 108.537601,37.1004508 L108.537601,37.0768856 L105.921402,35.5239028 L106.109955,33.8297521 L101.749753,33.8297521 L99.227874,49.5243808 L103.352403,49.5243808 L104.719421,41.0770164 C104.719421,41.0770164 105.78005,39.9005762 106.039279,39.5475514 C106.652071,38.7475591 107.33558,38.5827854 107.877649,38.5593149 C107.406297,39.877011 107.123464,41.4299938 107.123464,43.21827 C107.123464,47.1242753 109.17395,49.7126318 112.190737,49.7126318 C113.699196,49.7126318 114.877572,49.1949686 116.00887,47.971398 L115.796754,49.5243808 L119.709174,49.5243808 L122.843886,30.2296344 L118.648633,30.2296344 L118.648633,30.2296344 L118.648633,30.2296344 Z" id="path58366" fill="#000000"></path>
                    <path d="M97.837334,49.5243808 L94.278389,49.5243808 L94.349153,47.9008377 C93.453487,49.1008431 92.227903,49.7831921 90.012467,49.7831921 C88.032698,49.7831921 86.194328,48.0655168 86.217891,45.477167 C86.241488,41.7594533 89.046119,39.4534733 93.500648,39.4534733 C93.971993,39.4534733 94.702669,39.4534733 95.315454,39.5240336 C95.456895,39.0063704 95.480458,38.7946016 95.480458,38.5122251 C95.480458,37.4769055 94.631946,37.1474459 92.699343,37.1474459 C91.520878,37.1474459 90.20102,37.3357375 89.281839,37.618114 L88.716166,37.7827998 L88.45693,37.8298829 L89.046119,34.3238501 C90.978769,33.7356266 92.322183,33.4767747 93.830641,33.4767747 C97.389504,33.4767747 99.25143,35.0768405 99.25143,38.0886874 C99.25143,38.8652025 99.34571,39.4534733 99.062918,41.1947071 L98.214406,46.7478206 L98.073054,47.7596292 L97.955177,48.5361442 L97.884453,49.0773253 L97.837334,49.5243808 L97.837334,49.5243808 L97.837334,49.5243808 Z M94.584785,42.535921 C94.1606,42.488838 94.066273,42.4653607 93.759877,42.4653607 C91.426605,42.4653607 90.248181,43.3594786 90.248181,44.8419011 C90.248181,45.8301444 90.813813,46.4419263 91.732994,46.4419263 C93.712805,46.4419263 94.514109,44.8419011 94.584785,42.535921 L94.584785,42.535921 L94.584785,42.535921 Z" id="path58368" fill="#000000"></path>
                    <path d="M41.3663879,37.1945763 C42.16774,37.1945763 43.2754814,37.2651366 44.4774554,37.429863 L45.043128,33.8061869 C43.841066,33.6415011 42.3090853,33.5002925 41.3663879,33.5002925 C36.7468623,33.5002925 35.2148884,35.9474405 35.2148884,38.8416846 C35.2148884,40.7005617 36.13407,42.1123833 38.3023927,43.1477097 C39.9758135,43.9242248 40.2586465,44.065386 40.2586465,44.7712528 C40.2586465,45.7595841 39.4101815,46.3007178 37.7838871,46.3007178 C36.5583025,46.3007178 35.4034482,46.1125141 34.0835838,45.6889358 L33.6122384,49.2890941 L33.7065183,49.312612 L34.460744,49.4772978 C34.696376,49.5243808 35.0735363,49.5715112 35.5448884,49.6185063 C36.5112303,49.7126318 37.3596546,49.7597149 37.8781602,49.7597149 C42.4741293,49.7597149 44.3595716,47.9949564 44.3595716,44.5360135 C44.3595716,42.3947125 43.3461575,41.1240994 41.2720673,40.1829053 C39.5279772,39.3828656 39.3394648,39.2652223 39.3394648,38.5357903 C39.3630212,37.8063177 40.0936499,37.1945763 41.3663879,37.1945763" id="path58370" fill="#000000"></path>
                    <path d="M89.211163,29.6178525 L88.55121,33.8061869 C87.066397,33.0767549 86.005775,32.7708605 84.850914,32.7708605 C81.7633619,32.7708605 79.5950393,35.7356717 79.5950393,39.9946543 C79.5950393,42.9123757 81.0563372,44.6771747 83.4603799,44.6771747 C84.473794,44.6771747 85.605099,44.3712803 86.972076,43.6889381 L86.241488,48.0890414 C84.709473,48.5126196 83.7431722,48.6537402 82.5882637,48.6537402 C78.1337347,48.6537402 75.3762304,45.4536897 75.3762304,40.3241139 C75.3762304,33.4297322 79.1943633,28.6295212 84.662354,28.6295212 C85.369426,28.6295212 86.005775,28.7001694 86.52428,28.8178128 L88.22121,29.2413099 C88.739723,29.4296015 88.857606,29.4766439 89.211163,29.6178525" id="path58372" fill="#FFFFFF"></path>
                    <path d="M75.9419031,32.4885314 C75.82406,32.4649662 75.6826198,32.4649662 75.5411796,32.4649662 C74.1742091,32.4649662 73.4200173,33.1473152 72.1472792,35.0062396 L72.5008356,32.629652 L68.7769353,32.629652 L66.2550969,48.3008508 L70.3796327,48.3008508 C71.8644395,38.7239939 72.2651156,37.0533678 74.2449258,37.0533678 C74.3627621,37.0533678 74.3627621,37.0533678 74.5277181,37.0768856 C74.9048783,35.1944433 75.4233907,33.8061869 76.1068523,32.5355265 L75.9419031,32.4885314 L75.9419031,32.4885314 L75.9419031,32.4885314 Z" id="path58374" fill="#FFFFFF"></path>
                    <path d="M52.1373317,48.1126066 C51.006027,48.4655366 50.1339583,48.6067451 49.1912608,48.6067451 C47.0700104,48.6067451 45.9151494,47.4066924 45.9151494,45.1712727 C45.9151494,44.7242577 45.9623164,44.2535964 46.0329925,43.7594984 L46.2923096,42.2300267 L46.480822,41.0064561 L48.2720318,30.3001947 L52.373045,30.3001947 L51.9016523,32.629652 L54.022862,32.629652 L53.4571894,36.4415791 L51.336027,36.4415791 L50.251842,42.9830239 C50.2047224,43.2653531 50.1811253,43.4771219 50.1811253,43.6182899 C50.1811253,44.4418406 50.6053984,44.794818 51.571659,44.794818 C52.0430924,44.794818 52.4201646,44.747735 52.7029569,44.6301322 L52.1373317,48.1126066 L52.1373317,48.1126066 L52.1373317,48.1126066 Z" id="path58376" fill="#FFFFFF"></path>
                    <path d="M36.2755102,37.571031 C36.2755102,39.5475514 37.2418589,40.9123306 39.4101815,41.9476975 C41.083555,42.7241247 41.3428315,42.9594587 41.3428315,43.6653729 C41.3428315,44.6536095 40.6122029,45.1007124 38.9859491,45.1007124 C37.7368081,45.1007124 36.6054696,44.9124614 35.2856525,44.4653652 L34.7199799,48.0890414 L34.8849765,48.136165 L35.6627247,48.2772856 C35.8984448,48.3243754 36.2519131,48.3714111 36.7233465,48.4184941 C37.713211,48.5126196 38.4674367,48.5596147 39.0094648,48.5596147 C43.3697139,48.5596147 45.373128,46.8890292 45.373128,43.3123955 C45.373128,41.1711419 44.5246156,39.9005762 42.4741293,38.959328 C40.7300392,38.1593356 40.5414862,37.9945687 40.5414862,37.2651366 C40.5414862,36.4181018 41.2249951,35.9709989 42.5448054,35.9709989 C43.3697139,35.9709989 44.4774554,36.0650839 45.5144801,36.2062924 L46.1037566,32.5826163 C45.043128,32.4178831 43.4168742,32.2767219 42.4741293,32.2767219 C37.8546512,32.2767219 36.2519131,34.7003453 36.2755102,37.571031" id="path58378" fill="#FFFFFF"></path>
                    <path d="M114.665456,44.6065738 C116.598147,44.6065738 117.941568,42.4417955 117.941568,39.3357826 C117.941568,37.3357375 117.187376,36.2533281 115.749641,36.2533281 C113.887708,36.2533281 112.544294,38.4416648 112.544294,41.5241193 C112.544294,43.5712474 113.251359,44.6065738 114.665456,44.6065738 L114.665456,44.6065738 L114.665456,44.6065738 Z M120.769795,48.3008508 L116.857383,48.3008508 L117.069499,46.7713858 C115.914597,47.971398 114.759736,48.5126196 113.227762,48.5126196 C110.234531,48.5126196 108.254762,45.9242699 108.254762,41.9946994 C108.254762,36.7945565 111.318716,32.3944059 114.971852,32.3944059 C116.57459,32.3944059 117.800128,33.0531897 118.931473,34.5356595 L119.827051,29.029541 L123.904507,29.029541 L120.769795,48.3008508 L120.769795,48.3008508 L120.769795,48.3008508 Z" id="path58380" fill="#FFFFFF"></path>
                    <path d="M62.4605205,38.6299158 C62.4840362,38.3004562 62.4840362,38.0416517 62.4840362,37.8298829 C62.4840362,36.5592224 61.7534076,35.8297904 60.5278299,35.8297904 C59.2079722,35.8297904 58.2887838,36.8180743 57.8881551,38.6299158 L62.4605205,38.6299158 L62.4605205,38.6299158 L62.4605205,38.6299158 Z M64.7702426,47.971398 C63.356105,48.3949357 61.9891277,48.6067451 60.5278299,48.6067451 C55.9083449,48.6067451 53.5043496,46.1831218 53.5043496,41.5711617 C53.5043496,36.2062924 56.5682975,32.2296389 60.7399461,32.2296389 C64.1338465,32.2296389 66.3022165,34.441534 66.3022165,37.9240083 C66.3022165,39.0769713 66.1608238,40.2064638 65.8072673,41.806489 L57.581759,41.806489 C57.5581619,42.0417825 57.5345581,42.1594664 57.5345581,42.300587 C57.5345581,44.1124758 58.7602239,45.0301521 61.1641786,45.0301521 C62.6490803,45.0301521 63.9688973,44.7242577 65.4537109,44.0418276 L64.7702426,47.971398 L64.7702426,47.971398 L64.7702426,47.971398 Z" id="path58382" fill="#FFFFFF"></path>
                    <path d="M20.6022079,48.3008508 L16.4776789,48.3008508 L18.8345139,33.4767747 L13.5551713,48.3008508 L10.7504525,48.3008508 L10.3968961,33.5709002 L7.8986616,48.3008508 L4.033321,48.3008508 L7.2622722,29.029541 L13.2016149,29.029541 L13.3666115,40.959373 L17.3968199,29.029541 L23.8075959,29.029541 L20.6022079,48.3008508 L20.6022079,48.3008508 L20.6022079,48.3008508 Z" id="path58384" fill="#FFFFFF"></path>
                    <path d="M33.8007915,48.3008508 L30.3596834,48.3008508 L30.4540514,46.6772603 C29.3934295,47.971398 28.0028077,48.5831799 26.1173655,48.5831799 C23.878272,48.5831799 22.3462981,46.818381 22.3462981,44.3006794 C22.3462981,40.4652277 25.0095766,38.2534205 29.5819419,38.2534205 C30.053294,38.2534205 30.6661676,38.3004562 31.2789599,38.3711045 C31.3967555,37.853448 31.4439158,37.618114 31.4439158,37.3592621 C31.4439158,36.3004179 30.7132398,35.9239159 28.7806373,35.9239159 C27.6021723,35.9239159 26.2823147,36.0886491 25.363133,36.3709782 L24.797501,36.5356572 L24.4203882,36.6297827 L24.9860608,33.1003201 C27.0601035,32.512056 28.403477,32.2767219 29.9354983,32.2767219 C33.4707983,32.2767219 35.3563286,33.8532699 35.3563286,36.8651168 C35.3563286,37.6416319 35.2856525,38.2298959 35.026376,39.9711365 L34.1543479,45.5478152 L34.0129077,46.5360518 L33.9186346,47.3360915 L33.8479585,47.8772725 L33.8007915,48.3008508 L33.8007915,48.3008508 L33.8007915,48.3008508 Z M30.7839633,41.3123504 C30.3596834,41.2652674 30.171171,41.2652674 29.8647749,41.2652674 C27.5314556,41.2652674 26.3294817,42.0653477 26.3294817,43.6418077 C26.3294817,44.6065738 26.9186634,45.2419209 27.8142886,45.2419209 C29.5112659,45.2419209 30.7132398,43.6418077 30.7839633,41.3123504 L30.7839633,41.3123504 L30.7839633,41.3123504 Z" id="path58386" fill="#FFFFFF"></path>
                    <path d="M98.897962,48.3008508 L95.456895,48.3008508 L95.551134,46.6772603 C94.490505,47.971398 93.100019,48.5831799 91.214489,48.5831799 C88.975443,48.5831799 87.443469,46.818381 87.443469,44.3006794 C87.443469,40.4652277 90.10674,38.2534205 94.702669,38.2534205 C95.174062,38.2534205 95.76325,38.3004562 96.376036,38.3711045 C96.517476,37.853448 96.540992,37.618114 96.540992,37.3592621 C96.540992,36.3004179 95.810451,35.9239159 93.901317,35.9239159 C92.722899,35.9239159 91.379485,36.0886491 90.460297,36.3709782 L89.894624,36.5356572 L89.517559,36.6297827 L90.083184,33.1003201 C92.157227,32.512056 93.500648,32.2767219 95.032622,32.2767219 C98.591566,32.2767219 100.453452,33.8532699 100.453452,36.8651168 C100.453452,37.6416319 100.406332,38.2298959 100.12354,39.9711365 L99.25143,45.5478152 L99.110031,46.5360518 L99.015758,47.3360915 L98.945082,47.8772725 L98.897962,48.3008508 L98.897962,48.3008508 L98.897962,48.3008508 Z M95.881127,41.3123504 C95.456895,41.2652674 95.268342,41.2652674 94.961946,41.2652674 C92.628579,41.2652674 91.426605,42.0653477 91.426605,43.6418077 C91.426605,44.6065738 92.015787,45.2419209 92.911459,45.2419209 C94.608389,45.2419209 95.810451,43.6418077 95.881127,41.3123504 L95.881127,41.3123504 L95.881127,41.3123504 Z" id="path58388" fill="#FFFFFF"></path>
                    <path d="M109.975295,32.4885314 C109.857418,32.4649662 109.715978,32.4649662 109.551022,32.4649662 C108.207601,32.4649662 107.42986,33.1473152 106.157115,35.0062396 L106.534187,32.629652 L102.786818,32.629652 L100.264892,48.3008508 L104.413025,48.3008508 C105.874323,38.7239939 106.274999,37.0533678 108.254762,37.0533678 C108.372557,37.0533678 108.372557,37.0533678 108.537601,37.0768856 C108.914673,35.1944433 109.409582,33.8061869 110.116735,32.5355265 L109.975295,32.4885314 L109.975295,32.4885314 L109.975295,32.4885314 Z" id="path58390" fill="#FFFFFF"></path>
                </g>
            </g>
        </g>
    </g>
</svg>