<?xml version="1.0" encoding="UTF-8" standalone="no"?>
<svg width="141px" height="35px" viewBox="0 0 141 35" version="1.1" xmlns="http://www.w3.org/2000/svg" xmlns:xlink="http://www.w3.org/1999/xlink" xmlns:sketch="http://www.bohemiancoding.com/sketch/ns">
    <!-- Generator: Sketch Beta 3.4.1 (15680) - http://www.bohemiancoding.com/sketch -->
    <title>paypal</title>
    <desc>Created with Sketch Beta.</desc>
    <defs></defs>
    <g id="Page-1" stroke="none" stroke-width="1" fill="none" fill-rule="evenodd" sketch:type="MSPage">
        <g id="paypal" sketch:type="MSLayerGroup">
            <g id="Shape" sketch:type="MSShapeGroup">
                <path d="M52.546379,7.61983871 L44.7697742,7.61983871 C44.2376129,7.61983871 43.7850484,8.00370968 43.7020403,8.52532258 L40.5568306,28.3251613 C40.4942903,28.7158065 40.7990323,29.0680645 41.1981532,29.0680645 L44.9107742,29.0680645 C45.4429355,29.0680645 45.8955,28.6841935 45.9785081,28.1614516 L46.8267823,22.821129 C46.9086532,22.2983871 47.3623548,21.9145161 47.893379,21.9145161 L50.3551935,21.9145161 C55.4778145,21.9145161 58.4342661,19.4532258 59.2063548,14.5758065 C59.5543065,12.4419355 59.2211371,10.7653226 58.2148065,9.59112903 C57.1095484,8.30177419 55.1491935,7.61983871 52.546379,7.61983871 L52.546379,7.61983871 L52.546379,7.61983871 Z M53.4435484,14.8512903 C53.0182742,17.6219355 50.8862177,17.6219355 48.8246613,17.6219355 L47.6511774,17.6219355 L48.4744355,12.4475806 C48.5233306,12.1348387 48.7962339,11.9045161 49.114621,11.9045161 L49.6524677,11.9045161 C51.0567823,11.9045161 52.3815,11.9045161 53.0660323,12.6993548 C53.47425,13.1735484 53.5993306,13.8780645 53.4435484,14.8512903 L53.4435484,14.8512903 L53.4435484,14.8512903 Z" fill="#253B80"></path>
                <path d="M75.7920484,14.7620968 L72.0680565,14.7620968 C71.7508065,14.7620968 71.4767661,14.9924194 71.427871,15.3051613 L71.2629919,16.3393548 L71.0025968,15.9645161 C70.1963952,14.8027419 68.3986452,14.4143548 66.6043065,14.4143548 C62.4891532,14.4143548 58.9743871,17.5090323 58.2898548,21.8501613 C57.9339435,24.0156452 58.4399516,26.0862903 59.6771129,27.5303226 C60.8119355,28.8580645 62.4357097,29.4112903 64.3676371,29.4112903 C67.6834113,29.4112903 69.5220968,27.2943548 69.5220968,27.2943548 L69.3560806,28.3217742 C69.2935403,28.7146774 69.5982823,29.0669355 69.995129,29.0669355 L73.3495645,29.0669355 C73.8828629,29.0669355 74.3331532,28.6830645 74.4172984,28.1603226 L76.4299597,15.505 C76.4936371,15.1154839 76.1900323,14.7620968 75.7920484,14.7620968 L75.7920484,14.7620968 L75.7920484,14.7620968 Z M70.6012016,21.9585484 C70.241879,24.0709677 68.5532903,25.4890323 66.399629,25.4890323 C65.31825,25.4890323 64.4540565,25.1446774 63.8991532,24.4920968 C63.3487984,23.8440323 63.1395726,22.9216129 63.3146855,21.8941935 C63.650129,19.7998387 65.3671452,18.3354839 67.4878306,18.3354839 C68.5453306,18.3354839 69.4049758,18.6843548 69.97125,19.3425806 C70.5386613,20.0075806 70.7638065,20.9356452 70.6012016,21.9585484 L70.6012016,21.9585484 L70.6012016,21.9585484 Z" fill="#253B80"></path>
                <path d="M95.6252903,14.7620968 L91.8831048,14.7620968 C91.5260565,14.7620968 91.1906129,14.9382258 90.9882097,15.2329032 L85.8269274,22.7816129 L83.6391532,15.5275806 C83.5015645,15.0737097 83.0797016,14.7620968 82.602121,14.7620968 L78.92475,14.7620968 C78.477871,14.7620968 78.1674435,15.1956452 78.3095806,15.6133871 L82.4315565,27.6240323 L78.5563306,33.0558065 C78.2515887,33.4837097 78.5586048,34.0719355 79.0850806,34.0719355 L82.8227177,34.0719355 C83.1774919,34.0719355 83.5095242,33.9003226 83.7107903,33.6112903 L96.1574516,15.7725806 C96.455371,15.3458065 96.1494919,14.7620968 95.6252903,14.7620968 L95.6252903,14.7620968 L95.6252903,14.7620968 Z" fill="#253B80"></path>
                <path d="M108.015097,7.61983871 L100.237355,7.61983871 C99.7063306,7.61983871 99.2537661,8.00370968 99.1707581,8.52532258 L96.0255484,28.3251613 C95.9630081,28.7158065 96.26775,29.0680645 96.6645968,29.0680645 L100.655806,29.0680645 C101.0265,29.0680645 101.34375,28.7993548 101.401742,28.4335484 L102.294363,22.821129 C102.376234,22.2983871 102.829935,21.9145161 103.36096,21.9145161 L105.821637,21.9145161 C110.945395,21.9145161 113.90071,19.4532258 114.673935,14.5758065 C115.023024,12.4419355 114.687581,10.7653226 113.68125,9.59112903 C112.577129,8.30177419 110.617911,7.61983871 108.015097,7.61983871 L108.015097,7.61983871 L108.015097,7.61983871 Z M108.912266,14.8512903 C108.488129,17.6219355 106.356073,17.6219355 104.293379,17.6219355 L103.121032,17.6219355 L103.945427,12.4475806 C103.994323,12.1348387 104.264952,11.9045161 104.584476,11.9045161 L105.122323,11.9045161 C106.5255,11.9045161 107.851355,11.9045161 108.535887,12.6993548 C108.944105,13.1735484 109.068048,13.8780645 108.912266,14.8512903 L108.912266,14.8512903 L108.912266,14.8512903 Z" fill="#179BD7"></path>
                <path d="M131.259629,14.7620968 L127.537911,14.7620968 C127.218387,14.7620968 126.946621,14.9924194 126.898863,15.3051613 L126.733984,16.3393548 L126.472452,15.9645161 C125.66625,14.8027419 123.869637,14.4143548 122.075298,14.4143548 C117.960145,14.4143548 114.446516,17.5090323 113.761984,21.8501613 C113.40721,24.0156452 113.910944,26.0862903 115.148105,27.5303226 C116.285202,28.8580645 117.906702,29.4112903 119.838629,29.4112903 C123.154403,29.4112903 124.993089,27.2943548 124.993089,27.2943548 L124.827073,28.3217742 C124.764532,28.7146774 125.069274,29.0669355 125.468395,29.0669355 L128.821694,29.0669355 C129.352718,29.0669355 129.805282,28.6830645 129.88829,28.1603226 L131.902089,15.505 C131.963492,15.1154839 131.65875,14.7620968 131.259629,14.7620968 L131.259629,14.7620968 L131.259629,14.7620968 Z M126.068782,21.9585484 C125.711734,24.0709677 124.020871,25.4890323 121.86721,25.4890323 C120.788105,25.4890323 119.921637,25.1446774 119.366734,24.4920968 C118.816379,23.8440323 118.609427,22.9216129 118.782266,21.8941935 C119.119984,19.7998387 120.834726,18.3354839 122.955411,18.3354839 C124.012911,18.3354839 124.872556,18.6843548 125.438831,19.3425806 C126.008516,20.0075806 126.233661,20.9356452 126.068782,21.9585484 L126.068782,21.9585484 L126.068782,21.9585484 Z" fill="#179BD7"></path>
                <path d="M135.64996,8.16290323 L132.458129,28.3251613 C132.395589,28.7158065 132.700331,29.0680645 133.097177,29.0680645 L136.306065,29.0680645 C136.839363,29.0680645 137.291927,28.6841935 137.373798,28.1614516 L140.521282,8.36274194 C140.583823,7.97209677 140.279081,7.61870968 139.882234,7.61870968 L136.289008,7.61870968 C135.971758,7.61983871 135.698855,7.85016129 135.64996,8.16290323 L135.64996,8.16290323 L135.64996,8.16290323 Z" fill="#179BD7"></path>
                <path d="M8.26214516,32.9158065 L8.85684677,29.1651613 L7.53212903,29.1346774 L1.20645968,29.1346774 L5.60247581,1.45870968 C5.61612097,1.37516129 5.66046774,1.29725806 5.72528226,1.24193548 C5.79009677,1.1866129 5.87310484,1.15612903 5.95952419,1.15612903 L16.6254919,1.15612903 C20.1664113,1.15612903 22.6100323,1.88774194 23.8858548,3.33177419 C24.4839677,4.00919355 24.8648952,4.71709677 25.0491048,5.49612903 C25.2424113,6.31354839 25.2458226,7.29016129 25.0570645,8.48129032 L25.0434194,8.56822581 L25.0434194,9.33145161 L25.6415323,9.66790323 C26.1452661,9.93322581 26.5455242,10.2369355 26.8525403,10.5846774 C27.3642339,11.163871 27.695129,11.9 27.8349919,12.7727419 C27.9794032,13.6703226 27.9316452,14.7383871 27.695129,15.9475806 C27.4222258,17.3385484 26.9810323,18.55 26.3851935,19.5412903 C25.8371129,20.4546774 25.1389355,21.2122581 24.3099919,21.7993548 C23.5185726,22.3570968 22.5781935,22.7804839 21.5150081,23.0514516 C20.4847984,23.3179032 19.3101774,23.4522581 18.0218468,23.4522581 L17.1917661,23.4522581 C16.5982016,23.4522581 16.0216935,23.6645161 15.569129,24.045 C15.1154274,24.4333871 14.8152339,24.9640323 14.723129,25.5443548 L14.6605887,25.8819355 L13.6099113,32.4924194 L13.5621532,32.7351613 C13.5496452,32.8119355 13.5280403,32.8503226 13.4962016,32.8762903 C13.4677742,32.9 13.4268387,32.9158065 13.3870403,32.9158065 L8.26214516,32.9158065 L8.26214516,32.9158065 L8.26214516,32.9158065 Z" fill="#253B80"></path>
                <path d="M26.2078065,8.65629032 L26.2078065,8.65629032 C26.1759677,8.8583871 26.1395806,9.065 26.0986452,9.27725806 C24.6920565,16.4477419 19.8798629,18.9248387 13.7338548,18.9248387 L10.6045645,18.9248387 C9.85294355,18.9248387 9.21958065,19.4667742 9.10245968,20.2029032 L9.10245968,20.2029032 L7.50029032,30.2919355 L7.04658871,33.1517742 C6.97040323,33.635 7.34564516,34.0708065 7.83687097,34.0708065 L13.3870403,34.0708065 C14.0442823,34.0708065 14.6025968,33.5966129 14.7060726,32.9530645 L14.7606532,32.6730645 L15.8056452,26.0885484 L15.8727339,25.7272581 C15.9750726,25.0814516 16.5345242,24.6072581 17.1917661,24.6072581 L18.0218468,24.6072581 C23.3991774,24.6072581 27.6087097,22.4395161 28.8390484,16.1666129 C29.3530161,13.546129 29.0869355,11.3580645 27.7269677,9.81919355 C27.3153387,9.35516129 26.8047823,8.97016129 26.2078065,8.65629032 L26.2078065,8.65629032 L26.2078065,8.65629032 Z" fill="#179BD7"></path>
                <path d="M24.7364032,8.07370968 C24.5214919,8.0116129 24.2997581,7.95516129 24.0723387,7.90435484 C23.8437823,7.85467742 23.6095403,7.81064516 23.3684758,7.77225806 C22.52475,7.63677419 21.6002903,7.57241935 20.609879,7.57241935 L12.2499435,7.57241935 C12.044129,7.57241935 11.8485484,7.61870968 11.6734355,7.70225806 C11.2879597,7.88629032 11.0014113,8.24870968 10.9320484,8.69241935 L9.15362903,19.8766129 L9.10245968,20.2029032 C9.21958065,19.4667742 9.85294355,18.9248387 10.6045645,18.9248387 L13.7338548,18.9248387 C19.8798629,18.9248387 24.6920565,16.4466129 26.0986452,9.27725806 C26.1407177,9.065 26.1759677,8.8583871 26.2078065,8.65629032 C25.8518952,8.46887097 25.4664194,8.30854839 25.051379,8.17193548 C24.9490403,8.13806452 24.8432903,8.10532258 24.7364032,8.07370968 L24.7364032,8.07370968 L24.7364032,8.07370968 Z" fill="#222D65"></path>
                <path d="M10.9320484,8.69241935 C11.0014113,8.24870968 11.2879597,7.88629032 11.6734355,7.7033871 C11.8496855,7.61983871 12.044129,7.57354839 12.2499435,7.57354839 L20.609879,7.57354839 C21.6002903,7.57354839 22.52475,7.63790323 23.3684758,7.7733871 C23.6095403,7.81177419 23.8437823,7.85580645 24.0723387,7.90548387 C24.2997581,7.95629032 24.5214919,8.01274194 24.7364032,8.07483871 C24.8432903,8.10645161 24.9490403,8.13919355 25.0525161,8.17193548 C25.4675565,8.30854839 25.8530323,8.47 26.2089435,8.65629032 C26.6273952,6.00645161 26.2055323,4.20225806 24.7625565,2.56854839 C23.1717581,0.77 20.3005887,0 16.626629,0 L5.96066129,0 C5.21017742,0 4.56999194,0.541935484 4.45400806,1.27919355 L0.0113709677,29.2396774 C-0.0761854839,29.7929032 0.353637097,30.2919355 0.915362903,30.2919355 L7.50029032,30.2919355 L9.15362903,19.8766129 L10.9320484,8.69241935 L10.9320484,8.69241935 L10.9320484,8.69241935 Z" fill="#253B80"></path>
            </g>
        </g>
    </g>
</svg>