<?xml version="1.0" encoding="UTF-8" standalone="no"?>
<svg width="147px" height="45px" viewBox="0 0 147 45" version="1.1" xmlns="http://www.w3.org/2000/svg" xmlns:xlink="http://www.w3.org/1999/xlink" xmlns:sketch="http://www.bohemiancoding.com/sketch/ns">
    <!-- Generator: Sketch Beta 3.4.1 (15680) - http://www.bohemiancoding.com/sketch -->
    <title>visa</title>
    <desc>Created with Sketch Beta.</desc>
    <defs></defs>
    <g id="Page-1" stroke="none" stroke-width="1" fill="none" fill-rule="evenodd" sketch:type="MSPage">
        <g id="visa" sketch:type="MSLayerGroup">
            <g id="g5088" sketch:type="MSShapeGroup">
                <path d="M52.0080744,44.3555071 L59.3870511,1.38804236 L71.18901,1.38804236 L63.8052322,44.3555071 L52.0080744,44.3555071 L52.0080744,44.3555071 L52.0080744,44.3555071 Z" id="polygon10" fill="#004686"></path>
                <path d="M106.609124,2.44725643 C104.27095,1.57515064 100.606974,0.64285714 96.0312337,0.64285714 C84.3701791,0.6416906 76.1551303,6.47018643 76.085597,14.8221436 C76.0200006,20.995705 81.9499721,24.4400371 86.4267268,26.495235 C91.0205623,28.5996693 92.5647818,29.9439864 92.5429119,31.8249264 C92.5139926,34.703475 88.8744657,36.0205043 85.482282,36.0205043 C80.7586674,36.0200377 78.249077,35.3695747 74.3732724,33.7653543 L72.8525718,33.0812949 L71.196205,42.6998784 C73.9531189,43.8997819 79.0500944,44.9391749 84.3424585,44.9932906 C96.7483475,44.9925907 104.801814,39.2324477 104.893366,30.314017 C104.938038,25.4255149 101.793653,21.7065791 94.9850649,18.6399891 C90.860033,16.6512777 88.333291,15.3260834 88.3600945,13.313567 C88.3603296,11.5271241 90.4984266,9.6177299 95.118602,9.6177299 C98.9784305,9.5568365 101.773422,10.3932455 103.951504,11.2637249 L105.009505,11.7585715 L106.609202,2.4472515 L106.609124,2.44725643 L106.609124,2.44725643 L106.609124,2.44725643 Z" id="path12" fill="#004686"></path>
                <path d="M136.873011,1.42887229 L127.752804,1.42887229 C124.927946,1.42887229 122.813586,2.19575636 121.572665,4.993823 L104.045629,44.3685087 L116.438108,44.3685087 C116.438108,44.3685087 118.464773,39.0749766 118.923229,37.9128851 C120.277941,37.9128851 132.316343,37.9313164 134.037359,37.9313164 C134.390966,39.4349857 135.473419,44.3694435 135.473419,44.3694435 L146.425135,44.3685104 L136.873026,1.42882472 L136.873011,1.42887229 L136.873011,1.42887229 Z M122.319401,29.1236175 C123.295583,26.6477496 127.021394,17.1136254 127.021394,17.1136254 C126.952272,17.227247 127.990053,14.6258632 128.586295,13.0127746 L129.384968,16.7160704 C129.384968,16.7160704 131.643924,26.9734625 132.116254,29.1243239 L122.319405,29.1236241 L122.319401,29.1236175 L122.319401,29.1236175 L122.319401,29.1236175 Z" id="path14" fill="#004686"></path>
                <path d="M42.1098389,1.41953921 L30.5557663,30.7200606 L29.3244883,24.7662806 C27.1736898,17.9014214 20.4713718,10.4658992 12.9790724,6.7428235 L23.5442651,44.3184164 L36.0310279,44.3037177 L54.6109968,1.41956082 L42.1098968,1.41956082 L42.1098389,1.41953921 L42.1098389,1.41953921 L42.1098389,1.41953921 Z" id="path16" fill="#004686"></path>
                <path d="M19.8368222,1.39364286 L0.80621111,1.39364286 L0.65550473,2.28814571 C15.4609394,5.843765 25.2575565,14.4395221 29.3242631,24.76621 L25.1860696,5.02153143 C24.4718016,2.30092714 22.3995378,1.48924071 19.8368206,1.39359357 L19.8368222,1.39364286 L19.8368222,1.39364286 L19.8368222,1.39364286 Z" id="path18" fill="#EF9B11"></path>
            </g>
        </g>
    </g>
</svg>